<?xml version="1.0" encoding="UTF-8"?>
<svg width="691px" height="160px" viewBox="0 0 691 160" version="1.1" xmlns="http://www.w3.org/2000/svg" xmlns:xlink="http://www.w3.org/1999/xlink">
    <!-- Generator: Sketch 41.1 (35376) - http://www.bohemiancoding.com/sketch -->
    <title>bethellynsummer-logo</title>
    <desc>Created with Sketch.</desc>
    <defs></defs>
    <g id="Page-1" stroke="none" stroke-width="1" fill="none" fill-rule="evenodd">
        <g id="Desktop-HD" transform="translate(-362.000000, -259.000000)">
            <g id="Group-7" transform="translate(-26.000000, 0.000000)">
                <g id="bethellynsummer-logo" transform="translate(388.000000, 259.000000)">
                    <g id="Group">
                        <ellipse id="Oval-1" fill="#D72B7D" cx="79.7646168" cy="80.5506931" rx="19.2435712" ry="19.2523364"></ellipse>
                        <path d="M79.7525197,0.635334225 C79.7525197,0.635334225 71.0505469,13.6243981 71.0505469,29.6472204 C71.0505469,45.6700426 79.7525197,58.6591065 79.7525197,58.6591065 C79.7525197,58.6591065 88.4544924,45.6700426 88.4544924,29.6472204 C88.4544924,13.6243981 79.7525197,0.635334225 79.7525197,0.635334225 L79.7525197,0.635334225 Z M159.288966,80.1874414 C159.288966,80.1874414 146.296612,71.4876724 130.269731,71.4876724 C114.24285,71.4876724 101.250496,80.1874414 101.250496,80.1874414 C101.250496,80.1874414 114.24285,88.8872105 130.269731,88.8872105 C146.296612,88.8872105 159.288966,80.1874414 159.288966,80.1874414 L159.288966,80.1874414 Z M79.7525197,159.739549 C79.7525197,159.739549 88.4544924,146.750485 88.4544924,130.727662 C88.4544924,114.70484 79.7525197,101.715776 79.7525197,101.715776 C79.7525197,101.715776 71.0505469,114.70484 71.0505469,130.727662 C71.0505469,146.750485 79.7525197,159.739549 79.7525197,159.739549 L79.7525197,159.739549 Z M0.216073614,80.1874414 C0.216073614,80.1874414 13.2084277,88.8872105 29.2353087,88.8872105 C45.2621897,88.8872105 58.2545438,80.1874414 58.2545438,80.1874414 C58.2545438,80.1874414 45.2621897,71.4876724 29.2353087,71.4876724 C13.2084277,71.4876724 0.216073614,80.1874414 0.216073614,80.1874414 L0.216073614,80.1874414 Z" id="Oval-1-Copy" fill="#D72B7D"></path>
                        <path d="M136.018603,23.935607 C136.018603,23.935607 120.678398,26.9685964 109.345681,38.2984427 C98.0129651,49.628289 94.9792074,64.9646098 94.9792074,64.9646098 C94.9792074,64.9646098 110.319413,61.9316204 121.652129,50.6017741 C132.984845,39.2719278 136.018603,23.935607 136.018603,23.935607 L136.018603,23.935607 Z M135.99328,136.413959 C135.99328,136.413959 132.959522,121.077638 121.626806,109.747792 C110.29409,98.4179457 94.9538842,95.3849563 94.9538842,95.3849563 C94.9538842,95.3849563 97.9876419,110.721277 109.320358,122.051123 C120.653074,133.38097 135.99328,136.413959 135.99328,136.413959 L135.99328,136.413959 Z M23.4864361,136.439276 C23.4864361,136.439276 38.8266418,133.406286 50.159358,122.07644 C61.4920742,110.746594 64.525832,95.4102731 64.525832,95.4102731 C64.525832,95.4102731 49.1856263,98.4432625 37.8529101,109.773109 C26.5201938,121.102955 23.4864361,136.439276 23.4864361,136.439276 L23.4864361,136.439276 Z M37.8782332,50.6270909 C49.2109495,61.9569371 64.5511551,64.9899266 64.5511551,64.9899266 C64.5511551,64.9899266 61.5173974,49.6536057 50.1846812,38.3237594 C38.851965,26.9939132 23.5117593,23.9609237 23.5117593,23.9609237 C23.5117593,23.9609237 26.545517,39.2972446 37.8782332,50.6270909 Z" id="Oval-1-Copy" fill="#CE76A8"></path>
                    </g>
                    <path d="M184.779165,41.0063513 C184.779165,36.646968 181.889942,34.4673091 176.11141,34.4673091 L170.687416,34.4673091 L170.687416,48.3428376 L175.101058,48.3428376 C178.32711,48.3428376 180.746613,47.7048887 182.359638,46.4289716 C183.972664,45.1530546 184.779165,43.3455325 184.779165,41.0063513 L184.779165,41.0063513 Z M186.002223,59.507056 C186.002223,56.8843376 185.045057,54.9350491 183.130696,53.6591321 C181.216336,52.383215 178.185311,51.7452661 174.03753,51.7452661 L170.581063,51.7452661 L170.581063,67.16252 L174.675647,67.16252 C182.226735,67.16252 186.002223,64.6107242 186.002223,59.507056 L186.002223,59.507056 Z M189.937277,59.2944042 C189.937277,66.7726958 184.814667,70.5117855 174.569294,70.5117855 L168.134948,70.5117855 C167.390475,70.5117855 166.956205,70.4497627 166.832126,70.3257152 C166.708047,70.2016677 166.646009,69.767508 166.646009,69.0232231 L166.646009,32.659769 C166.646009,31.915484 166.708047,31.4813243 166.832126,31.3572768 C166.956205,31.2332293 167.390475,31.1712065 168.134948,31.1712065 L176.11141,31.1712065 C184.513325,31.1712065 188.71422,34.3963929 188.71422,40.8468624 C188.71422,45.7733199 186.374481,48.7681359 181.694933,49.8314001 C184.389218,50.6111271 186.43649,51.7895606 187.836809,53.3667359 C189.237128,54.9439111 189.937277,56.9197808 189.937277,59.2944042 L189.937277,59.2944042 Z M199.449599,70.5649485 C198.705125,70.5649485 198.270856,70.5029256 198.146777,70.3788781 C198.022698,70.2548307 197.960659,69.820671 197.960659,69.076386 L197.960659,32.4471172 C197.960659,31.7737165 198.022698,31.3749984 198.146777,31.2509509 C198.270856,31.1269034 198.669675,31.0648806 199.343246,31.0648806 L217.795461,31.0648806 C218.291776,31.0648806 218.53993,31.3129719 218.53993,31.8091618 L218.53993,33.6698649 C218.53993,34.1660549 218.291776,34.4141461 217.795461,34.4141461 L201.842537,34.4141461 L201.842537,48.4491635 L216.997814,48.4491635 C217.49413,48.4491635 217.742284,48.6972548 217.742284,49.1934447 L217.742284,51.1073107 C217.742284,51.6035007 217.49413,51.851592 216.997814,51.851592 L201.842537,51.851592 L201.842537,67.16252 L218.433578,67.16252 C218.929893,67.16252 219.178047,67.4106113 219.178047,67.9068012 L219.178047,69.8206672 C219.178047,70.3168572 218.929893,70.5649485 218.433578,70.5649485 L199.449599,70.5649485 Z M238.634358,34.4673091 L238.634358,69.7675043 C238.634358,70.2636942 238.386204,70.5117855 237.889888,70.5117855 L235.443773,70.5117855 C234.947458,70.5117855 234.699303,70.2636942 234.699303,69.7675043 L234.699303,34.4673091 L223.744963,34.4673091 C223.248647,34.4673091 223.000493,34.2192178 223.000493,33.7230279 L223.000493,31.9154877 C223.000493,31.4192978 223.248647,31.1712065 223.744963,31.1712065 L249.695051,31.1712065 C250.191367,31.1712065 250.439521,31.4192978 250.439521,31.9154877 L250.439521,33.7230279 C250.439521,34.2192178 250.191367,34.4673091 249.695051,34.4673091 L238.634358,34.4673091 Z M283.030405,69.7675043 C283.030405,70.2636942 282.782251,70.5117855 282.285936,70.5117855 L279.892997,70.5117855 C279.396681,70.5117855 279.148527,70.2636942 279.148527,69.7675043 L279.148527,51.851592 L258.994667,51.851592 L258.994667,69.7675043 C258.994667,70.2636942 258.746513,70.5117855 258.250198,70.5117855 L255.857259,70.5117855 C255.360944,70.5117855 255.112789,70.2636942 255.112789,69.7675043 L255.112789,31.8091618 C255.112789,31.3129719 255.360944,31.0648806 255.857259,31.0648806 L258.250198,31.0648806 C258.746513,31.0648806 258.994667,31.3129719 258.994667,31.8091618 L258.994667,48.5023264 L279.148527,48.5023264 L279.148527,31.8091618 C279.148527,31.3129719 279.396681,31.0648806 279.892997,31.0648806 L282.285936,31.0648806 C282.782251,31.0648806 283.030405,31.3129719 283.030405,31.8091618 L283.030405,69.7675043 Z M307.479043,70.5649485 C306.734569,70.5649485 306.300299,70.5029256 306.176221,70.3788781 C306.052142,70.2548307 305.990103,69.820671 305.990103,69.076386 L305.990103,32.4471172 C305.990103,31.7737165 306.052142,31.3749984 306.176221,31.2509509 C306.300299,31.1269034 306.699119,31.0648806 307.37269,31.0648806 L325.824905,31.0648806 C326.32122,31.0648806 326.569374,31.3129719 326.569374,31.8091618 L326.569374,33.6698649 C326.569374,34.1660549 326.32122,34.4141461 325.824905,34.4141461 L309.871981,34.4141461 L309.871981,48.4491635 L325.027258,48.4491635 C325.523574,48.4491635 325.771728,48.6972548 325.771728,49.1934447 L325.771728,51.1073107 C325.771728,51.6035007 325.523574,51.851592 325.027258,51.851592 L309.871981,51.851592 L309.871981,67.16252 L326.463021,67.16252 C326.959337,67.16252 327.207491,67.4106113 327.207491,67.9068012 L327.207491,69.8206672 C327.207491,70.3168572 326.959337,70.5649485 326.463021,70.5649485 L307.479043,70.5649485 Z M354.161676,67.16252 C354.657991,67.16252 354.906146,67.4106113 354.906146,67.9068012 L354.906146,69.7675043 C354.906146,70.2636942 354.657991,70.5117855 354.161676,70.5117855 L336.932519,70.5117855 C336.436203,70.5117855 336.055109,70.5029251 335.789226,70.485204 C335.523342,70.467483 335.328364,70.3965997 335.204285,70.2725523 C335.080206,70.1485048 335.009305,69.9447155 334.99158,69.6611784 C334.973854,69.3776413 334.964991,68.9877836 334.964991,68.4915936 L334.964991,31.9154877 C334.964991,31.4192978 335.213145,31.1712065 335.709461,31.1712065 L338.155576,31.1712065 C338.651892,31.1712065 338.900046,31.4192978 338.900046,31.9154877 L338.900046,67.16252 L354.161676,67.16252 Z M378.616569,67.16252 C379.112885,67.16252 379.361039,67.4106113 379.361039,67.9068012 L379.361039,69.7675043 C379.361039,70.2636942 379.112885,70.5117855 378.616569,70.5117855 L361.387412,70.5117855 C360.891096,70.5117855 360.510002,70.5029251 360.244119,70.485204 C359.978236,70.467483 359.783257,70.3965997 359.659178,70.2725523 C359.5351,70.1485048 359.464198,69.9447155 359.446473,69.6611784 C359.428747,69.3776413 359.419885,68.9877836 359.419885,68.4915936 L359.419885,31.9154877 C359.419885,31.4192978 359.668039,31.1712065 360.164354,31.1712065 L362.610469,31.1712065 C363.106785,31.1712065 363.354939,31.4192978 363.354939,31.9154877 L363.354939,67.16252 L378.616569,67.16252 Z M395.414059,69.7675043 C395.414059,70.2636942 395.165905,70.5117855 394.669589,70.5117855 L392.223474,70.5117855 C391.727159,70.5117855 391.479005,70.2636942 391.479005,69.7675043 L391.479005,53.8717839 C389.10378,50.1503591 386.737453,46.4555714 384.379954,42.7873099 C382.022454,39.1190484 379.656128,35.4597023 377.280903,31.8091618 C377.210001,31.6319511 377.210001,31.4636035 377.280903,31.3041139 C377.351805,31.1446242 377.493607,31.0648806 377.706314,31.0648806 L380.73737,31.0648806 C381.162783,31.0648806 381.517289,31.3129719 381.800898,31.8091618 L393.393355,50.4693554 C395.520422,47.2441206 397.523381,44.1341195 399.40229,41.1392586 C401.281199,38.1443978 403.284157,35.0343966 405.411224,31.8091618 C405.659382,31.3129719 406.013888,31.0648806 406.474753,31.0648806 L409.133573,31.0648806 C409.34628,31.0648806 409.496945,31.1446242 409.585573,31.3041139 C409.6742,31.4636035 409.665338,31.6319511 409.558984,31.8091618 L395.414059,53.8717839 L395.414059,69.7675043 Z M417.688719,70.5117855 L415.295781,70.5117855 C414.799465,70.5117855 414.551311,70.2636942 414.551311,69.7675043 L414.551311,32.5534431 C414.551311,31.8091581 414.61335,31.3749984 414.737429,31.2509509 C414.861508,31.1269034 415.295777,31.0648806 416.040251,31.0648806 L418.486366,31.0648806 C418.94723,31.0648806 419.257423,31.1091826 419.416953,31.197788 C419.576483,31.2863933 419.744873,31.4901826 419.922129,31.8091618 L439.969636,66.205587 L439.969636,31.8091618 C439.969636,31.3129719 440.21779,31.0648806 440.714105,31.0648806 L443.053868,31.0648806 C443.550183,31.0648806 443.798337,31.3129719 443.798337,31.8091618 L443.798337,69.0232231 C443.798337,69.767508 443.736299,70.2016677 443.61222,70.3257152 C443.488141,70.4497627 443.053871,70.5117855 442.309398,70.5117855 L439.065637,70.5117855 C438.782028,70.5117855 438.578187,70.4763439 438.454108,70.4054596 C438.330029,70.3345753 438.179364,70.1573673 438.002109,69.8738302 L418.433189,36.0621974 L418.433189,69.7675043 C418.433189,70.2636942 418.185035,70.5117855 417.688719,70.5117855 L417.688719,70.5117855 Z M465.269096,69.9801561 C464.701878,69.8029454 464.471449,69.4839709 464.577802,69.0232231 L464.790508,66.5777276 C464.86141,66.2941905 464.976625,66.0992616 465.136155,65.9929352 C465.295685,65.8866088 465.4818,65.9043296 465.694507,66.0460982 C466.935296,66.7194988 468.184929,67.2068209 469.443444,67.5080791 C470.701959,67.8093373 472.14657,67.9599642 473.777321,67.9599642 C476.365253,67.9599642 478.483426,67.251132 480.131903,65.8334464 C481.78038,64.4157608 482.604606,62.4133099 482.604606,59.8260336 C482.604606,58.7982116 482.205787,57.7704049 481.408136,56.7425829 C480.610486,55.7147608 479.502655,54.7401166 478.084611,53.8186209 C476.843822,53.0388938 475.443523,52.2237368 473.883674,51.3731255 C472.323825,50.5225141 470.8349,49.5921719 469.416856,48.5820709 C467.998811,47.5719699 466.811216,46.4378384 465.854036,45.1796424 C464.896856,43.9214464 464.418273,42.4594801 464.418273,40.7936995 C464.418273,39.0924767 464.772779,37.5950688 465.481801,36.3014307 C466.190824,35.0077925 467.139127,33.9268235 468.326739,33.058491 C469.514352,32.1901586 470.870337,31.5256284 472.394735,31.0648806 C473.919133,30.6041328 475.478959,30.3737623 477.074259,30.3737623 C478.456853,30.3737623 479.679898,30.453506 480.743431,30.6129956 C481.806965,30.7724852 482.959109,31.0471577 484.199898,31.4370212 C484.731665,31.6142319 484.944368,31.9332064 484.838015,32.3939542 L484.412604,34.4673091 C484.30625,35.0698255 484.00492,35.2293127 483.508605,34.9457756 C482.515973,34.4850278 481.549945,34.1749137 480.61049,34.015424 C479.671036,33.8559344 478.474578,33.7761908 477.021083,33.7761908 C475.851196,33.7761908 474.743365,33.9179572 473.697557,34.2014944 C472.651749,34.4850315 471.747759,34.9103308 470.98556,35.477405 C470.223361,36.0444793 469.611838,36.7533114 469.150974,37.6039228 C468.690109,38.4545342 468.45968,39.46462 468.45968,40.6342106 C468.45968,41.5557063 468.769873,42.4240257 469.390267,43.2391949 C470.010662,44.0543642 470.77285,44.8163587 471.676853,45.5252016 C472.580857,46.2340444 473.555748,46.8808537 474.601556,47.465649 C475.647364,48.0504443 476.595667,48.5909289 477.446494,49.0871188 C478.616381,49.7605195 479.750799,50.4516309 480.849784,51.1604737 C481.948769,51.8693165 482.92366,52.6667527 483.774487,53.5528062 C484.625314,54.4388597 485.3166,55.4135039 485.848367,56.4767681 C486.380134,57.5400323 486.646013,58.7627678 486.646013,60.1450113 C486.646013,61.9171183 486.282644,63.4942699 485.555897,64.8765134 C484.829149,66.2587569 483.86312,67.4283299 482.657782,68.3852677 C481.452444,69.3422055 480.061009,70.0776189 478.483434,70.5915299 C476.905859,71.105441 475.266269,71.3623926 473.564616,71.3623926 C472.004767,71.3623926 470.613331,71.2560678 469.390267,71.043415 C468.167204,70.8307621 466.793494,70.476346 465.269096,69.9801561 L465.269096,69.9801561 Z M497.434568,56.7957458 C497.434568,60.1627491 498.303108,62.8208698 500.040213,64.7701875 C501.990024,66.932158 504.595642,68.0131271 507.857145,68.0131271 C511.18955,68.0131271 513.830619,66.932158 515.78043,64.7701875 C516.666708,63.8132497 517.313682,62.6702578 517.721369,61.3411776 C518.129057,60.0120973 518.332898,58.4969685 518.332898,56.7957458 L518.332898,31.8091618 C518.332898,31.3129719 518.581052,31.0648806 519.077368,31.0648806 L521.523483,31.0648806 C522.019798,31.0648806 522.267953,31.3129719 522.267953,31.8091618 L522.267953,56.7957458 C522.267953,59.383022 521.842545,61.6601454 520.991719,63.6271842 C520.140892,65.594223 518.917847,67.1979558 517.322546,68.4384307 C514.734615,70.3877484 511.579512,71.3623926 507.857145,71.3623926 C504.170229,71.3623926 501.032852,70.3877484 498.44492,68.4384307 C495.147966,65.992923 493.499514,62.1120668 493.499514,56.7957458 L493.499514,31.8091618 C493.499514,31.3129719 493.747668,31.0648806 494.243984,31.0648806 L496.690099,31.0648806 C497.186414,31.0648806 497.434568,31.3129719 497.434568,31.8091618 L497.434568,56.7957458 Z M571.662583,69.7675043 C571.662583,70.2636942 571.414429,70.5117855 570.918113,70.5117855 L568.525174,70.5117855 C568.028859,70.5117855 567.780705,70.2636942 567.780705,69.7675043 L567.780705,34.520472 C565.157322,41.0418258 562.799858,46.8719705 560.708242,52.0110808 C559.821964,54.2084935 558.953425,56.3615712 558.102598,58.4703786 C557.251771,60.5791859 556.489583,62.4575912 555.816012,64.1056507 C555.142441,65.7537102 554.592957,67.0916309 554.167543,68.119453 C553.74213,69.1472751 553.529426,69.6788992 553.529426,69.7143413 C553.352171,70.0687627 553.086291,70.2459708 552.73178,70.2459708 L550.338842,70.2459708 C550.090684,70.2459708 549.913431,70.2016688 549.807078,70.1130634 C549.700724,70.0244581 549.612098,69.891552 549.541196,69.7143413 L534.864506,34.520472 L534.864506,69.7675043 C534.864506,70.2636942 534.616352,70.5117855 534.120036,70.5117855 L531.727098,70.5117855 C531.230782,70.5117855 530.982628,70.2636942 530.982628,69.7675043 L530.982628,32.5534431 C530.982628,31.8091581 531.044667,31.3749984 531.168745,31.2509509 C531.292824,31.1269034 531.727094,31.0648806 532.471568,31.0648806 L536.459798,31.0648806 C536.743407,31.0648806 536.947248,31.1003222 537.071327,31.1712065 C537.195406,31.2420908 537.31062,31.4192988 537.416974,31.702836 L551.561899,66.0992611 L565.281413,31.649673 C565.423218,31.2598095 565.706822,31.0648806 566.132236,31.0648806 L570.173643,31.0648806 C570.918117,31.0648806 571.352386,31.1269034 571.476465,31.2509509 C571.600544,31.3749984 571.662583,31.8091581 571.662583,32.5534431 L571.662583,69.7675043 Z M621.908035,69.7675043 C621.908035,70.2636942 621.659881,70.5117855 621.163566,70.5117855 L618.770627,70.5117855 C618.274311,70.5117855 618.026157,70.2636942 618.026157,69.7675043 L618.026157,34.520472 C615.402775,41.0418258 613.045311,46.8719705 610.953695,52.0110808 C610.067417,54.2084935 609.198877,56.3615712 608.34805,58.4703786 C607.497224,60.5791859 606.735036,62.4575912 606.061465,64.1056507 C605.387894,65.7537102 604.838409,67.0916309 604.412996,68.119453 C603.987583,69.1472751 603.774879,69.6788992 603.774879,69.7143413 C603.597623,70.0687627 603.331744,70.2459708 602.977233,70.2459708 L600.584294,70.2459708 C600.336137,70.2459708 600.158884,70.2016688 600.05253,70.1130634 C599.946177,70.0244581 599.85755,69.891552 599.786648,69.7143413 L585.109959,34.520472 L585.109959,69.7675043 C585.109959,70.2636942 584.861805,70.5117855 584.365489,70.5117855 L581.97255,70.5117855 C581.476235,70.5117855 581.228081,70.2636942 581.228081,69.7675043 L581.228081,32.5534431 C581.228081,31.8091581 581.290119,31.3749984 581.414198,31.2509509 C581.538277,31.1269034 581.972547,31.0648806 582.71702,31.0648806 L586.705251,31.0648806 C586.98886,31.0648806 587.192701,31.1003222 587.31678,31.1712065 C587.440859,31.2420908 587.556073,31.4192988 587.662426,31.702836 L601.807352,66.0992611 L615.526866,31.649673 C615.66867,31.2598095 615.952275,31.0648806 616.377689,31.0648806 L620.419096,31.0648806 C621.163569,31.0648806 621.597839,31.1269034 621.721918,31.2509509 C621.845997,31.3749984 621.908035,31.8091581 621.908035,32.5534431 L621.908035,69.7675043 Z M633.122002,70.5649485 C632.377529,70.5649485 631.943259,70.5029256 631.81918,70.3788781 C631.695101,70.2548307 631.633063,69.820671 631.633063,69.076386 L631.633063,32.4471172 C631.633063,31.7737165 631.695101,31.3749984 631.81918,31.2509509 C631.943259,31.1269034 632.342078,31.0648806 633.015649,31.0648806 L651.467864,31.0648806 C651.96418,31.0648806 652.212334,31.3129719 652.212334,31.8091618 L652.212334,33.6698649 C652.212334,34.1660549 651.96418,34.4141461 651.467864,34.4141461 L635.514941,34.4141461 L635.514941,48.4491635 L650.670218,48.4491635 C651.166534,48.4491635 651.414688,48.6972548 651.414688,49.1934447 L651.414688,51.1073107 C651.414688,51.6035007 651.166534,51.851592 650.670218,51.851592 L635.514941,51.851592 L635.514941,67.16252 L652.105981,67.16252 C652.602297,67.16252 652.850451,67.4106113 652.850451,67.9068012 L652.850451,69.8206672 C652.850451,70.3168572 652.602297,70.5649485 652.105981,70.5649485 L633.122002,70.5649485 Z M680.549105,42.6544025 C680.549105,41.1658327 680.380715,39.8987951 680.043929,38.853252 C679.707144,37.8077089 679.139934,36.9571103 678.342284,36.3014307 C677.544634,35.6457511 676.507704,35.1761498 675.231464,34.8926126 C673.955224,34.6090755 672.359947,34.4673091 670.445587,34.4673091 L664.968417,34.4673091 L664.968417,50.3098666 L670.55194,50.3098666 C672.005436,50.3098666 673.343695,50.1326585 674.566759,49.7782371 C675.789822,49.4238157 676.844477,48.9099124 677.730755,48.2365117 C678.617033,47.5631111 679.30832,46.7568145 679.804635,45.8175977 C680.300951,44.878381 680.549105,43.8239932 680.549105,42.6544025 L680.549105,42.6544025 Z M686.877098,69.7675043 C686.948,69.944715 686.948,70.1130626 686.877098,70.2725523 C686.806196,70.4320419 686.664393,70.5117855 686.451687,70.5117855 L683.686513,70.5117855 C683.154747,70.5117855 682.76479,70.2636942 682.516632,69.7675043 C680.921332,66.4359431 679.591935,63.7157996 678.528401,61.6069923 C677.464868,59.4981849 676.631779,57.8235689 676.02911,56.583094 C675.284637,55.1299663 674.717427,54.0135556 674.327465,53.2338285 C673.512089,53.4110392 672.758764,53.517364 672.067467,53.5528062 C671.376171,53.5882483 670.498769,53.6236899 669.435235,53.6591321 L664.968417,53.6591321 L664.968417,69.7675043 C664.968417,70.2636942 664.720262,70.5117855 664.223947,70.5117855 L661.831008,70.5117855 C661.334693,70.5117855 661.086539,70.2636942 661.086539,69.7675043 L661.086539,32.7660948 C661.086539,32.3762313 661.095401,32.0749776 661.113127,31.8623248 C661.130852,31.6496719 661.192891,31.4901847 661.299244,31.3838583 C661.405598,31.2775319 661.565125,31.2155091 661.777832,31.197788 C661.990539,31.1800669 662.291869,31.1712065 662.681831,31.1712065 L672.732173,31.1712065 C674.752886,31.1712065 676.498828,31.445879 677.970049,31.9952322 C679.441271,32.5445853 680.664316,33.3154403 681.639221,34.3078202 C682.614127,35.3002002 683.340864,36.5052149 683.819454,37.9229005 C684.298044,39.3405861 684.537336,40.9177377 684.537336,42.6544025 C684.537336,43.7176668 684.35122,44.7277526 683.978984,45.6846904 C683.606747,46.6416282 683.101576,47.5276684 682.463456,48.3428376 C681.825336,49.1580068 681.089736,49.8934202 680.256635,50.5490998 C679.423534,51.2047794 678.563857,51.7452639 677.677579,52.1705696 L686.877098,69.7675043 Z" id="BETH-ELLYN-SUMMER" fill="#D72B7D"></path>
                    <path d="M177.409071,127.206522 C177.409071,127.653093 177.185732,127.876375 176.739048,127.876375 L174.537545,127.876375 C174.090861,127.876375 173.867522,127.653093 173.867522,127.206522 L173.867522,112.900373 C171.729819,109.551091 169.600125,106.225782 167.478376,102.924347 C165.356627,99.6229114 163.226933,96.3294999 161.08923,93.0440135 C161.025418,92.8845239 161.025418,92.733011 161.08923,92.5894703 C161.153042,92.4459297 161.280664,92.3741604 161.4721,92.3741604 L164.20005,92.3741604 C164.582922,92.3741604 164.901978,92.5974426 165.157226,93.0440135 L175.590438,109.838188 C177.504798,106.935476 179.30746,104.136475 180.998479,101.441101 C182.689497,98.7457259 184.492159,95.9467248 186.40652,93.0440135 C186.629862,92.5974426 186.948917,92.3741604 187.363695,92.3741604 L189.756634,92.3741604 C189.94807,92.3741604 190.083668,92.4459297 190.163433,92.5894703 C190.243198,92.733011 190.235222,92.8845239 190.139504,93.0440135 L177.409071,112.900373 L177.409071,127.206522 Z M218.226971,110.173114 C218.226971,108.163545 217.971727,106.265647 217.461231,104.479363 C216.950735,102.693079 216.232861,101.082258 215.307586,99.6468512 C214.190876,98.0838529 212.85882,96.8797242 211.311379,96.0344292 C209.763938,95.1891341 208.01711,94.7664929 206.070844,94.7664929 C204.092671,94.7664929 202.329891,95.1891341 200.78245,96.0344292 C199.235008,96.8797242 197.902953,98.0838529 196.786242,99.6468512 C195.860968,101.082258 195.143094,102.693079 194.632598,104.479363 C194.122102,106.265647 193.866857,108.163545 193.866857,110.173114 C193.866857,112.182684 194.122102,114.088556 194.632598,115.890789 C195.143094,117.693022 195.860968,119.311817 196.786242,120.747224 C197.934859,122.278324 199.290844,123.474479 200.854238,124.335723 C202.417632,125.196967 204.156483,125.627582 206.070844,125.627582 C208.01711,125.627582 209.763938,125.204941 211.311379,124.359646 C212.85882,123.514351 214.190876,122.310222 215.307586,120.747224 C216.232861,119.311817 216.950735,117.693022 217.461231,115.890789 C217.971727,114.088556 218.226971,112.182684 218.226971,110.173114 L218.226971,110.173114 Z M221.720662,110.173114 C221.65685,115.850945 220.348723,120.28469 217.796242,123.474483 C215.02042,126.919459 211.111993,128.641921 206.070844,128.641921 C201.029695,128.641921 197.105315,126.919459 194.297586,123.474483 C191.681294,120.188997 190.373167,115.755251 190.373167,110.173114 C190.373167,107.525586 190.692222,105.133278 191.330343,102.996117 C191.968463,100.858956 192.893723,98.9610576 194.106151,97.3023654 C195.541922,95.5479794 197.272796,94.1843636 199.298828,93.2114768 C201.324859,92.23859 203.582175,91.752154 206.070844,91.752154 C208.591418,91.752154 210.848734,92.2306157 212.84286,93.1875535 C214.836985,94.1444913 216.551907,95.5320302 217.987678,97.350212 C219.232012,99.0727001 220.173225,100.994521 220.811345,103.115733 C221.449465,105.236945 221.752568,107.589382 221.720662,110.173114 L221.720662,110.173114 Z M231.765373,115.531939 C231.765373,118.562242 232.547058,120.954551 234.110453,122.708937 C235.865283,124.65471 238.210339,125.627582 241.145692,125.627582 C244.144857,125.627582 246.521818,124.65471 248.276649,122.708937 C249.074299,121.847693 249.656575,120.819 250.023494,119.622828 C250.390413,118.426655 250.57387,117.06304 250.57387,115.531939 L250.57387,93.0440135 C250.57387,92.5974426 250.797208,92.3741604 251.243892,92.3741604 L253.445396,92.3741604 C253.89208,92.3741604 254.115419,92.5974426 254.115419,93.0440135 L254.115419,115.531939 C254.115419,117.860488 253.732552,119.909899 252.966808,121.680234 C252.201064,123.450569 251.100323,124.893928 249.664553,126.010355 C247.335415,127.764741 244.495823,128.641921 241.145692,128.641921 C237.827467,128.641921 235.003828,127.764741 232.67469,126.010355 C229.707431,123.809399 228.223824,120.316628 228.223824,115.531939 L228.223824,93.0440135 C228.223824,92.5974426 228.447163,92.3741604 228.893847,92.3741604 L231.09535,92.3741604 C231.542034,92.3741604 231.765373,92.5974426 231.765373,93.0440135 L231.765373,115.531939 Z M264.447283,127.876375 L262.293638,127.876375 C261.846954,127.876375 261.623615,127.653093 261.623615,127.206522 L261.623615,93.7138666 C261.623615,93.0440102 261.67945,92.6532664 261.791121,92.5416237 C261.902792,92.429981 262.293635,92.3741604 262.963661,92.3741604 L265.165164,92.3741604 C265.579942,92.3741604 265.859116,92.4140322 266.002693,92.493777 C266.14627,92.5735219 266.297821,92.7569322 266.457351,93.0440135 L284.500107,124.000796 L284.500107,93.0440135 C284.500107,92.5974426 284.723446,92.3741604 285.17013,92.3741604 L287.275916,92.3741604 C287.7226,92.3741604 287.945939,92.5974426 287.945939,93.0440135 L287.945939,126.536669 C287.945939,127.206525 287.890104,127.597269 287.778433,127.708912 C287.666762,127.820554 287.275919,127.876375 286.605893,127.876375 L283.686508,127.876375 C283.43126,127.876375 283.247803,127.844477 283.136132,127.780682 C283.024461,127.716886 282.888863,127.557398 282.729333,127.302215 L265.117305,96.8717455 L265.117305,127.206522 C265.117305,127.653093 264.893967,127.876375 264.447283,127.876375 L264.447283,127.876375 Z M322.685776,108.737715 C323.355802,108.737715 323.746644,108.793535 323.858315,108.905178 C323.969986,109.016821 324.025821,109.407565 324.025821,110.077421 L324.025821,125.244809 C324.025821,125.595686 323.922128,125.898712 323.714739,126.153895 C323.50735,126.409079 323.276035,126.600464 323.020787,126.728055 C321.489299,127.302218 319.886046,127.740808 318.210981,128.043838 C316.535915,128.346868 314.789088,128.498381 312.970445,128.498381 C310.322247,128.498381 307.873498,128.091689 305.624124,127.278292 C303.374751,126.464895 301.43649,125.284689 299.809283,123.73764 C298.182077,122.19059 296.913832,120.276743 296.004511,117.996042 C295.09519,115.71534 294.640536,113.107723 294.640536,110.173114 C294.640536,107.493688 295.063285,105.037585 295.908794,102.80473 C296.754303,100.571875 297.966713,98.6420797 299.54606,97.0152855 C301.125408,95.3884912 303.047716,94.1205677 305.313042,93.2114768 C307.578369,92.3023859 310.130811,91.8478473 312.970445,91.8478473 C314.757182,91.8478473 316.312576,91.9275909 317.636675,92.0870805 C318.960775,92.2465702 320.372594,92.5655446 321.872177,93.0440135 C322.350767,93.1716052 322.5422,93.4905797 322.446482,94.0009465 L322.207188,95.7712726 C322.175282,96.1859456 321.93599,96.3294841 321.489306,96.2018924 C320.053536,95.6596277 318.681598,95.3007814 317.373452,95.1253428 C316.065306,94.9499042 314.597652,94.8621862 312.970445,94.8621862 C310.705119,94.8621862 308.655189,95.2369812 306.820593,95.9865825 C304.985998,96.7361838 303.422627,97.7808252 302.130434,99.1205381 C300.838241,100.460251 299.849169,102.071072 299.16319,103.95305 C298.477211,105.835027 298.134227,107.908362 298.134227,110.173114 C298.134227,112.629255 298.50114,114.81423 299.234978,116.728105 C299.968816,118.641981 300.99777,120.244828 302.321869,121.536694 C303.645968,122.82856 305.209339,123.809406 307.012028,124.479263 C308.814718,125.149119 310.800837,125.484042 312.970445,125.484042 C316.512012,125.484042 319.032549,125.053427 320.532131,124.192183 L320.532131,111.752054 L310.912518,111.752054 C310.465834,111.752054 310.242495,111.528772 310.242495,111.082201 L310.242495,109.407568 C310.242495,108.960997 310.465834,108.737715 310.912518,108.737715 L322.685776,108.737715 Z M365.460255,115.340552 C364.120203,112.023168 362.836006,108.745705 361.607624,105.508066 C360.379243,102.270426 359.095046,98.9929636 357.754993,95.6755793 C356.414941,98.9929636 355.098838,102.270426 353.806645,105.508066 C352.514452,108.745705 351.198349,112.023168 349.858296,115.340552 L365.460255,115.340552 Z M373.787681,127.206522 C373.947211,127.653093 373.803637,127.876375 373.356953,127.876375 L371.059732,127.876375 C370.868296,127.876375 370.700791,127.844477 370.557214,127.780682 C370.413637,127.716886 370.278039,127.525501 370.150415,127.206522 L366.608866,118.402738 L348.613968,118.402738 C348.007754,119.901941 347.417502,121.369223 346.843194,122.80463 C346.268886,124.240037 345.694586,125.707319 345.120278,127.206522 C344.992654,127.525501 344.857056,127.716886 344.713479,127.780682 C344.569902,127.844477 344.402398,127.876375 344.210962,127.876375 L341.961599,127.876375 C341.514915,127.876375 341.37134,127.653093 341.53087,127.206522 L355.601349,92.9483202 C355.760879,92.5655451 356.048029,92.3741604 356.462807,92.3741604 L359.382192,92.3741604 C359.79697,92.3741604 360.084119,92.5655451 360.24365,92.9483202 L373.787681,127.206522 Z M401.492279,109.886034 C401.492279,104.814264 400.088436,101.066314 397.280707,98.6420716 C394.792039,96.5049105 391.378147,95.436346 387.03893,95.436346 L381.870183,95.436346 L381.870183,124.862036 L384.789568,124.862036 C395.924764,124.862036 401.492279,119.870085 401.492279,109.886034 L401.492279,109.886034 Z M404.985969,110.077421 C404.985969,113.043928 404.475481,115.691416 403.454489,118.019965 C402.433496,120.348514 401.0137,122.278309 399.195058,123.80941 C397.472134,125.117225 395.382322,126.121994 392.925559,126.823749 C390.468797,127.525503 387.693016,127.876375 384.598133,127.876375 L379.66868,127.876375 C378.998654,127.876375 378.607811,127.820554 378.49614,127.708912 C378.384469,127.597269 378.328634,127.206525 378.328634,126.536669 L378.328634,93.8095599 C378.328634,93.1397035 378.384469,92.7489597 378.49614,92.637317 C378.607811,92.5256743 378.998654,92.4698537 379.66868,92.4698537 L387.182507,92.4698537 C393.244648,92.4698537 397.807138,94.1125723 400.870115,97.3980587 C403.614032,100.428362 404.985969,104.654774 404.985969,110.077421 L404.985969,110.077421 Z M415.557127,115.531939 C415.557127,118.562242 416.338813,120.954551 417.902207,122.708937 C419.657037,124.65471 422.002093,125.627582 424.937446,125.627582 C427.936611,125.627582 430.313572,124.65471 432.068403,122.708937 C432.866053,121.847693 433.448329,120.819 433.815248,119.622828 C434.182167,118.426655 434.365624,117.06304 434.365624,115.531939 L434.365624,93.0440135 C434.365624,92.5974426 434.588962,92.3741604 435.035647,92.3741604 L437.23715,92.3741604 C437.683834,92.3741604 437.907173,92.5974426 437.907173,93.0440135 L437.907173,115.531939 C437.907173,117.860488 437.524306,119.909899 436.758562,121.680234 C435.992818,123.450569 434.892077,124.893928 433.456307,126.010355 C431.127169,127.764741 428.287577,128.641921 424.937446,128.641921 C421.619221,128.641921 418.795582,127.764741 416.466444,126.010355 C413.499185,123.809399 412.015578,120.316628 412.015578,115.531939 L412.015578,93.0440135 C412.015578,92.5974426 412.238917,92.3741604 412.685601,92.3741604 L414.887104,92.3741604 C415.333788,92.3741604 415.557127,92.5974426 415.557127,93.0440135 L415.557127,115.531939 Z M462.835962,124.862036 C463.282646,124.862036 463.505984,125.085318 463.505984,125.531889 L463.505984,127.206522 C463.505984,127.653093 463.282646,127.876375 462.835962,127.876375 L447.32972,127.876375 C446.883036,127.876375 446.540052,127.8684 446.300757,127.852451 C446.061462,127.836503 445.885981,127.772708 445.77431,127.661065 C445.662639,127.549422 445.598828,127.366012 445.582875,127.110828 C445.566922,126.855645 445.558946,126.504773 445.558946,126.058202 L445.558946,93.1397068 C445.558946,92.6931359 445.782284,92.4698537 446.228968,92.4698537 L448.430472,92.4698537 C448.877156,92.4698537 449.100495,92.6931359 449.100495,93.1397068 L449.100495,124.862036 L462.835962,124.862036 Z M476.374363,95.436346 L476.374363,127.206522 C476.374363,127.653093 476.151025,127.876375 475.704341,127.876375 L473.502837,127.876375 C473.056153,127.876375 472.832814,127.653093 472.832814,127.206522 L472.832814,95.436346 L462.973908,95.436346 C462.527224,95.436346 462.303885,95.2130639 462.303885,94.7664929 L462.303885,93.1397068 C462.303885,92.6931359 462.527224,92.4698537 462.973908,92.4698537 L486.328987,92.4698537 C486.775672,92.4698537 486.99901,92.6931359 486.99901,93.1397068 L486.99901,94.7664929 C486.99901,95.2130639 486.775672,95.436346 486.328987,95.436346 L476.374363,95.436346 Z M523.839003,115.340552 C522.49895,112.023168 521.214753,108.745705 519.986372,105.508066 C518.75799,102.270426 517.473793,98.9929636 516.133741,95.6755793 C514.793688,98.9929636 513.477585,102.270426 512.185392,105.508066 C510.893199,108.745705 509.577096,112.023168 508.237044,115.340552 L523.839003,115.340552 Z M532.166429,127.206522 C532.325959,127.653093 532.182384,127.876375 531.7357,127.876375 L529.438479,127.876375 C529.247043,127.876375 529.079539,127.844477 528.935962,127.780682 C528.792385,127.716886 528.656786,127.525501 528.529162,127.206522 L524.987613,118.402738 L506.992716,118.402738 C506.386501,119.901941 505.796249,121.369223 505.221941,122.80463 C504.647633,124.240037 504.073333,125.707319 503.499025,127.206522 C503.371401,127.525501 503.235803,127.716886 503.092226,127.780682 C502.948649,127.844477 502.781145,127.876375 502.589709,127.876375 L500.340347,127.876375 C499.893662,127.876375 499.750088,127.653093 499.909618,127.206522 L513.980096,92.9483202 C514.139626,92.5655451 514.426776,92.3741604 514.841554,92.3741604 L517.760939,92.3741604 C518.175717,92.3741604 518.462867,92.5655451 518.622397,92.9483202 L532.166429,127.206522 Z M540.296789,115.531939 C540.296789,118.562242 541.078475,120.954551 542.641869,122.708937 C544.396699,124.65471 546.741756,125.627582 549.677108,125.627582 C552.676273,125.627582 555.053235,124.65471 556.808065,122.708937 C557.605715,121.847693 558.187991,120.819 558.55491,119.622828 C558.921829,118.426655 559.105286,117.06304 559.105286,115.531939 L559.105286,93.0440135 C559.105286,92.5974426 559.328625,92.3741604 559.775309,92.3741604 L561.976812,92.3741604 C562.423496,92.3741604 562.646835,92.5974426 562.646835,93.0440135 L562.646835,115.531939 C562.646835,117.860488 562.263969,119.909899 561.498224,121.680234 C560.73248,123.450569 559.63174,124.893928 558.195969,126.010355 C555.866831,127.764741 553.027239,128.641921 549.677108,128.641921 C546.358884,128.641921 543.535244,127.764741 541.206106,126.010355 C538.238847,123.809399 536.75524,120.316628 536.75524,115.531939 L536.75524,93.0440135 C536.75524,92.5974426 536.978579,92.3741604 537.425263,92.3741604 L539.626766,92.3741604 C540.073451,92.3741604 540.296789,92.5974426 540.296789,93.0440135 L540.296789,115.531939 Z M580.827537,95.436346 L580.827537,127.206522 C580.827537,127.653093 580.604199,127.876375 580.157514,127.876375 L577.956011,127.876375 C577.509327,127.876375 577.285988,127.653093 577.285988,127.206522 L577.285988,95.436346 L567.427082,95.436346 C566.980397,95.436346 566.757059,95.2130639 566.757059,94.7664929 L566.757059,93.1397068 C566.757059,92.6931359 566.980397,92.4698537 567.427082,92.4698537 L590.782161,92.4698537 C591.228845,92.4698537 591.452184,92.6931359 591.452184,93.1397068 L591.452184,94.7664929 C591.452184,95.2130639 591.228845,95.436346 590.782161,95.436346 L580.827537,95.436346 Z M620.78398,127.206522 C620.78398,127.653093 620.560641,127.876375 620.113957,127.876375 L617.960312,127.876375 C617.513628,127.876375 617.29029,127.653093 617.29029,127.206522 L617.29029,111.082201 L599.151816,111.082201 L599.151816,127.206522 C599.151816,127.653093 598.928477,127.876375 598.481793,127.876375 L596.328148,127.876375 C595.881464,127.876375 595.658126,127.653093 595.658126,127.206522 L595.658126,93.0440135 C595.658126,92.5974426 595.881464,92.3741604 596.328148,92.3741604 L598.481793,92.3741604 C598.928477,92.3741604 599.151816,92.5974426 599.151816,93.0440135 L599.151816,108.067862 L617.29029,108.067862 L617.29029,93.0440135 C617.29029,92.5974426 617.513628,92.3741604 617.960312,92.3741604 L620.113957,92.3741604 C620.560641,92.3741604 620.78398,92.5974426 620.78398,93.0440135 L620.78398,127.206522 Z M655.475958,110.173114 C655.475958,108.163545 655.220714,106.265647 654.710218,104.479363 C654.199722,102.693079 653.481847,101.082258 652.556573,99.6468512 C651.439863,98.0838529 650.107807,96.8797242 648.560366,96.0344292 C647.012924,95.1891341 645.266097,94.7664929 643.31983,94.7664929 C641.341658,94.7664929 639.578878,95.1891341 638.031436,96.0344292 C636.483995,96.8797242 635.151939,98.0838529 634.035229,99.6468512 C633.109955,101.082258 632.39208,102.693079 631.881584,104.479363 C631.371088,106.265647 631.115844,108.163545 631.115844,110.173114 C631.115844,112.182684 631.371088,114.088556 631.881584,115.890789 C632.39208,117.693022 633.109955,119.311817 634.035229,120.747224 C635.183845,122.278324 636.53983,123.474479 638.103224,124.335723 C639.666619,125.196967 641.40547,125.627582 643.31983,125.627582 C645.266097,125.627582 647.012924,125.204941 648.560366,124.359646 C650.107807,123.514351 651.439863,122.310222 652.556573,120.747224 C653.481847,119.311817 654.199722,117.693022 654.710218,115.890789 C655.220714,114.088556 655.475958,112.182684 655.475958,110.173114 L655.475958,110.173114 Z M658.969648,110.173114 C658.905836,115.850945 657.59771,120.28469 655.045229,123.474483 C652.269406,126.919459 648.360979,128.641921 643.31983,128.641921 C638.278681,128.641921 634.354301,126.919459 631.546573,123.474483 C628.93028,120.188997 627.622154,115.755251 627.622154,110.173114 C627.622154,107.525586 627.941209,105.133278 628.579329,102.996117 C629.217449,100.858956 630.14271,98.9610576 631.355138,97.3023654 C632.790908,95.5479794 634.521783,94.1843636 636.547814,93.2114768 C638.573846,92.23859 640.831162,91.752154 643.31983,91.752154 C645.840405,91.752154 648.097721,92.2306157 650.091846,93.1875535 C652.085972,94.1444913 653.800894,95.5320302 655.236664,97.350212 C656.480998,99.0727001 657.422211,100.994521 658.060332,103.115733 C658.698452,105.236945 659.001554,107.589382 658.969648,110.173114 L658.969648,110.173114 Z M683.324132,102.80473 C683.324132,101.465017 683.172581,100.324683 682.869474,99.3836947 C682.566366,98.4427058 682.055878,97.6771671 681.337993,97.0870555 C680.620108,96.4969438 679.686871,96.0743026 678.538255,95.8191192 C677.389639,95.5639358 675.95389,95.436346 674.230966,95.436346 L669.301512,95.436346 L669.301512,109.694648 L674.326683,109.694648 C675.634829,109.694648 676.839263,109.535161 677.94002,109.216181 C679.040777,108.897202 679.989967,108.434689 680.787617,107.828628 C681.585267,107.222568 682.207425,106.496901 682.654109,105.651606 C683.100793,104.806311 683.324132,103.857362 683.324132,102.80473 L683.324132,102.80473 Z M689.019325,127.206522 C689.083137,127.366011 689.083137,127.517524 689.019325,127.661065 C688.955513,127.804606 688.827891,127.876375 688.636455,127.876375 L686.147799,127.876375 C685.669209,127.876375 685.318248,127.653093 685.094906,127.206522 C683.659136,124.208117 682.462679,121.759988 681.505499,119.862061 C680.548318,117.964134 679.798538,116.45698 679.256136,115.340552 C678.58611,114.032738 678.075622,113.027968 677.724656,112.326214 C676.990818,112.485703 676.312825,112.581396 675.690658,112.613293 C675.068491,112.645191 674.278829,112.677089 673.321649,112.708987 L669.301512,112.708987 L669.301512,127.206522 C669.301512,127.653093 669.078174,127.876375 668.631489,127.876375 L666.477845,127.876375 C666.031161,127.876375 665.807822,127.653093 665.807822,127.206522 L665.807822,93.9052532 C665.807822,93.554376 665.815798,93.2832477 665.831751,93.0918602 C665.847704,92.9004726 665.903539,92.7569341 665.999257,92.6612403 C666.094975,92.5655465 666.23855,92.509726 666.429986,92.493777 C666.621422,92.4778281 666.892619,92.4698537 667.243585,92.4698537 L676.288893,92.4698537 C678.107535,92.4698537 679.678882,92.7170589 681.002981,93.2114768 C682.327081,93.7058947 683.427821,94.3996641 684.305237,95.2928061 C685.182652,96.185948 685.836715,97.2704612 686.267446,98.5463783 C686.698177,99.8222953 686.91354,101.241732 686.91354,102.80473 C686.91354,103.761668 686.746036,104.670745 686.411023,105.531989 C686.076009,106.393233 685.621356,107.190669 685.047048,107.924322 C684.472739,108.657974 683.8107,109.319846 683.060909,109.909958 C682.311117,110.500069 681.537408,110.986505 680.739758,111.369281 L689.019325,127.206522 Z" id="YOUNG-ADULT-AUTHOR" fill="#CE76A7"></path>
                    <path d="M167.062559,81.516515 L689.520799,81.516515" id="Line" stroke="#EFD5E7" stroke-width="2" stroke-linecap="square"></path>
                </g>
            </g>
        </g>
    </g>
</svg>