<?xml version="1.0" encoding="UTF-8"?>
<svg width="785px" height="156px" viewBox="0 0 785 156" version="1.1" xmlns="http://www.w3.org/2000/svg" xmlns:xlink="http://www.w3.org/1999/xlink">
    <!-- Generator: Sketch 41.1 (35376) - http://www.bohemiancoding.com/sketch -->
    <title>buy-title</title>
    <desc>Created with Sketch.</desc>
    <defs></defs>
    <g id="Page-1" stroke="none" stroke-width="1" fill="none" fill-rule="evenodd">
        <g id="Desktop-HD" transform="translate(-318.000000, -2078.000000)" fill="#C47878">
            <g id="Group-8" transform="translate(0.000000, 756.000000)">
                <g id="Book" transform="translate(0.000000, 927.000000)">
                    <g id="Preorder-Popup" transform="translate(161.000000, 324.000000)">
                        <path d="M162.904,189.106 C164.344,189.106 165.64,188.962 167.08,188.962 C171.4,188.674 175.432,188.386 179.32,186.658 C187.384,182.914 193.288,174.418 193.288,165.634 C193.288,155.842 191.848,151.378 185.944,143.602 C182.776,139.282 178.744,137.122 173.992,134.962 C174.712,134.386 175.576,133.954 176.296,133.378 C178.6,131.65 180.904,129.634 182.92,127.618 C188.392,122.29 190.408,112.354 190.408,105.01 C190.408,100.69 189.256,96.226 187.816,92.338 C185.656,86.29 182.344,81.394 175.72,80.242 C173.56,79.81 171.4,79.666 169.24,79.666 C167.08,79.666 161.752,79.81 159.736,80.386 C158.584,80.818 158.728,84.13 158.584,85.138 L158.584,87.874 C158.584,93.922 158.584,99.97 158.44,106.018 C157.864,121.57 157.144,137.122 157.144,152.674 C157.144,158.722 157.432,164.626 157.432,170.53 C157.432,173.986 157.432,177.586 157.288,181.042 C157.288,183.346 157.432,187.09 159.592,188.386 C160.6,189.106 161.752,189.106 162.904,189.106 Z M169.384,184.21 C169.24,184.21 168.808,184.21 168.664,184.066 C168.232,183.49 168.232,179.314 168.232,178.45 L168.232,174.274 C168.664,163.474 168.664,152.386 168.664,141.442 L168.664,138.706 C168.952,138.562 169.24,138.562 169.528,138.562 C170.392,138.562 171.256,138.706 171.976,138.994 C177.16,141.01 181.48,144.034 184.072,149.074 C186.52,153.682 187.96,158.146 187.96,163.33 C187.96,171.826 186.376,174.85 180.04,180.178 C178.168,181.618 176.008,182.338 173.992,183.202 C172.552,183.634 170.968,184.21 169.384,184.21 Z M171.976,83.842 C183.208,83.842 185.944,96.514 185.944,105.586 C185.944,112.498 184.072,119.554 179.32,124.738 C176.584,127.762 172.408,130.066 168.952,132.514 C168.952,131.65 168.808,130.786 168.808,129.922 C168.808,116.962 169.384,104.002 169.384,91.042 C169.384,89.314 169.24,87.73 169.24,86.002 C169.24,85.426 169.24,84.706 169.384,83.986 C170.248,83.986 171.112,83.842 171.976,83.842 Z M234.74306,148.498 C234.74306,141.154 235.03106,133.954 235.31906,126.61 C235.46306,122.722 235.75106,118.834 235.75106,115.09 C235.75106,111.778 234.59906,111.202 231.57506,110.914 C230.42306,110.77 229.27106,110.194 227.83106,110.194 C225.95906,110.194 224.95106,111.058 224.95106,113.074 C224.95106,114.226 225.23906,115.378 225.23906,116.386 L225.23906,127.186 C225.23906,135.25 224.66306,143.026 224.23106,151.09 C223.94306,157.426 223.65506,184.21 214.72706,184.21 C214.00706,184.21 213.28706,183.922 212.71106,183.49 C204.93506,177.73 204.93506,157.138 204.93506,148.498 C204.93506,138.994 205.07906,129.634 205.65506,120.274 C205.79906,117.682 206.08706,115.09 206.08706,112.642 C206.08706,110.914 205.07906,109.618 203.35106,109.618 C201.19106,109.618 201.33506,114.946 201.33506,116.53 C200.90306,125.89 200.32706,135.394 200.32706,144.754 C200.32706,155.554 201.04706,174.994 206.51906,184.354 C208.39106,187.522 211.41506,189.106 215.01506,189.106 C218.47106,189.106 221.06306,187.09 223.07906,184.354 C225.95906,180.466 226.24706,175.426 227.11106,170.818 C227.83106,173.266 228.40706,180.178 228.69506,183.058 C228.98306,185.506 229.99106,188.53 233.01506,188.53 C235.46306,188.53 236.47106,186.082 236.47106,183.922 C236.47106,182.914 236.32706,181.762 236.18306,180.754 C235.89506,176.866 235.17506,173.122 235.03106,169.234 C234.88706,162.322 234.74306,155.41 234.74306,148.498 Z M272.454119,110.77 C272.454119,110.914 270.294119,123.442 270.294119,123.73 C268.854119,131.218 268.134119,138.85 266.838119,146.482 C265.542119,153.826 264.534119,161.314 263.382119,168.802 C262.662119,172.69 262.230119,176.578 261.510119,180.466 C260.214119,174.418 258.918119,168.37 257.478119,162.322 C254.598119,149.65 252.150119,136.834 250.134119,124.018 C249.702119,120.85 249.414119,117.682 248.982119,114.514 C248.838119,113.362 247.974119,111.49 246.534119,111.49 C245.382119,111.49 244.662119,112.93 244.662119,113.938 C244.662119,117.538 246.102119,124.306 246.822119,128.05 C249.414119,144.034 252.726119,159.586 256.182119,175.426 C257.478119,180.898 259.206119,187.522 259.206119,193.282 C259.206119,194.866 256.326119,210.274 255.318119,213.874 C254.598119,216.466 253.302119,221.65 253.302119,223.954 C253.302119,226.834 257.478119,226.546 259.494119,226.546 C260.934119,226.546 261.510119,225.682 261.654119,224.386 L277.350119,135.394 C277.926119,132.082 278.502119,128.626 279.222119,125.314 C279.798119,121.714 281.094119,117.97 281.094119,114.37 C281.094119,113.65 280.950119,112.786 280.374119,112.21 C279.654119,111.634 273.462119,110.914 272.454119,110.77 Z M325.412238,79.954 C324.260238,79.954 323.108238,80.098 321.812238,80.098 C319.796238,80.098 319.508238,80.818 319.220238,82.69 C318.356238,88.594 317.924238,94.498 317.204238,100.402 L311.012238,158.434 L309.140238,174.994 L307.988238,185.506 C307.844238,186.082 307.700238,187.09 307.700238,187.666 C307.700238,189.394 311.300238,189.394 312.452238,189.394 C314.180238,189.394 316.196238,189.394 317.924238,189.25 C318.788238,189.106 318.932238,188.53 318.932238,187.81 C318.932238,182.05 319.508238,176.146 319.940238,170.53 C320.660238,163.186 321.236238,155.842 321.956238,148.498 C322.100238,147.346 322.100238,146.194 322.388238,145.042 C326.564238,145.042 330.596238,145.042 334.772238,144.898 C335.924238,153.106 337.220238,161.17 338.084238,169.234 C338.660238,174.994 339.236238,181.762 340.676238,187.234 C340.964238,188.674 341.252238,189.106 342.692238,189.106 C343.412238,189.106 344.708238,189.106 344.708238,188.242 C344.708238,186.082 344.132238,183.634 343.700238,181.33 L341.972238,169.234 L338.084238,139.426 C337.364238,133.234 336.932238,127.042 335.924238,120.85 C334.484238,110.338 333.332238,99.682 331.604238,89.17 C331.316238,86.866 331.028238,84.13 330.308238,81.682 C330.164238,81.25 329.876238,80.674 329.300238,80.386 C328.580238,80.098 326.420238,79.954 325.412238,79.954 Z M327.572238,90.754 C329.588238,107.602 332.468238,124.45 334.340238,141.298 L332.612238,141.298 C329.300238,141.442 325.988238,141.154 322.676238,141.298 C324.404238,124.45 325.556238,107.602 327.572238,90.754 Z M375.795298,113.506 C372.483298,113.506 369.027298,113.65 365.715298,113.65 L365.715298,111.49 C365.859298,108.61 366.003298,105.73 366.291298,102.85 C366.579298,100.402 367.011298,97.954 367.011298,95.506 C367.011298,92.914 365.139298,92.482 362.979298,92.482 C362.115298,92.482 358.803298,92.77 358.515298,93.922 C357.651298,100.402 357.651298,107.17 357.219298,113.794 L351.459298,113.794 C350.451298,113.794 348.723298,114.082 348.723298,115.522 C348.723298,117.106 350.595298,117.97 351.891298,117.97 C353.619298,117.97 355.347298,117.538 357.075298,117.394 C356.643298,123.442 356.355298,129.634 356.355298,135.682 C356.355298,141.442 356.067298,147.346 356.067298,153.106 C356.067298,157.138 356.355298,161.17 356.355298,165.202 C356.355298,173.122 357.075298,189.394 368.163298,189.394 C373.779298,189.394 374.211298,186.658 375.795298,182.194 L375.795298,181.906 C375.795298,180.898 374.787298,179.602 373.779298,179.602 C370.611298,179.602 372.771298,185.65 369.027298,185.65 C363.699298,185.65 363.987298,169.522 363.987298,165.922 C363.987298,162.754 364.275298,159.73 364.419298,156.706 C364.707298,147.634 365.283298,138.418 365.715298,129.346 C365.859298,125.89 365.571298,122.434 365.571298,118.978 L365.715298,117.538 L371.907298,117.538 C373.635298,117.538 378.819298,118.114 378.819298,115.522 C378.819298,113.794 377.091298,113.506 375.795298,113.506 Z M411.041417,85.714 C412.337417,84.994 414.209417,84.994 415.649417,84.994 C422.129417,84.994 428.753417,84.994 435.233417,84.562 C436.385417,84.562 437.105417,84.13 437.105417,82.834 C437.105417,81.106 436.385417,80.098 434.513417,80.098 C431.921417,80.098 429.473417,80.818 426.881417,80.962 C422.849417,81.106 418.673417,80.962 414.641417,80.962 C412.913417,80.962 411.185417,80.818 409.457417,80.818 C406.433417,80.818 402.257417,81.826 402.257417,85.426 C402.257417,90.466 402.113417,95.506 402.113417,100.546 C401.969417,117.106 401.969417,133.522 401.969417,150.082 C401.969417,158.578 401.969417,167.074 402.113417,175.57 C402.113417,179.17 401.969417,182.77 402.257417,186.37 C402.401417,188.386 403.265417,189.538 405.281417,189.538 C406.433417,189.538 409.889417,189.538 410.753417,189.25 C411.761417,188.818 411.905417,187.522 411.905417,186.658 C411.905417,170.098 411.329417,153.538 411.041417,136.978 C411.329417,136.834 411.761417,136.69 412.193417,136.69 L415.649417,136.69 C419.105417,136.69 426.881417,136.834 429.905417,136.258 C430.913417,135.97 431.489417,135.394 431.489417,134.386 C431.489417,132.802 430.481417,132.37 429.041417,132.37 C426.593417,132.37 424.001417,132.658 421.553417,132.658 C420.401417,132.658 411.473417,132.802 411.041417,132.226 C410.897417,127.762 410.897417,123.298 410.897417,118.834 C410.897417,107.746 410.897417,96.802 411.041417,85.714 Z M443.856476,110.914 C443.136476,110.914 440.400476,111.058 440.400476,112.21 C440.400476,129.058 440.544476,146.05 440.400476,162.898 C440.400476,167.794 439.968476,172.69 439.968476,177.586 C439.968476,180.322 439.824476,182.914 439.824476,185.65 C439.824476,188.674 440.832476,189.394 443.856476,189.394 C445.584476,189.394 448.608476,189.106 448.608476,186.946 C448.608476,170.818 449.184476,154.546 449.184476,138.418 C449.184476,131.074 448.896476,123.874 448.896476,116.53 C448.896476,111.346 449.904476,110.914 443.856476,110.914 Z M444.720476,83.698 C441.696476,83.698 440.112476,87.01 440.112476,89.746 C440.112476,92.626 442.272476,96.37 445.440476,96.37 C448.608476,96.37 449.904476,92.626 449.904476,90.034 C449.904476,87.01 448.032476,83.698 444.720476,83.698 Z M458.671536,110.05 C457.951536,113.65 458.239536,117.106 458.095536,120.85 C457.951536,128.77 458.095536,136.834 458.095536,144.754 C458.095536,149.506 458.239536,154.258 458.239536,159.01 C458.239536,167.65 457.663536,176.434 457.663536,185.074 C457.663536,187.81 459.823536,189.25 462.415536,189.25 C465.151536,189.25 466.735536,188.242 466.735536,185.506 C466.735536,167.794 464.575536,126.178 477.679536,115.666 C478.543536,114.946 479.551536,114.37 480.847536,114.37 C487.759536,114.37 484.447536,125.602 487.759536,125.602 C489.199536,125.602 489.775536,124.594 489.775536,123.154 C489.775536,117.682 486.751536,109.762 480.127536,109.762 C478.831536,109.762 477.535536,110.194 476.383536,110.914 C469.903536,114.946 468.607536,120.706 466.015536,127.33 C466.303536,122.578 466.735536,117.826 467.023536,113.218 L467.023536,112.498 C467.023536,110.77 466.303536,108.61 464.143536,108.61 C463.135536,108.61 459.967536,109.618 458.671536,110.05 Z M499.694596,126.754 C499.694596,122.434 500.846596,114.802 506.606596,114.802 C511.790596,114.802 513.806596,123.586 513.806596,127.618 C513.806596,129.346 513.374596,131.074 513.374596,132.802 C513.374596,133.954 514.094596,134.386 515.246596,134.386 C517.406596,134.386 517.694596,130.498 517.694596,129.058 C517.694596,121.714 515.534596,109.906 506.030596,109.906 C495.950596,109.906 491.198596,122.722 491.198596,131.218 C491.198596,151.522 512.510596,149.794 512.510596,170.386 C512.510596,174.706 509.918596,184.786 504.590596,184.786 C501.134596,184.786 498.542596,180.466 497.966596,177.442 C497.102596,173.41 497.390596,169.234 497.390596,165.202 C497.390596,163.762 497.246596,160.45 495.086596,160.45 C493.358596,160.45 492.638596,162.898 492.638596,164.338 C492.638596,166.354 492.782596,168.514 492.926596,170.53 C493.358596,179.89 494.798596,189.106 506.462596,189.106 C517.262596,189.106 519.710596,180.322 519.710596,170.962 C519.710596,169.522 519.566596,168.082 519.422596,166.642 C518.702596,162.178 517.550596,157.57 515.246596,153.682 C513.518596,150.802 511.070596,148.498 508.766596,146.194 C502.574596,140.29 499.694596,135.682 499.694596,126.754 Z M551.661655,113.506 C548.349655,113.506 544.893655,113.65 541.581655,113.65 L541.581655,111.49 C541.725655,108.61 541.869655,105.73 542.157655,102.85 C542.445655,100.402 542.877655,97.954 542.877655,95.506 C542.877655,92.914 541.005655,92.482 538.845655,92.482 C537.981655,92.482 534.669655,92.77 534.381655,93.922 C533.517655,100.402 533.517655,107.17 533.085655,113.794 L527.325655,113.794 C526.317655,113.794 524.589655,114.082 524.589655,115.522 C524.589655,117.106 526.461655,117.97 527.757655,117.97 C529.485655,117.97 531.213655,117.538 532.941655,117.394 C532.509655,123.442 532.221655,129.634 532.221655,135.682 C532.221655,141.442 531.933655,147.346 531.933655,153.106 C531.933655,157.138 532.221655,161.17 532.221655,165.202 C532.221655,173.122 532.941655,189.394 544.029655,189.394 C549.645655,189.394 550.077655,186.658 551.661655,182.194 L551.661655,181.906 C551.661655,180.898 550.653655,179.602 549.645655,179.602 C546.477655,179.602 548.637655,185.65 544.893655,185.65 C539.565655,185.65 539.853655,169.522 539.853655,165.922 C539.853655,162.754 540.141655,159.73 540.285655,156.706 C540.573655,147.634 541.149655,138.418 541.581655,129.346 C541.725655,125.89 541.437655,122.434 541.437655,118.978 L541.581655,117.538 L547.773655,117.538 C549.501655,117.538 554.685655,118.114 554.685655,115.522 C554.685655,113.794 552.957655,113.506 551.661655,113.506 Z M583.163774,189.106 C584.603774,189.106 585.899774,188.962 587.339774,188.962 C591.659774,188.674 595.691774,188.386 599.579774,186.658 C607.643774,182.914 613.547774,174.418 613.547774,165.634 C613.547774,155.842 612.107774,151.378 606.203774,143.602 C603.035774,139.282 599.003774,137.122 594.251774,134.962 C594.971774,134.386 595.835774,133.954 596.555774,133.378 C598.859774,131.65 601.163774,129.634 603.179774,127.618 C608.651774,122.29 610.667774,112.354 610.667774,105.01 C610.667774,100.69 609.515774,96.226 608.075774,92.338 C605.915774,86.29 602.603774,81.394 595.979774,80.242 C593.819774,79.81 591.659774,79.666 589.499774,79.666 C587.339774,79.666 582.011774,79.81 579.995774,80.386 C578.843774,80.818 578.987774,84.13 578.843774,85.138 L578.843774,87.874 C578.843774,93.922 578.843774,99.97 578.699774,106.018 C578.123774,121.57 577.403774,137.122 577.403774,152.674 C577.403774,158.722 577.691774,164.626 577.691774,170.53 C577.691774,173.986 577.691774,177.586 577.547774,181.042 C577.547774,183.346 577.691774,187.09 579.851774,188.386 C580.859774,189.106 582.011774,189.106 583.163774,189.106 Z M589.643774,184.21 C589.499774,184.21 589.067774,184.21 588.923774,184.066 C588.491774,183.49 588.491774,179.314 588.491774,178.45 L588.491774,174.274 C588.923774,163.474 588.923774,152.386 588.923774,141.442 L588.923774,138.706 C589.211774,138.562 589.499774,138.562 589.787774,138.562 C590.651774,138.562 591.515774,138.706 592.235774,138.994 C597.419774,141.01 601.739774,144.034 604.331774,149.074 C606.779774,153.682 608.219774,158.146 608.219774,163.33 C608.219774,171.826 606.635774,174.85 600.299774,180.178 C598.427774,181.618 596.267774,182.338 594.251774,183.202 C592.811774,183.634 591.227774,184.21 589.643774,184.21 Z M592.235774,83.842 C603.467774,83.842 606.203774,96.514 606.203774,105.586 C606.203774,112.498 604.331774,119.554 599.579774,124.738 C596.843774,127.762 592.667774,130.066 589.211774,132.514 C589.211774,131.65 589.067774,130.786 589.067774,129.922 C589.067774,116.962 589.643774,104.002 589.643774,91.042 C589.643774,89.314 589.499774,87.73 589.499774,86.002 C589.499774,85.426 589.499774,84.706 589.643774,83.986 C590.507774,83.986 591.371774,83.842 592.235774,83.842 Z M628.218834,186.514 C628.218834,173.266 627.786834,160.018 627.786834,146.914 L627.786834,134.386 C627.786834,114.802 628.074834,95.218 628.074834,75.634 C628.074834,73.186 627.066834,73.186 625.050834,73.186 L622.602834,73.186 C621.018834,73.186 621.018834,75.202 621.018834,76.21 C621.018834,93.49 621.450834,110.626 621.450834,127.906 L621.450834,145.762 C621.450834,155.698 621.018834,165.778 621.018834,175.858 L621.018834,187.954 C621.018834,189.538 623.466834,189.538 624.618834,189.538 C627.642834,189.538 628.218834,189.97 628.218834,186.514 Z M671.257893,148.498 C671.257893,141.154 671.545893,133.954 671.833893,126.61 C671.977893,122.722 672.265893,118.834 672.265893,115.09 C672.265893,111.778 671.113893,111.202 668.089893,110.914 C666.937893,110.77 665.785893,110.194 664.345893,110.194 C662.473893,110.194 661.465893,111.058 661.465893,113.074 C661.465893,114.226 661.753893,115.378 661.753893,116.386 L661.753893,127.186 C661.753893,135.25 661.177893,143.026 660.745893,151.09 C660.457893,157.426 660.169893,184.21 651.241893,184.21 C650.521893,184.21 649.801893,183.922 649.225893,183.49 C641.449893,177.73 641.449893,157.138 641.449893,148.498 C641.449893,138.994 641.593893,129.634 642.169893,120.274 C642.313893,117.682 642.601893,115.09 642.601893,112.642 C642.601893,110.914 641.593893,109.618 639.865893,109.618 C637.705893,109.618 637.849893,114.946 637.849893,116.53 C637.417893,125.89 636.841893,135.394 636.841893,144.754 C636.841893,155.554 637.561893,174.994 643.033893,184.354 C644.905893,187.522 647.929893,189.106 651.529893,189.106 C654.985893,189.106 657.577893,187.09 659.593893,184.354 C662.473893,180.466 662.761893,175.426 663.625893,170.818 C664.345893,173.266 664.921893,180.178 665.209893,183.058 C665.497893,185.506 666.505893,188.53 669.529893,188.53 C671.977893,188.53 672.985893,186.082 672.985893,183.922 C672.985893,182.914 672.841893,181.762 672.697893,180.754 C672.409893,176.866 671.689893,173.122 671.545893,169.234 C671.401893,162.322 671.257893,155.41 671.257893,148.498 Z M688.808953,126.754 C688.808953,122.434 689.960953,114.802 695.720953,114.802 C700.904953,114.802 702.920953,123.586 702.920953,127.618 C702.920953,129.346 702.488953,131.074 702.488953,132.802 C702.488953,133.954 703.208953,134.386 704.360953,134.386 C706.520953,134.386 706.808953,130.498 706.808953,129.058 C706.808953,121.714 704.648953,109.906 695.144953,109.906 C685.064953,109.906 680.312953,122.722 680.312953,131.218 C680.312953,151.522 701.624953,149.794 701.624953,170.386 C701.624953,174.706 699.032953,184.786 693.704953,184.786 C690.248953,184.786 687.656953,180.466 687.080953,177.442 C686.216953,173.41 686.504953,169.234 686.504953,165.202 C686.504953,163.762 686.360953,160.45 684.200953,160.45 C682.472953,160.45 681.752953,162.898 681.752953,164.338 C681.752953,166.354 681.896953,168.514 682.040953,170.53 C682.472953,179.89 683.912953,189.106 695.576953,189.106 C706.376953,189.106 708.824953,180.322 708.824953,170.962 C708.824953,169.522 708.680953,168.082 708.536953,166.642 C707.816953,162.178 706.664953,157.57 704.360953,153.682 C702.632953,150.802 700.184953,148.498 697.880953,146.194 C691.688953,140.29 688.808953,135.682 688.808953,126.754 Z M735.880012,110.338 C730.840012,110.338 726.952012,113.65 724.360012,117.682 L724.360012,114.514 C724.360012,102.85 724.072012,91.186 724.072012,79.378 C724.072012,76.354 725.224012,71.746 720.904012,71.746 C720.184012,71.746 717.448012,71.89 716.728012,72.178 C715.720012,72.754 715.144012,73.33 715.000012,74.626 C714.712012,78.226 714.856012,82.258 714.856012,85.858 C714.856012,92.05 715.144012,98.386 715.144012,104.578 C715.144012,112.21 714.856012,119.986 714.712012,127.618 C714.712012,137.122 714.568012,146.482 714.280012,155.986 C714.136012,162.466 713.704012,168.946 713.704012,175.282 C713.704012,177.73 713.272012,187.954 714.280012,188.818 C714.712012,189.106 715.288012,189.106 715.720012,189.106 C717.592012,189.106 719.464012,188.962 721.336012,188.962 C721.768012,188.962 722.488012,188.962 722.776012,188.674 C723.352012,188.386 723.064012,183.202 723.064012,182.338 C723.064012,179.026 723.208012,175.858 723.208012,172.546 C723.208012,158.002 723.784012,143.602 724.072012,129.058 C724.072012,128.626 724.936012,126.178 725.080012,125.746 C726.664012,120.706 729.976012,114.946 736.024012,114.946 C737.608012,114.946 739.192012,115.378 740.344012,116.53 C744.232012,120.418 744.088012,132.802 744.088012,137.842 C744.088012,154.402 743.656012,170.818 743.656012,187.234 C743.656012,189.826 744.088012,189.25 746.680012,189.25 L747.400012,189.25 C748.120012,189.106 748.264012,188.818 748.264012,187.954 L748.264012,184.21 C748.264012,168.802 748.552012,153.25 748.552012,137.842 C748.552012,128.482 749.416012,110.338 735.880012,110.338 Z M786.102132,85.714 C787.398132,84.994 789.270132,84.994 790.710132,84.994 C797.190132,84.994 803.814132,84.994 810.294132,84.562 C811.446132,84.562 812.166132,84.13 812.166132,82.834 C812.166132,81.106 811.446132,80.098 809.574132,80.098 C806.982132,80.098 804.534132,80.818 801.942132,80.962 C797.910132,81.106 793.734132,80.962 789.702132,80.962 C787.974132,80.962 786.246132,80.818 784.518132,80.818 C781.494132,80.818 777.318132,81.826 777.318132,85.426 C777.318132,90.466 777.174132,95.506 777.174132,100.546 C777.030132,117.106 777.030132,133.522 777.030132,150.082 C777.030132,158.578 777.030132,167.074 777.174132,175.57 C777.174132,179.17 777.030132,182.77 777.318132,186.37 C777.462132,188.386 778.326132,189.538 780.342132,189.538 C781.494132,189.538 784.950132,189.538 785.814132,189.25 C786.822132,188.818 786.966132,187.522 786.966132,186.658 C786.966132,170.098 786.390132,153.538 786.102132,136.978 C786.390132,136.834 786.822132,136.69 787.254132,136.69 L790.710132,136.69 C794.166132,136.69 801.942132,136.834 804.966132,136.258 C805.974132,135.97 806.550132,135.394 806.550132,134.386 C806.550132,132.802 805.542132,132.37 804.102132,132.37 C801.654132,132.37 799.062132,132.658 796.614132,132.658 C795.462132,132.658 786.534132,132.802 786.102132,132.226 C785.958132,127.762 785.958132,123.298 785.958132,118.834 C785.958132,107.746 785.958132,96.802 786.102132,85.714 Z M815.749191,110.05 C815.029191,113.65 815.317191,117.106 815.173191,120.85 C815.029191,128.77 815.173191,136.834 815.173191,144.754 C815.173191,149.506 815.317191,154.258 815.317191,159.01 C815.317191,167.65 814.741191,176.434 814.741191,185.074 C814.741191,187.81 816.901191,189.25 819.493191,189.25 C822.229191,189.25 823.813191,188.242 823.813191,185.506 C823.813191,167.794 821.653191,126.178 834.757191,115.666 C835.621191,114.946 836.629191,114.37 837.925191,114.37 C844.837191,114.37 841.525191,125.602 844.837191,125.602 C846.277191,125.602 846.853191,124.594 846.853191,123.154 C846.853191,117.682 843.829191,109.762 837.205191,109.762 C835.909191,109.762 834.613191,110.194 833.461191,110.914 C826.981191,114.946 825.685191,120.706 823.093191,127.33 C823.381191,122.578 823.813191,117.826 824.101191,113.218 L824.101191,112.498 C824.101191,110.77 823.381191,108.61 821.221191,108.61 C820.213191,108.61 817.045191,109.618 815.749191,110.05 Z M863.396251,109.762 C861.380251,109.762 858.356251,110.482 856.772251,112.066 C850.004251,118.978 848.564251,137.554 848.564251,146.914 C848.564251,155.266 849.284251,163.618 850.724251,171.826 C851.876251,179.17 856.484251,189.106 865.268251,189.106 C870.308251,189.106 873.332251,186.514 875.348251,182.05 C879.524251,172.834 881.684251,162.322 881.684251,152.242 C881.684251,141.874 881.252251,128.626 875.924251,119.554 C873.044251,114.802 869.588251,109.762 863.396251,109.762 Z M867.716251,183.778 C865.556251,183.778 863.684251,180.754 862.676251,179.17 C859.652251,173.842 858.068251,158.866 858.068251,152.53 C858.068251,146.914 858.068251,115.09 865.700251,115.09 C866.852251,115.09 869.156251,116.818 870.020251,117.682 C877.652251,125.602 878.516251,140.29 878.516251,150.658 C878.516251,153.826 878.372251,156.994 877.796251,160.018 C876.932251,164.338 873.188251,183.778 867.716251,183.778 Z M942.00331,142.882 C942.00331,139.57 941.85931,136.114 941.71531,132.802 C941.28331,125.314 942.14731,109.762 931.20331,109.762 C920.83531,109.762 916.22731,116.818 913.77931,126.034 C912.91531,121.426 911.18731,110.05 904.99531,110.05 C899.81131,110.05 897.50731,114.802 895.20331,118.546 C895.20331,116.53 895.34731,114.37 895.34731,112.354 C895.34731,109.618 892.89931,110.338 890.88331,110.338 C889.73131,110.338 888.57931,110.338 887.57131,110.626 C886.99531,111.49 887.28331,113.218 887.28331,114.082 C887.28331,136.546 886.85131,158.866 886.85131,181.33 C886.85131,182.626 886.85131,187.522 887.71531,188.53 C888.57931,189.25 890.45131,189.25 891.45931,189.25 C893.18731,189.25 895.49131,188.962 895.49131,186.802 C895.49131,171.106 895.05931,155.266 895.05931,139.57 C895.05931,132.37 896.21131,118.258 903.84331,114.802 C904.13131,114.658 904.41931,114.658 904.70731,114.658 C911.18731,114.658 911.04331,135.394 911.04331,140.002 C911.04331,154.834 910.17931,169.666 910.17931,184.642 C910.17931,186.082 910.32331,189.538 912.48331,189.538 C913.77931,189.538 913.77931,187.954 913.92331,186.946 C914.21131,178.738 914.06731,170.386 914.35531,162.178 C914.49931,157.138 914.78731,151.954 914.93131,146.914 C915.21931,136.546 916.08331,113.794 930.48331,113.794 C933.36331,113.794 935.23531,115.378 936.38731,117.97 C938.25931,122.146 938.25931,141.586 938.25931,147.346 C938.25931,160.882 938.11531,174.562 938.11531,188.098 C938.11531,189.394 938.83531,189.538 939.98731,189.538 C941.57131,189.538 941.57131,189.394 941.71531,187.81 C942.00331,184.21 941.85931,180.466 941.85931,176.866 C942.00331,168.946 942.00331,161.17 942.00331,153.394 L942.00331,142.882 Z" id="buy-title"></path>
                    </g>
                </g>
            </g>
        </g>
    </g>
</svg>