<?xml version="1.0" encoding="UTF-8"?>
<svg width="682px" height="135px" viewBox="0 0 682 135" version="1.1" xmlns="http://www.w3.org/2000/svg" xmlns:xlink="http://www.w3.org/1999/xlink">
    <!-- Generator: Sketch 41.1 (35376) - http://www.bohemiancoding.com/sketch -->
    <title>buy-from-title</title>
    <desc>Created with Sketch.</desc>
    <defs></defs>
    <g id="Page-1" stroke="none" stroke-width="1" fill="none" fill-rule="evenodd">
        <g id="Desktop-HD" transform="translate(-356.000000, -2099.000000)" fill="#C47878">
            <g id="Group-8" transform="translate(0.000000, 756.000000)">
                <g id="Book" transform="translate(0.000000, 927.000000)">
                    <g id="Preorder-Popup" transform="translate(161.000000, 324.000000)">
                        <path d="M200.125,194.125 C201.375,194.125 202.5,194 203.75,194 C207.5,193.75 211,193.5 214.375,192 C221.375,188.75 226.5,181.375 226.5,173.75 C226.5,165.25 225.25,161.375 220.125,154.625 C217.375,150.875 213.875,149 209.75,147.125 C210.375,146.625 211.125,146.25 211.75,145.75 C213.75,144.25 215.75,142.5 217.5,140.75 C222.25,136.125 224,127.5 224,121.125 C224,117.375 223,113.5 221.75,110.125 C219.875,104.875 217,100.625 211.25,99.625 C209.375,99.25 207.5,99.125 205.625,99.125 C203.75,99.125 199.125,99.25 197.375,99.75 C196.375,100.125 196.5,103 196.375,103.875 L196.375,106.25 C196.375,111.5 196.375,116.75 196.25,122 C195.75,135.5 195.125,149 195.125,162.5 C195.125,167.75 195.375,172.875 195.375,178 C195.375,181 195.375,184.125 195.25,187.125 C195.25,189.125 195.375,192.375 197.25,193.5 C198.125,194.125 199.125,194.125 200.125,194.125 Z M205.75,189.875 C205.625,189.875 205.25,189.875 205.125,189.75 C204.75,189.25 204.75,185.625 204.75,184.875 L204.75,181.25 C205.125,171.875 205.125,162.25 205.125,152.75 L205.125,150.375 C205.375,150.25 205.625,150.25 205.875,150.25 C206.625,150.25 207.375,150.375 208,150.625 C212.5,152.375 216.25,155 218.5,159.375 C220.625,163.375 221.875,167.25 221.875,171.75 C221.875,179.125 220.5,181.75 215,186.375 C213.375,187.625 211.5,188.25 209.75,189 C208.5,189.375 207.125,189.875 205.75,189.875 Z M208,102.75 C217.75,102.75 220.125,113.75 220.125,121.625 C220.125,127.625 218.5,133.75 214.375,138.25 C212,140.875 208.375,142.875 205.375,145 C205.375,144.25 205.25,143.5 205.25,142.75 C205.25,131.5 205.75,120.25 205.75,109 C205.75,107.5 205.625,106.125 205.625,104.625 C205.625,104.125 205.625,103.5 205.75,102.875 C206.5,102.875 207.25,102.75 208,102.75 Z M262.485295,158.875 C262.485295,152.5 262.735295,146.25 262.985295,139.875 C263.110295,136.5 263.360295,133.125 263.360295,129.875 C263.360295,127 262.360295,126.5 259.735295,126.25 C258.735295,126.125 257.735295,125.625 256.485295,125.625 C254.860295,125.625 253.985295,126.375 253.985295,128.125 C253.985295,129.125 254.235295,130.125 254.235295,131 L254.235295,140.375 C254.235295,147.375 253.735295,154.125 253.360295,161.125 C253.110295,166.625 252.860295,189.875 245.110295,189.875 C244.485295,189.875 243.860295,189.625 243.360295,189.25 C236.610295,184.25 236.610295,166.375 236.610295,158.875 C236.610295,150.625 236.735295,142.5 237.235295,134.375 C237.360295,132.125 237.610295,129.875 237.610295,127.75 C237.610295,126.25 236.735295,125.125 235.235295,125.125 C233.360295,125.125 233.485295,129.75 233.485295,131.125 C233.110295,139.25 232.610295,147.5 232.610295,155.625 C232.610295,165 233.235295,181.875 237.985295,190 C239.610295,192.75 242.235295,194.125 245.360295,194.125 C248.360295,194.125 250.610295,192.375 252.360295,190 C254.860295,186.625 255.110295,182.25 255.860295,178.25 C256.485295,180.375 256.985295,186.375 257.235295,188.875 C257.485295,191 258.360295,193.625 260.985295,193.625 C263.110295,193.625 263.985295,191.5 263.985295,189.625 C263.985295,188.75 263.860295,187.75 263.735295,186.875 C263.485295,183.5 262.860295,180.25 262.735295,176.875 C262.610295,170.875 262.485295,164.875 262.485295,158.875 Z M295.22059,126.125 C295.22059,126.25 293.34559,137.125 293.34559,137.375 C292.09559,143.875 291.47059,150.5 290.34559,157.125 C289.22059,163.5 288.34559,170 287.34559,176.5 C286.72059,179.875 286.34559,183.25 285.72059,186.625 C284.59559,181.375 283.47059,176.125 282.22059,170.875 C279.72059,159.875 277.59559,148.75 275.84559,137.625 C275.47059,134.875 275.22059,132.125 274.84559,129.375 C274.72059,128.375 273.97059,126.75 272.72059,126.75 C271.72059,126.75 271.09559,128 271.09559,128.875 C271.09559,132 272.34559,137.875 272.97059,141.125 C275.22059,155 278.09559,168.5 281.09559,182.25 C282.22059,187 283.72059,192.75 283.72059,197.75 C283.72059,199.125 281.22059,212.5 280.34559,215.625 C279.72059,217.875 278.59559,222.375 278.59559,224.375 C278.59559,226.875 282.22059,226.625 283.97059,226.625 C285.22059,226.625 285.72059,225.875 285.84559,224.75 L299.47059,147.5 C299.97059,144.625 300.47059,141.625 301.09559,138.75 C301.59559,135.625 302.72059,132.375 302.72059,129.25 C302.72059,128.625 302.59559,127.875 302.09559,127.375 C301.47059,126.875 296.09559,126.25 295.22059,126.125 Z M341.191179,99.375 C340.191179,99.375 339.191179,99.5 338.066179,99.5 C336.316179,99.5 336.066179,100.125 335.816179,101.75 C335.066179,106.875 334.691179,112 334.066179,117.125 L328.691179,167.5 L327.066179,181.875 L326.066179,191 C325.941179,191.5 325.816179,192.375 325.816179,192.875 C325.816179,194.375 328.941179,194.375 329.941179,194.375 C331.441179,194.375 333.191179,194.375 334.691179,194.25 C335.441179,194.125 335.566179,193.625 335.566179,193 C335.566179,188 336.066179,182.875 336.441179,178 C337.066179,171.625 337.566179,165.25 338.191179,158.875 C338.316179,157.875 338.316179,156.875 338.566179,155.875 C342.191179,155.875 345.691179,155.875 349.316179,155.75 C350.316179,162.875 351.441179,169.875 352.191179,176.875 C352.691179,181.875 353.191179,187.75 354.441179,192.5 C354.691179,193.75 354.941179,194.125 356.191179,194.125 C356.816179,194.125 357.941179,194.125 357.941179,193.375 C357.941179,191.5 357.441179,189.375 357.066179,187.375 L355.566179,176.875 L352.191179,151 C351.566179,145.625 351.191179,140.25 350.316179,134.875 C349.066179,125.75 348.066179,116.5 346.566179,107.375 C346.316179,105.375 346.066179,103 345.441179,100.875 C345.316179,100.5 345.066179,100 344.566179,99.75 C343.941179,99.5 342.066179,99.375 341.191179,99.375 Z M343.066179,108.75 C344.816179,123.375 347.316179,138 348.941179,152.625 L347.441179,152.625 C344.566179,152.75 341.691179,152.5 338.816179,152.625 C340.316179,138 341.316179,123.375 343.066179,108.75 Z M384.926474,128.5 C382.051474,128.5 379.051474,128.625 376.176474,128.625 L376.176474,126.75 C376.301474,124.25 376.426474,121.75 376.676474,119.25 C376.926474,117.125 377.301474,115 377.301474,112.875 C377.301474,110.625 375.676474,110.25 373.801474,110.25 C373.051474,110.25 370.176474,110.5 369.926474,111.5 C369.176474,117.125 369.176474,123 368.801474,128.75 L363.801474,128.75 C362.926474,128.75 361.426474,129 361.426474,130.25 C361.426474,131.625 363.051474,132.375 364.176474,132.375 C365.676474,132.375 367.176474,132 368.676474,131.875 C368.301474,137.125 368.051474,142.5 368.051474,147.75 C368.051474,152.75 367.801474,157.875 367.801474,162.875 C367.801474,166.375 368.051474,169.875 368.051474,173.375 C368.051474,180.25 368.676474,194.375 378.301474,194.375 C383.176474,194.375 383.551474,192 384.926474,188.125 L384.926474,187.875 C384.926474,187 384.051474,185.875 383.176474,185.875 C380.426474,185.875 382.301474,191.125 379.051474,191.125 C374.426474,191.125 374.676474,177.125 374.676474,174 C374.676474,171.25 374.926474,168.625 375.051474,166 C375.301474,158.125 375.801474,150.125 376.176474,142.25 C376.301474,139.25 376.051474,136.25 376.051474,133.25 L376.176474,132 L381.551474,132 C383.051474,132 387.551474,132.5 387.551474,130.25 C387.551474,128.75 386.051474,128.5 384.926474,128.5 Z M415.522064,104.375 C416.647064,103.75 418.272064,103.75 419.522064,103.75 C425.147064,103.75 430.897064,103.75 436.522064,103.375 C437.522064,103.375 438.147064,103 438.147064,101.875 C438.147064,100.375 437.522064,99.5 435.897064,99.5 C433.647064,99.5 431.522064,100.125 429.272064,100.25 C425.772064,100.375 422.147064,100.25 418.647064,100.25 C417.147064,100.25 415.647064,100.125 414.147064,100.125 C411.522064,100.125 407.897064,101 407.897064,104.125 C407.897064,108.5 407.772064,112.875 407.772064,117.25 C407.647064,131.625 407.647064,145.875 407.647064,160.25 C407.647064,167.625 407.647064,175 407.772064,182.375 C407.772064,185.5 407.647064,188.625 407.897064,191.75 C408.022064,193.5 408.772064,194.5 410.522064,194.5 C411.522064,194.5 414.522064,194.5 415.272064,194.25 C416.147064,193.875 416.272064,192.75 416.272064,192 C416.272064,177.625 415.772064,163.25 415.522064,148.875 C415.772064,148.75 416.147064,148.625 416.522064,148.625 L419.522064,148.625 C422.522064,148.625 429.272064,148.75 431.897064,148.25 C432.772064,148 433.272064,147.5 433.272064,146.625 C433.272064,145.25 432.397064,144.875 431.147064,144.875 C429.022064,144.875 426.772064,145.125 424.647064,145.125 C423.647064,145.125 415.897064,145.25 415.522064,144.75 C415.397064,140.875 415.397064,137 415.397064,133.125 C415.397064,123.5 415.397064,114 415.522064,104.375 Z M444.007359,126.25 C443.382359,126.25 441.007359,126.375 441.007359,127.375 C441.007359,142 441.132359,156.75 441.007359,171.375 C441.007359,175.625 440.632359,179.875 440.632359,184.125 C440.632359,186.5 440.507359,188.75 440.507359,191.125 C440.507359,193.75 441.382359,194.375 444.007359,194.375 C445.507359,194.375 448.132359,194.125 448.132359,192.25 C448.132359,178.25 448.632359,164.125 448.632359,150.125 C448.632359,143.75 448.382359,137.5 448.382359,131.125 C448.382359,126.625 449.257359,126.25 444.007359,126.25 Z M444.757359,102.625 C442.132359,102.625 440.757359,105.5 440.757359,107.875 C440.757359,110.375 442.632359,113.625 445.382359,113.625 C448.132359,113.625 449.257359,110.375 449.257359,108.125 C449.257359,105.5 447.632359,102.625 444.757359,102.625 Z M456.867653,125.5 C456.242653,128.625 456.492653,131.625 456.367653,134.875 C456.242653,141.75 456.367653,148.75 456.367653,155.625 C456.367653,159.75 456.492653,163.875 456.492653,168 C456.492653,175.5 455.992653,183.125 455.992653,190.625 C455.992653,193 457.867653,194.25 460.117653,194.25 C462.492653,194.25 463.867653,193.375 463.867653,191 C463.867653,175.625 461.992653,139.5 473.367653,130.375 C474.117653,129.75 474.992653,129.25 476.117653,129.25 C482.117653,129.25 479.242653,139 482.117653,139 C483.367653,139 483.867653,138.125 483.867653,136.875 C483.867653,132.125 481.242653,125.25 475.492653,125.25 C474.367653,125.25 473.242653,125.625 472.242653,126.25 C466.617653,129.75 465.492653,134.75 463.242653,140.5 C463.492653,136.375 463.867653,132.25 464.117653,128.25 L464.117653,127.625 C464.117653,126.125 463.492653,124.25 461.617653,124.25 C460.742653,124.25 457.992653,125.125 456.867653,125.5 Z M492.477948,140 C492.477948,136.25 493.477948,129.625 498.477948,129.625 C502.977948,129.625 504.727948,137.25 504.727948,140.75 C504.727948,142.25 504.352948,143.75 504.352948,145.25 C504.352948,146.25 504.977948,146.625 505.977948,146.625 C507.852948,146.625 508.102948,143.25 508.102948,142 C508.102948,135.625 506.227948,125.375 497.977948,125.375 C489.227948,125.375 485.102948,136.5 485.102948,143.875 C485.102948,161.5 503.602948,160 503.602948,177.875 C503.602948,181.625 501.352948,190.375 496.727948,190.375 C493.727948,190.375 491.477948,186.625 490.977948,184 C490.227948,180.5 490.477948,176.875 490.477948,173.375 C490.477948,172.125 490.352948,169.25 488.477948,169.25 C486.977948,169.25 486.352948,171.375 486.352948,172.625 C486.352948,174.375 486.477948,176.25 486.602948,178 C486.977948,186.125 488.227948,194.125 498.352948,194.125 C507.727948,194.125 509.852948,186.5 509.852948,178.375 C509.852948,177.125 509.727948,175.875 509.602948,174.625 C508.977948,170.75 507.977948,166.75 505.977948,163.375 C504.477948,160.875 502.352948,158.875 500.352948,156.875 C494.977948,151.75 492.477948,147.75 492.477948,140 Z M537.588243,128.5 C534.713243,128.5 531.713243,128.625 528.838243,128.625 L528.838243,126.75 C528.963243,124.25 529.088243,121.75 529.338243,119.25 C529.588243,117.125 529.963243,115 529.963243,112.875 C529.963243,110.625 528.338243,110.25 526.463243,110.25 C525.713243,110.25 522.838243,110.5 522.588243,111.5 C521.838243,117.125 521.838243,123 521.463243,128.75 L516.463243,128.75 C515.588243,128.75 514.088243,129 514.088243,130.25 C514.088243,131.625 515.713243,132.375 516.838243,132.375 C518.338243,132.375 519.838243,132 521.338243,131.875 C520.963243,137.125 520.713243,142.5 520.713243,147.75 C520.713243,152.75 520.463243,157.875 520.463243,162.875 C520.463243,166.375 520.713243,169.875 520.713243,173.375 C520.713243,180.25 521.338243,194.375 530.963243,194.375 C535.838243,194.375 536.213243,192 537.588243,188.125 L537.588243,187.875 C537.588243,187 536.713243,185.875 535.838243,185.875 C533.088243,185.875 534.963243,191.125 531.713243,191.125 C527.088243,191.125 527.338243,177.125 527.338243,174 C527.338243,171.25 527.588243,168.625 527.713243,166 C527.963243,158.125 528.463243,150.125 528.838243,142.25 C528.963243,139.25 528.713243,136.25 528.713243,133.25 L528.838243,132 L534.213243,132 C535.713243,132 540.213243,132.5 540.213243,130.25 C540.213243,128.75 538.713243,128.5 537.588243,128.5 Z M564.933833,194.125 C566.183833,194.125 567.308833,194 568.558833,194 C572.308833,193.75 575.808833,193.5 579.183833,192 C586.183833,188.75 591.308833,181.375 591.308833,173.75 C591.308833,165.25 590.058833,161.375 584.933833,154.625 C582.183833,150.875 578.683833,149 574.558833,147.125 C575.183833,146.625 575.933833,146.25 576.558833,145.75 C578.558833,144.25 580.558833,142.5 582.308833,140.75 C587.058833,136.125 588.808833,127.5 588.808833,121.125 C588.808833,117.375 587.808833,113.5 586.558833,110.125 C584.683833,104.875 581.808833,100.625 576.058833,99.625 C574.183833,99.25 572.308833,99.125 570.433833,99.125 C568.558833,99.125 563.933833,99.25 562.183833,99.75 C561.183833,100.125 561.308833,103 561.183833,103.875 L561.183833,106.25 C561.183833,111.5 561.183833,116.75 561.058833,122 C560.558833,135.5 559.933833,149 559.933833,162.5 C559.933833,167.75 560.183833,172.875 560.183833,178 C560.183833,181 560.183833,184.125 560.058833,187.125 C560.058833,189.125 560.183833,192.375 562.058833,193.5 C562.933833,194.125 563.933833,194.125 564.933833,194.125 Z M570.558833,189.875 C570.433833,189.875 570.058833,189.875 569.933833,189.75 C569.558833,189.25 569.558833,185.625 569.558833,184.875 L569.558833,181.25 C569.933833,171.875 569.933833,162.25 569.933833,152.75 L569.933833,150.375 C570.183833,150.25 570.433833,150.25 570.683833,150.25 C571.433833,150.25 572.183833,150.375 572.808833,150.625 C577.308833,152.375 581.058833,155 583.308833,159.375 C585.433833,163.375 586.683833,167.25 586.683833,171.75 C586.683833,179.125 585.308833,181.75 579.808833,186.375 C578.183833,187.625 576.308833,188.25 574.558833,189 C573.308833,189.375 571.933833,189.875 570.558833,189.875 Z M572.808833,102.75 C582.558833,102.75 584.933833,113.75 584.933833,121.625 C584.933833,127.625 583.308833,133.75 579.183833,138.25 C576.808833,140.875 573.183833,142.875 570.183833,145 C570.183833,144.25 570.058833,143.5 570.058833,142.75 C570.058833,131.5 570.558833,120.25 570.558833,109 C570.558833,107.5 570.433833,106.125 570.433833,104.625 C570.433833,104.125 570.433833,103.5 570.558833,102.875 C571.308833,102.875 572.058833,102.75 572.808833,102.75 Z M604.044127,191.875 C604.044127,180.375 603.669127,168.875 603.669127,157.5 L603.669127,146.625 C603.669127,129.625 603.919127,112.625 603.919127,95.625 C603.919127,93.5 603.044127,93.5 601.294127,93.5 L599.169127,93.5 C597.794127,93.5 597.794127,95.25 597.794127,96.125 C597.794127,111.125 598.169127,126 598.169127,141 L598.169127,156.5 C598.169127,165.125 597.794127,173.875 597.794127,182.625 L597.794127,193.125 C597.794127,194.5 599.919127,194.5 600.919127,194.5 C603.544127,194.5 604.044127,194.875 604.044127,191.875 Z M641.404422,158.875 C641.404422,152.5 641.654422,146.25 641.904422,139.875 C642.029422,136.5 642.279422,133.125 642.279422,129.875 C642.279422,127 641.279422,126.5 638.654422,126.25 C637.654422,126.125 636.654422,125.625 635.404422,125.625 C633.779422,125.625 632.904422,126.375 632.904422,128.125 C632.904422,129.125 633.154422,130.125 633.154422,131 L633.154422,140.375 C633.154422,147.375 632.654422,154.125 632.279422,161.125 C632.029422,166.625 631.779422,189.875 624.029422,189.875 C623.404422,189.875 622.779422,189.625 622.279422,189.25 C615.529422,184.25 615.529422,166.375 615.529422,158.875 C615.529422,150.625 615.654422,142.5 616.154422,134.375 C616.279422,132.125 616.529422,129.875 616.529422,127.75 C616.529422,126.25 615.654422,125.125 614.154422,125.125 C612.279422,125.125 612.404422,129.75 612.404422,131.125 C612.029422,139.25 611.529422,147.5 611.529422,155.625 C611.529422,165 612.154422,181.875 616.904422,190 C618.529422,192.75 621.154422,194.125 624.279422,194.125 C627.279422,194.125 629.529422,192.375 631.279422,190 C633.779422,186.625 634.029422,182.25 634.779422,178.25 C635.404422,180.375 635.904422,186.375 636.154422,188.875 C636.404422,191 637.279422,193.625 639.904422,193.625 C642.029422,193.625 642.904422,191.5 642.904422,189.625 C642.904422,188.75 642.779422,187.75 642.654422,186.875 C642.404422,183.5 641.779422,180.25 641.654422,176.875 C641.529422,170.875 641.404422,164.875 641.404422,158.875 Z M656.639717,140 C656.639717,136.25 657.639717,129.625 662.639717,129.625 C667.139717,129.625 668.889717,137.25 668.889717,140.75 C668.889717,142.25 668.514717,143.75 668.514717,145.25 C668.514717,146.25 669.139717,146.625 670.139717,146.625 C672.014717,146.625 672.264717,143.25 672.264717,142 C672.264717,135.625 670.389717,125.375 662.139717,125.375 C653.389717,125.375 649.264717,136.5 649.264717,143.875 C649.264717,161.5 667.764717,160 667.764717,177.875 C667.764717,181.625 665.514717,190.375 660.889717,190.375 C657.889717,190.375 655.639717,186.625 655.139717,184 C654.389717,180.5 654.639717,176.875 654.639717,173.375 C654.639717,172.125 654.514717,169.25 652.639717,169.25 C651.139717,169.25 650.514717,171.375 650.514717,172.625 C650.514717,174.375 650.639717,176.25 650.764717,178 C651.139717,186.125 652.389717,194.125 662.514717,194.125 C671.889717,194.125 674.014717,186.5 674.014717,178.375 C674.014717,177.125 673.889717,175.875 673.764717,174.625 C673.139717,170.75 672.139717,166.75 670.139717,163.375 C668.639717,160.875 666.514717,158.875 664.514717,156.875 C659.139717,151.75 656.639717,147.75 656.639717,140 Z M697.500012,125.75 C693.125012,125.75 689.750012,128.625 687.500012,132.125 L687.500012,129.375 C687.500012,119.25 687.250012,109.125 687.250012,98.875 C687.250012,96.25 688.250012,92.25 684.500012,92.25 C683.875012,92.25 681.500012,92.375 680.875012,92.625 C680.000012,93.125 679.500012,93.625 679.375012,94.75 C679.125012,97.875 679.250012,101.375 679.250012,104.5 C679.250012,109.875 679.500012,115.375 679.500012,120.75 C679.500012,127.375 679.250012,134.125 679.125012,140.75 C679.125012,149 679.000012,157.125 678.750012,165.375 C678.625012,171 678.250012,176.625 678.250012,182.125 C678.250012,184.25 677.875012,193.125 678.750012,193.875 C679.125012,194.125 679.625012,194.125 680.000012,194.125 C681.625012,194.125 683.250012,194 684.875012,194 C685.250012,194 685.875012,194 686.125012,193.75 C686.625012,193.5 686.375012,189 686.375012,188.25 C686.375012,185.375 686.500012,182.625 686.500012,179.75 C686.500012,167.125 687.000012,154.625 687.250012,142 C687.250012,141.625 688.000012,139.5 688.125012,139.125 C689.500012,134.75 692.375012,129.75 697.625012,129.75 C699.000012,129.75 700.375012,130.125 701.375012,131.125 C704.750012,134.5 704.625012,145.25 704.625012,149.625 C704.625012,164 704.250012,178.25 704.250012,192.5 C704.250012,194.75 704.625012,194.25 706.875012,194.25 L707.500012,194.25 C708.125012,194.125 708.250012,193.875 708.250012,193.125 L708.250012,189.875 C708.250012,176.5 708.500012,163 708.500012,149.625 C708.500012,141.5 709.250012,125.75 697.500012,125.75 Z M741.095602,104.375 C742.220602,103.75 743.845602,103.75 745.095602,103.75 C750.720602,103.75 756.470602,103.75 762.095602,103.375 C763.095602,103.375 763.720602,103 763.720602,101.875 C763.720602,100.375 763.095602,99.5 761.470602,99.5 C759.220602,99.5 757.095602,100.125 754.845602,100.25 C751.345602,100.375 747.720602,100.25 744.220602,100.25 C742.720602,100.25 741.220602,100.125 739.720602,100.125 C737.095602,100.125 733.470602,101 733.470602,104.125 C733.470602,108.5 733.345602,112.875 733.345602,117.25 C733.220602,131.625 733.220602,145.875 733.220602,160.25 C733.220602,167.625 733.220602,175 733.345602,182.375 C733.345602,185.5 733.220602,188.625 733.470602,191.75 C733.595602,193.5 734.345602,194.5 736.095602,194.5 C737.095602,194.5 740.095602,194.5 740.845602,194.25 C741.720602,193.875 741.845602,192.75 741.845602,192 C741.845602,177.625 741.345602,163.25 741.095602,148.875 C741.345602,148.75 741.720602,148.625 742.095602,148.625 L745.095602,148.625 C748.095602,148.625 754.845602,148.75 757.470602,148.25 C758.345602,148 758.845602,147.5 758.845602,146.625 C758.845602,145.25 757.970602,144.875 756.720602,144.875 C754.595602,144.875 752.345602,145.125 750.220602,145.125 C749.220602,145.125 741.470602,145.25 741.095602,144.75 C740.970602,140.875 740.970602,137 740.970602,133.125 C740.970602,123.5 740.970602,114 741.095602,104.375 Z M766.830896,125.5 C766.205896,128.625 766.455896,131.625 766.330896,134.875 C766.205896,141.75 766.330896,148.75 766.330896,155.625 C766.330896,159.75 766.455896,163.875 766.455896,168 C766.455896,175.5 765.955896,183.125 765.955896,190.625 C765.955896,193 767.830896,194.25 770.080896,194.25 C772.455896,194.25 773.830896,193.375 773.830896,191 C773.830896,175.625 771.955896,139.5 783.330896,130.375 C784.080896,129.75 784.955896,129.25 786.080896,129.25 C792.080896,129.25 789.205896,139 792.080896,139 C793.330896,139 793.830896,138.125 793.830896,136.875 C793.830896,132.125 791.205896,125.25 785.455896,125.25 C784.330896,125.25 783.205896,125.625 782.205896,126.25 C776.580896,129.75 775.455896,134.75 773.205896,140.5 C773.455896,136.375 773.830896,132.25 774.080896,128.25 L774.080896,127.625 C774.080896,126.125 773.455896,124.25 771.580896,124.25 C770.705896,124.25 767.955896,125.125 766.830896,125.5 Z M808.191191,125.25 C806.441191,125.25 803.816191,125.875 802.441191,127.25 C796.566191,133.25 795.316191,149.375 795.316191,157.5 C795.316191,164.75 795.941191,172 797.191191,179.125 C798.191191,185.5 802.191191,194.125 809.816191,194.125 C814.191191,194.125 816.816191,191.875 818.566191,188 C822.191191,180 824.066191,170.875 824.066191,162.125 C824.066191,153.125 823.691191,141.625 819.066191,133.75 C816.566191,129.625 813.566191,125.25 808.191191,125.25 Z M811.941191,189.5 C810.066191,189.5 808.441191,186.875 807.566191,185.5 C804.941191,180.875 803.566191,167.875 803.566191,162.375 C803.566191,157.5 803.566191,129.875 810.191191,129.875 C811.191191,129.875 813.191191,131.375 813.941191,132.125 C820.566191,139 821.316191,151.75 821.316191,160.75 C821.316191,163.5 821.191191,166.25 820.691191,168.875 C819.941191,172.625 816.691191,189.5 811.941191,189.5 Z M876.426486,154 C876.426486,151.125 876.301486,148.125 876.176486,145.25 C875.801486,138.75 876.551486,125.25 867.051486,125.25 C858.051486,125.25 854.051486,131.375 851.926486,139.375 C851.176486,135.375 849.676486,125.5 844.301486,125.5 C839.801486,125.5 837.801486,129.625 835.801486,132.875 C835.801486,131.125 835.926486,129.25 835.926486,127.5 C835.926486,125.125 833.801486,125.75 832.051486,125.75 C831.051486,125.75 830.051486,125.75 829.176486,126 C828.676486,126.75 828.926486,128.25 828.926486,129 C828.926486,148.5 828.551486,167.875 828.551486,187.375 C828.551486,188.5 828.551486,192.75 829.301486,193.625 C830.051486,194.25 831.676486,194.25 832.551486,194.25 C834.051486,194.25 836.051486,194 836.051486,192.125 C836.051486,178.5 835.676486,164.75 835.676486,151.125 C835.676486,144.875 836.676486,132.625 843.301486,129.625 C843.551486,129.5 843.801486,129.5 844.051486,129.5 C849.676486,129.5 849.551486,147.5 849.551486,151.5 C849.551486,164.375 848.801486,177.25 848.801486,190.25 C848.801486,191.5 848.926486,194.5 850.801486,194.5 C851.926486,194.5 851.926486,193.125 852.051486,192.25 C852.301486,185.125 852.176486,177.875 852.426486,170.75 C852.551486,166.375 852.801486,161.875 852.926486,157.5 C853.176486,148.5 853.926486,128.75 866.426486,128.75 C868.926486,128.75 870.551486,130.125 871.551486,132.375 C873.176486,136 873.176486,152.875 873.176486,157.875 C873.176486,169.625 873.051486,181.5 873.051486,193.25 C873.051486,194.375 873.676486,194.5 874.676486,194.5 C876.051486,194.5 876.051486,194.375 876.176486,193 C876.426486,189.875 876.301486,186.625 876.301486,183.5 C876.426486,176.625 876.426486,169.875 876.426486,163.125 L876.426486,154 Z" id="buy-from-title"></path>
                    </g>
                </g>
            </g>
        </g>
    </g>
</svg>