<?xml version="1.0" encoding="UTF-8"?>
<svg width="333px" height="93px" viewBox="0 0 333 93" version="1.1" xmlns="http://www.w3.org/2000/svg" xmlns:xlink="http://www.w3.org/1999/xlink">
    <!-- Generator: Sketch 41.1 (35376) - http://www.bohemiancoding.com/sketch -->
    <title>preorder-button</title>
    <desc>Created with Sketch.</desc>
    <defs>
        <rect id="path-1" x="0" y="0" width="333" height="93"></rect>
        <mask id="mask-2" maskContentUnits="userSpaceOnUse" maskUnits="objectBoundingBox" x="0" y="0" width="333" height="93" fill="white">
            <use xlink:href="#path-1"></use>
        </mask>
    </defs>
    <g id="Page-1" stroke="none" stroke-width="1" fill="none" fill-rule="evenodd">
        <g id="Desktop-HD" transform="translate(-122.000000, -2726.000000)">
            <g id="Group-8" transform="translate(0.000000, 756.000000)">
                <g id="Book" transform="translate(0.000000, 927.000000)">
                    <g id="preorder-button" transform="translate(122.000000, 1043.000000)">
                        <use id="Rectangle-5" stroke="#FFFFFF" mask="url(#mask-2)" stroke-width="10" fill="#742C70" xlink:href="#path-1"></use>
                        <path d="M89.075,72.925 C89.825,72.925 90.5,72.85 91.25,72.85 C93.5,72.7 95.6,72.55 97.625,71.65 C101.825,69.7 104.9,65.275 104.9,60.7 C104.9,55.6 104.15,53.275 101.075,49.225 C99.425,46.975 97.325,45.85 94.85,44.725 C95.225,44.425 95.675,44.2 96.05,43.9 C97.25,43 98.45,41.95 99.5,40.9 C102.35,38.125 103.4,32.95 103.4,29.125 C103.4,26.875 102.8,24.55 102.05,22.525 C100.925,19.375 99.2,16.825 95.75,16.225 C94.625,16 93.5,15.925 92.375,15.925 C91.25,15.925 88.475,16 87.425,16.3 C86.825,16.525 86.9,18.25 86.825,18.775 L86.825,20.2 C86.825,23.35 86.825,26.5 86.75,29.65 C86.45,37.75 86.075,45.85 86.075,53.95 C86.075,57.1 86.225,60.175 86.225,63.25 C86.225,65.05 86.225,66.925 86.15,68.725 C86.15,69.925 86.225,71.875 87.35,72.55 C87.875,72.925 88.475,72.925 89.075,72.925 Z M92.45,70.375 C92.375,70.375 92.15,70.375 92.075,70.3 C91.85,70 91.85,67.825 91.85,67.375 L91.85,65.2 C92.075,59.575 92.075,53.8 92.075,48.1 L92.075,46.675 C92.225,46.6 92.375,46.6 92.525,46.6 C92.975,46.6 93.425,46.675 93.8,46.825 C96.5,47.875 98.75,49.45 100.1,52.075 C101.375,54.475 102.125,56.8 102.125,59.5 C102.125,63.925 101.3,65.5 98,68.275 C97.025,69.025 95.9,69.4 94.85,69.85 C94.1,70.075 93.275,70.375 92.45,70.375 Z M93.8,18.1 C99.65,18.1 101.075,24.7 101.075,29.425 C101.075,33.025 100.1,36.7 97.625,39.4 C96.2,40.975 94.025,42.175 92.225,43.45 C92.225,43 92.15,42.55 92.15,42.1 C92.15,35.35 92.45,28.6 92.45,21.85 C92.45,20.95 92.375,20.125 92.375,19.225 C92.375,18.925 92.375,18.55 92.45,18.175 C92.9,18.175 93.35,18.1 93.8,18.1 Z M126.491177,51.775 C126.491177,47.95 126.641177,44.2 126.791177,40.375 C126.866177,38.35 127.016177,36.325 127.016177,34.375 C127.016177,32.65 126.416177,32.35 124.841177,32.2 C124.241177,32.125 123.641177,31.825 122.891177,31.825 C121.916177,31.825 121.391177,32.275 121.391177,33.325 C121.391177,33.925 121.541177,34.525 121.541177,35.05 L121.541177,40.675 C121.541177,44.875 121.241177,48.925 121.016177,53.125 C120.866177,56.425 120.716177,70.375 116.066177,70.375 C115.691177,70.375 115.316177,70.225 115.016177,70 C110.966177,67 110.966177,56.275 110.966177,51.775 C110.966177,46.825 111.041177,41.95 111.341177,37.075 C111.416177,35.725 111.566177,34.375 111.566177,33.1 C111.566177,32.2 111.041177,31.525 110.141177,31.525 C109.016177,31.525 109.091177,34.3 109.091177,35.125 C108.866177,40 108.566177,44.95 108.566177,49.825 C108.566177,55.45 108.941177,65.575 111.791177,70.45 C112.766177,72.1 114.341177,72.925 116.216177,72.925 C118.016177,72.925 119.366177,71.875 120.416177,70.45 C121.916177,68.425 122.066177,65.8 122.516177,63.4 C122.891177,64.675 123.191177,68.275 123.341177,69.775 C123.491177,71.05 124.016177,72.625 125.591177,72.625 C126.866177,72.625 127.391177,71.35 127.391177,70.225 C127.391177,69.7 127.316177,69.1 127.241177,68.575 C127.091177,66.55 126.716177,64.6 126.641177,62.575 C126.566177,58.975 126.491177,55.375 126.491177,51.775 Z M146.132354,32.125 C146.132354,32.2 145.007354,38.725 145.007354,38.875 C144.257354,42.775 143.882354,46.75 143.207354,50.725 C142.532354,54.55 142.007354,58.45 141.407354,62.35 C141.032354,64.375 140.807354,66.4 140.432354,68.425 C139.757354,65.275 139.082354,62.125 138.332354,58.975 C136.832354,52.375 135.557354,45.7 134.507354,39.025 C134.282354,37.375 134.132354,35.725 133.907354,34.075 C133.832354,33.475 133.382354,32.5 132.632354,32.5 C132.032354,32.5 131.657354,33.25 131.657354,33.775 C131.657354,35.65 132.407354,39.175 132.782354,41.125 C134.132354,49.45 135.857354,57.55 137.657354,65.8 C138.332354,68.65 139.232354,72.1 139.232354,75.1 C139.232354,75.925 137.732354,83.95 137.207354,85.825 C136.832354,87.175 136.157354,89.875 136.157354,91.075 C136.157354,92.575 138.332354,92.425 139.382354,92.425 C140.132354,92.425 140.432354,91.975 140.507354,91.3 L148.682354,44.95 C148.982354,43.225 149.282354,41.425 149.657354,39.7 C149.957354,37.825 150.632354,35.875 150.632354,34 C150.632354,33.625 150.557354,33.175 150.257354,32.875 C149.882354,32.575 146.657354,32.2 146.132354,32.125 Z M169.814707,46.9 C169.814707,44.425 170.039707,24.85 170.264707,24.625 C170.864707,27.4 171.539707,30.175 172.214707,32.95 C173.714707,39.1 174.989707,45.325 176.639707,51.4 C178.214707,57.55 179.939707,63.625 181.739707,69.7 C182.039707,70.75 182.339707,72.925 183.689707,72.925 C184.439707,72.925 184.814707,72.175 184.814707,71.5 C184.814707,59.2 185.039707,46.9 185.039707,34.6 C185.039707,32.125 184.889707,29.725 184.889707,27.325 C184.889707,25 184.964707,22.675 184.964707,20.425 C184.964707,19.75 185.039707,19.075 185.039707,18.4 C185.039707,17.65 185.039707,16 183.914707,16 C182.864707,16 182.564707,16.825 182.564707,17.725 C182.564707,22.15 182.789707,26.5 182.789707,30.925 C182.789707,40.075 182.714707,49.225 182.714707,58.375 C182.714707,60.1 182.639707,61.825 182.564707,63.55 C181.814707,61.825 181.139707,60.1 180.689707,58.225 C179.039707,52 177.464707,45.775 175.889707,39.55 C174.314707,33.025 173.039707,26.5 171.314707,19.975 C171.089707,19.225 170.639707,16.3 169.814707,16.075 C169.439707,16 167.039707,15.925 166.439707,15.925 C165.614707,15.925 165.314707,16.15 165.314707,17.05 C165.314707,28.075 164.489707,39.025 164.489707,50.05 C164.489707,56.95 164.339707,63.85 164.339707,70.675 C164.339707,72.925 164.189707,72.925 166.514707,72.925 C167.114707,72.925 169.589707,72.85 169.889707,72.625 C169.964707,72.55 169.964707,72.325 169.964707,72.175 C169.964707,71.425 169.889707,70.675 169.889707,69.925 C169.889707,64.675 169.814707,59.425 169.814707,54.175 L169.814707,46.9 Z M196.655884,31.6 C195.605884,31.6 194.030884,31.975 193.205884,32.8 C189.680884,36.4 188.930884,46.075 188.930884,50.95 C188.930884,55.3 189.305884,59.65 190.055884,63.925 C190.655884,67.75 193.055884,72.925 197.630884,72.925 C200.255884,72.925 201.830884,71.575 202.880884,69.25 C205.055884,64.45 206.180884,58.975 206.180884,53.725 C206.180884,48.325 205.955884,41.425 203.180884,36.7 C201.680884,34.225 199.880884,31.6 196.655884,31.6 Z M198.905884,70.15 C197.780884,70.15 196.805884,68.575 196.280884,67.75 C194.705884,64.975 193.880884,57.175 193.880884,53.875 C193.880884,50.95 193.880884,34.375 197.855884,34.375 C198.455884,34.375 199.655884,35.275 200.105884,35.725 C204.080884,39.85 204.530884,47.5 204.530884,52.9 C204.530884,54.55 204.455884,56.2 204.155884,57.775 C203.705884,60.025 201.755884,70.15 198.905884,70.15 Z M229.497061,72.4 C230.472061,72.4 230.547061,70.525 230.622061,69.85 C230.922061,67.075 231.222061,64.3 231.522061,61.45 C232.347061,54.625 233.472061,47.8 234.297061,40.975 C234.522061,39.325 234.672061,37.675 234.897061,36.1 C234.972061,35.275 235.197061,34.375 235.197061,33.55 C235.197061,33.025 234.897061,31.975 234.222061,31.975 C233.547061,31.975 233.397061,32.8 233.322061,33.325 C233.022061,35.5 233.022061,37.675 232.647061,39.925 C231.747061,46 230.922061,52.075 230.172061,58.15 C229.947061,59.575 229.797061,61 229.647061,62.425 C229.497061,63.475 229.047061,65.275 229.122061,66.175 C229.047061,65.8 228.972061,65.35 228.897061,64.9 C228.597061,63.25 228.147061,61.525 227.697061,59.875 C226.047061,52.975 225.072061,45.85 223.872061,38.875 L223.272061,35.35 C223.122061,34.675 223.047061,32.425 222.072061,32.425 C221.997061,32.425 221.922061,32.425 221.847061,32.5 C221.172061,32.65 221.022061,33.7 220.947061,34.3 C220.647061,37.675 219.972061,41.425 219.447061,44.875 C218.847061,49.45 218.397061,54.175 217.572061,58.75 C217.272061,60.4 217.197061,61.975 216.897061,63.55 C215.772061,55.15 214.647061,46.75 213.597061,38.35 C213.447061,36.7 213.222061,34.975 213.222061,33.325 C213.222061,32.8 213.297061,32.2 212.772061,31.975 C212.247061,31.75 211.047061,31.75 210.447061,31.75 C209.772061,31.75 209.547061,32.125 209.022061,32.35 C209.097061,32.65 209.022061,32.95 209.097061,33.25 C209.097061,34.6 209.397061,36.1 209.547061,37.45 C209.997061,41.05 210.372061,44.65 210.822061,48.325 C211.872061,55.825 212.922061,63.4 214.272061,70.9 C214.497061,71.95 214.947061,72.85 216.147061,72.85 C217.347061,72.85 216.822061,72.175 217.197061,71.575 C217.197061,70.6 217.722061,68.5 217.947061,67.45 C218.247061,65.65 218.622061,63.85 218.847061,62.05 L219.972061,53.725 C220.197061,52.15 220.572061,50.575 220.722061,49 C221.022061,45.55 221.547061,42.1 222.222061,38.725 C222.522061,40.225 222.747061,41.875 222.972061,43.45 C223.347061,45.775 223.872061,48.1 224.247061,50.5 C224.997061,55.375 226.122061,60.175 227.172061,64.975 C227.547061,66.7 227.997061,68.5 228.297061,70.225 C228.372061,70.825 228.747061,72.4 229.422061,72.4 L229.497061,72.4 Z M239.313237,22.45 C239.238237,26.875 239.088237,31.375 239.088237,35.8 C239.088237,43 239.763237,50.2 239.763237,57.4 C239.763237,58.975 239.238237,60.4 241.413237,60.4 C241.713237,60.4 242.088237,60.325 242.388237,60.25 C243.063237,60.025 242.913237,59.575 242.913237,58.975 C242.988237,58.225 243.063237,57.475 243.063237,56.725 C243.063237,50.2 243.663237,43.6 243.663237,37.075 C243.663237,35.425 243.588237,33.775 243.588237,32.125 C243.588237,27.25 243.663237,22.375 243.438237,17.575 C243.363237,16.525 242.313237,16.075 241.413237,16.075 C240.363237,16.075 239.088237,16.675 239.088237,17.875 C239.088237,19.375 239.163237,20.95 239.238237,22.45 L239.313237,22.45 Z M243.888237,69.85 C243.888237,68.575 242.688237,67.3 241.413237,67.3 C239.613237,67.3 238.713237,68.275 238.713237,70.075 C238.713237,71.35 239.538237,73 241.038237,73 C242.688237,73 243.888237,71.425 243.888237,69.85 Z" id="Buy-Now!" fill="#FFFFFF"></path>
                    </g>
                </g>
            </g>
        </g>
    </g>
</svg>