<?xml version="1.0" encoding="UTF-8"?>
<svg width="53px" height="53px" viewBox="0 0 53 53" version="1.1" xmlns="http://www.w3.org/2000/svg" xmlns:xlink="http://www.w3.org/1999/xlink">
    <!-- Generator: Sketch 41.1 (35376) - http://www.bohemiancoding.com/sketch -->
    <title>facebook-icon</title>
    <desc>Created with Sketch.</desc>
    <defs></defs>
    <g id="Page-1" stroke="none" stroke-width="1" fill="none" fill-rule="evenodd">
        <g id="Desktop-HD" transform="translate(-720.000000, -455.000000)">
            <g id="facebook-icon" transform="translate(720.000000, 455.000000)">
                <circle id="Oval" fill="#D72B7D" cx="26.5" cy="26.5" r="26.5"></circle>
                <path d="M37,7.28125 L37,13.46875 L33.3657407,13.46875 C32.0385802,13.46875 31.1435185,13.75 30.6805556,14.3125 C30.2175926,14.875 29.9861111,15.71875 29.9861111,16.84375 L29.9861111,21.2734375 L36.7685185,21.2734375 L35.8657407,28.2109375 L29.9861111,28.2109375 L29.9861111,46 L22.9027778,46 L22.9027778,28.2109375 L17,28.2109375 L17,21.2734375 L22.9027778,21.2734375 L22.9027778,16.1640625 C22.9027778,13.2578125 23.7052469,11.0039062 25.3101852,9.40234375 C26.9151235,7.80078125 29.0524691,7 31.7222222,7 C33.9907407,7 35.75,7.09375 37,7.28125 Z" id="Shape" fill="#FFFFFF"></path>
            </g>
        </g>
    </g>
</svg>