<?xml version="1.0" encoding="UTF-8"?>
<svg width="53px" height="53px" viewBox="0 0 53 53" version="1.1" xmlns="http://www.w3.org/2000/svg" xmlns:xlink="http://www.w3.org/1999/xlink">
    <!-- Generator: Sketch 41.1 (35376) - http://www.bohemiancoding.com/sketch -->
    <title>instagram-icon</title>
    <desc>Created with Sketch.</desc>
    <defs></defs>
    <g id="Page-1" stroke="none" stroke-width="1" fill="none" fill-rule="evenodd">
        <g id="Desktop-HD" transform="translate(-633.000000, -455.000000)">
            <g id="instagram-icon" transform="translate(633.000000, 455.000000)">
                <circle id="Oval" fill="#D72B7D" cx="26.5" cy="26.5" r="26.5"></circle>
                <path d="M37.2479516,36.0899231 L37.2479516,24.364885 L34.8052353,24.364885 C35.0464913,25.1248412 35.1671192,25.9149544 35.1671192,26.7352245 C35.1671192,28.2551369 34.7811097,29.657437 34.0090908,30.9421248 C33.2370718,32.2268126 32.1876085,33.2431032 30.8607009,33.9909966 C29.5337933,34.7388899 28.0862577,35.1128366 26.5180942,35.1128366 C24.1417233,35.1128366 22.1091421,34.2955822 20.4203506,32.6610733 C18.7315591,31.0265644 17.8871634,29.0512814 17.8871634,26.7352245 C17.8871634,25.9149544 18.0077913,25.1248412 18.2490473,24.364885 L15.6977658,24.364885 L15.6977658,36.0899231 C15.6977658,36.4035559 15.8033153,36.6659217 16.0144142,36.8770206 C16.2255132,37.0881195 16.487879,37.193669 16.8015117,37.193669 L36.1442057,37.193669 C36.4457756,37.193669 36.7051258,37.0881195 36.9222561,36.8770206 C37.1393864,36.6659217 37.2479516,36.4035559 37.2479516,36.0899231 Z M32.1092003,26.4457174 C32.1092003,24.9499307 31.5633588,23.6742899 30.4716757,22.6187953 C29.3799926,21.5633006 28.0621321,21.0355532 26.5180942,21.0355532 C24.9861191,21.0355532 23.6742899,21.5633006 22.5826069,22.6187953 C21.4909238,23.6742899 20.9450823,24.9499307 20.9450823,26.4457174 C20.9450823,27.9415042 21.4909238,29.2171449 22.5826069,30.2726396 C23.6742899,31.3281343 24.9861191,31.8558816 26.5180942,31.8558816 C28.0621321,31.8558816 29.3799926,31.3281343 30.4716757,30.2726396 C31.5633588,29.2171449 32.1092003,27.9415042 32.1092003,26.4457174 Z M37.2479516,19.9318074 L37.2479516,16.9462652 C37.2479516,16.6085069 37.1273236,16.3159841 36.8860677,16.0686968 C36.6448118,15.8214095 36.3492733,15.6977658 35.9994522,15.6977658 L32.8510623,15.6977658 C32.5012412,15.6977658 32.2057027,15.8214095 31.9644468,16.0686968 C31.7231908,16.3159841 31.6025629,16.6085069 31.6025629,16.9462652 L31.6025629,19.9318074 C31.6025629,20.2816285 31.7231908,20.577167 31.9644468,20.8184229 C32.2057027,21.0596788 32.5012412,21.1803068 32.8510623,21.1803068 L35.9994522,21.1803068 C36.3492733,21.1803068 36.6448118,21.0596788 36.8860677,20.8184229 C37.1273236,20.577167 37.2479516,20.2816285 37.2479516,19.9318074 Z M40.3963415,16.1682149 L40.3963415,36.8317851 C40.3963415,37.8088716 40.0465204,38.647236 39.3468782,39.3468782 C38.647236,40.0465204 37.8088716,40.3963415 36.8317851,40.3963415 L16.1682149,40.3963415 C15.1911284,40.3963415 14.352764,40.0465204 13.6531218,39.3468782 C12.9534796,38.647236 12.6036585,37.8088716 12.6036585,36.8317851 L12.6036585,16.1682149 C12.6036585,15.1911284 12.9534796,14.352764 13.6531218,13.6531218 C14.352764,12.9534796 15.1911284,12.6036585 16.1682149,12.6036585 L36.8317851,12.6036585 C37.8088716,12.6036585 38.647236,12.9534796 39.3468782,13.6531218 C40.0465204,14.352764 40.3963415,15.1911284 40.3963415,16.1682149 Z" id="Shape" fill="#FFFFFF"></path>
            </g>
        </g>
    </g>
</svg>