<?xml version="1.0" encoding="UTF-8"?>
<svg width="213px" height="57px" viewBox="0 0 213 57" version="1.1" xmlns="http://www.w3.org/2000/svg" xmlns:xlink="http://www.w3.org/1999/xlink">
    <!-- Generator: Sketch 41.1 (35376) - http://www.bohemiancoding.com/sketch -->
    <title>latest-post</title>
    <desc>Created with Sketch.</desc>
    <defs></defs>
    <g id="Page-1" stroke="none" stroke-width="1" fill="none" fill-rule="evenodd">
        <g id="Desktop-HD" transform="translate(-177.000000, -3388.000000)" fill="#C47878">
            <path d="M190.032,3444 C190.464,3444 192.048,3444.288 192.048,3443.568 C192.048,3442.776 192.048,3442.344 191.04,3442.344 C188.016,3442.344 184.992,3442.416 181.968,3442.416 C181.968,3441.048 181.896,3439.752 181.896,3438.384 L181.896,3428.304 C181.896,3424.92 181.968,3421.536 181.968,3418.152 C181.968,3415.848 181.896,3413.472 181.896,3411.168 L181.896,3399.576 C181.896,3398.496 181.968,3389.856 181.824,3389.568 C181.68,3389.28 178.368,3389.352 177.792,3389.352 C177.144,3389.352 177.36,3390.648 177.36,3391.08 C177.36,3398.136 177.216,3405.12 177.216,3412.176 L177.216,3421.176 C177.216,3426.936 177.36,3432.696 177.36,3438.384 C177.36,3439.248 177.072,3443.64 177.792,3443.928 C178.08,3444.072 178.728,3444.072 179.016,3444.072 C180.816,3444.072 182.544,3444 184.344,3444 L190.032,3444 Z M202.83953,3389.352 C202.26353,3389.352 201.68753,3389.424 201.03953,3389.424 C200.03153,3389.424 199.88753,3389.784 199.74353,3390.72 C199.31153,3393.672 199.09553,3396.624 198.73553,3399.576 L195.63953,3428.592 L194.70353,3436.872 L194.12753,3442.128 C194.05553,3442.416 193.98353,3442.92 193.98353,3443.208 C193.98353,3444.072 195.78353,3444.072 196.35953,3444.072 C197.22353,3444.072 198.23153,3444.072 199.09553,3444 C199.52753,3443.928 199.59953,3443.64 199.59953,3443.28 C199.59953,3440.4 199.88753,3437.448 200.10353,3434.64 C200.46353,3430.968 200.75153,3427.296 201.11153,3423.624 C201.18353,3423.048 201.18353,3422.472 201.32753,3421.896 C203.41553,3421.896 205.43153,3421.896 207.51953,3421.824 C208.09553,3425.928 208.74353,3429.96 209.17553,3433.992 C209.46353,3436.872 209.75153,3440.256 210.47153,3442.992 C210.61553,3443.712 210.75953,3443.928 211.47953,3443.928 C211.83953,3443.928 212.48753,3443.928 212.48753,3443.496 C212.48753,3442.416 212.19953,3441.192 211.98353,3440.04 L211.11953,3433.992 L209.17553,3419.088 C208.81553,3415.992 208.59953,3412.896 208.09553,3409.8 C207.37553,3404.544 206.79953,3399.216 205.93553,3393.96 C205.79153,3392.808 205.64753,3391.44 205.28753,3390.216 C205.21553,3390 205.07153,3389.712 204.78353,3389.568 C204.42353,3389.424 203.34353,3389.352 202.83953,3389.352 Z M203.91953,3394.752 C204.92753,3403.176 206.36753,3411.6 207.30353,3420.024 L206.43953,3420.024 C204.78353,3420.096 203.12753,3419.952 201.47153,3420.024 C202.33553,3411.6 202.91153,3403.176 203.91953,3394.752 Z M231.12706,3391.44 C232.13506,3391.44 234.15106,3391.872 234.15106,3390.36 L234.15106,3390.288 C233.93506,3389.784 233.21506,3389.784 232.78306,3389.784 C230.69506,3389.784 228.67906,3389.856 226.59106,3389.784 C225.22306,3389.712 223.85506,3389.568 222.55906,3389.568 L214.99906,3389.568 C214.20706,3389.568 213.91906,3389.64 213.91906,3390.432 C213.91906,3390.936 214.42306,3391.152 214.85506,3391.224 C216.65506,3391.296 218.45506,3391.44 220.18306,3391.368 L221.11906,3391.368 C221.11906,3393.024 221.19106,3394.68 221.26306,3396.336 C221.40706,3399.072 221.40706,3401.88 221.55106,3404.616 C221.98306,3416.928 222.34306,3429.312 222.34306,3441.696 C222.34306,3442.272 222.19906,3442.848 222.19906,3443.424 C222.19906,3443.64 222.27106,3443.784 222.48706,3443.928 C222.84706,3444.216 225.87106,3444.144 226.59106,3444.144 C227.38306,3444.144 227.67106,3443.856 227.67106,3443.064 C227.67106,3442.056 227.59906,3441.048 227.59906,3440.112 C227.59906,3429.528 227.38306,3418.944 227.31106,3408.36 C227.23906,3402.744 226.80706,3397.128 226.80706,3391.44 L231.12706,3391.44 Z M252.430589,3441.84 C252.070589,3441.624 250.630589,3441.768 250.198589,3441.768 C247.750589,3441.768 245.230589,3441.768 242.782589,3441.696 C242.782589,3436.44 242.710589,3431.184 242.710589,3425.928 C242.710589,3423.12 242.710589,3420.24 242.782589,3417.432 L243.790589,3417.432 C245.230589,3417.432 248.182589,3417.432 249.550589,3417.144 C250.054589,3417.072 250.342589,3416.784 250.342589,3416.28 C250.342589,3415.488 249.838589,3415.272 249.118589,3415.272 C248.110589,3415.272 247.102589,3415.416 246.022589,3415.416 C244.942589,3415.416 243.862589,3415.344 242.782589,3415.344 C242.782589,3412.896 242.854589,3410.448 242.854589,3408 C242.854589,3402.6 242.854589,3397.128 242.638589,3391.728 L243.718589,3391.728 C246.238589,3391.8 248.830589,3391.656 251.422589,3391.656 C251.998589,3391.656 252.070589,3391.08 252.070589,3390.648 C252.070589,3390.288 251.998589,3389.856 251.998589,3389.496 C251.998589,3389.424 251.278589,3389.424 251.206589,3389.424 C250.198589,3389.424 249.262589,3389.352 248.326589,3389.352 C245.230589,3389.352 242.134589,3389.424 239.038589,3389.424 C237.958589,3389.424 237.382589,3390.144 237.310589,3391.152 L237.310589,3393.024 C237.310589,3396.264 237.526589,3399.504 237.526589,3402.672 C237.526589,3413.832 237.310589,3424.992 237.310589,3436.152 C237.310589,3438.744 237.310589,3441.336 237.454589,3443.928 C237.598589,3444.072 237.814589,3444.072 237.958589,3444.072 L251.782589,3444.072 C252.358589,3444.072 252.502589,3443.64 252.502589,3443.136 C252.502589,3442.704 252.430589,3442.272 252.430589,3441.84 Z M260.774119,3395.976 C260.774119,3395.04 260.918119,3394.032 261.566119,3393.24 C262.358119,3392.232 263.582119,3391.368 264.950119,3391.368 C269.126119,3391.368 269.918119,3397.776 269.918119,3400.872 C269.918119,3401.16 269.846119,3401.376 269.846119,3401.664 C269.846119,3402.312 270.350119,3402.96 271.070119,3402.96 C272.150119,3402.96 272.222119,3400.944 272.222119,3400.224 C272.222119,3395.832 270.566119,3389.712 265.382119,3389.064 C264.878119,3388.992 264.446119,3388.92 264.014119,3388.92 C263.654119,3388.92 263.222119,3388.992 262.862119,3389.064 C259.118119,3390.504 256.958119,3395.544 256.958119,3399.216 C256.958119,3400.296 257.102119,3401.304 257.390119,3402.312 C258.326119,3405.84 259.622119,3409.296 261.206119,3412.608 C262.142119,3414.624 263.078119,3416.64 264.086119,3418.584 C264.590119,3419.592 265.238119,3420.6 265.670119,3421.608 C267.830119,3425.928 268.766119,3429.24 268.766119,3434.136 C268.766119,3436.44 268.262119,3439.824 266.030119,3441.12 C265.310119,3441.624 264.518119,3441.552 263.654119,3441.552 C261.638119,3441.552 259.406119,3434.568 258.830119,3432.984 C258.614119,3432.336 258.254119,3431.256 257.462119,3431.256 C256.742119,3431.256 256.382119,3431.904 256.382119,3432.552 C256.382119,3432.912 256.814119,3434.784 257.030119,3435.072 C257.678119,3437.448 258.902119,3439.68 260.198119,3441.696 C261.134119,3443.136 262.502119,3444 264.158119,3444 C265.022119,3444 265.742119,3443.928 266.534119,3443.64 L266.606119,3443.64 L266.678119,3443.568 C267.038119,3443.352 267.470119,3443.208 267.902119,3442.992 C271.790119,3440.472 272.726119,3436.152 272.726119,3431.832 C272.726119,3428.088 270.998119,3422.544 269.414119,3419.16 C267.110119,3414.336 264.878119,3409.512 262.646119,3404.616 C261.350119,3401.952 260.774119,3398.928 260.774119,3395.976 Z M291.293649,3391.44 C292.301649,3391.44 294.317649,3391.872 294.317649,3390.36 L294.317649,3390.288 C294.101649,3389.784 293.381649,3389.784 292.949649,3389.784 C290.861649,3389.784 288.845649,3389.856 286.757649,3389.784 C285.389649,3389.712 284.021649,3389.568 282.725649,3389.568 L275.165649,3389.568 C274.373649,3389.568 274.085649,3389.64 274.085649,3390.432 C274.085649,3390.936 274.589649,3391.152 275.021649,3391.224 C276.821649,3391.296 278.621649,3391.44 280.349649,3391.368 L281.285649,3391.368 C281.285649,3393.024 281.357649,3394.68 281.429649,3396.336 C281.573649,3399.072 281.573649,3401.88 281.717649,3404.616 C282.149649,3416.928 282.509649,3429.312 282.509649,3441.696 C282.509649,3442.272 282.365649,3442.848 282.365649,3443.424 C282.365649,3443.64 282.437649,3443.784 282.653649,3443.928 C283.013649,3444.216 286.037649,3444.144 286.757649,3444.144 C287.549649,3444.144 287.837649,3443.856 287.837649,3443.064 C287.837649,3442.056 287.765649,3441.048 287.765649,3440.112 C287.765649,3429.528 287.549649,3418.944 287.477649,3408.36 C287.405649,3402.744 286.973649,3397.128 286.973649,3391.44 L291.293649,3391.44 Z M327.132708,3405.552 C327.132708,3399.576 325.044708,3394.464 319.716708,3391.44 C317.268708,3390.072 313.668708,3390 311.004708,3390 C309.204708,3390 308.124708,3389.784 308.124708,3391.944 C308.124708,3392.88 308.268708,3393.744 308.268708,3394.608 L308.268708,3401.16 C308.268708,3402.384 308.196708,3403.68 308.196708,3404.904 L308.196708,3425.856 C308.196708,3428.592 307.980708,3431.4 307.980708,3434.136 L307.980708,3442.272 C307.980708,3444.216 309.420708,3444 310.860708,3444 C312.516708,3444 313.596708,3444.072 313.596708,3442.056 C313.596708,3439.68 313.452708,3437.376 313.452708,3435 C313.380708,3434.856 313.380708,3434.64 313.380708,3434.424 C313.380708,3431.472 313.596708,3428.52 313.596708,3425.568 C313.596708,3424.848 313.812708,3424.56 314.460708,3424.272 C315.972708,3423.696 317.556708,3423.336 318.924708,3422.4 C324.468708,3418.512 326.196708,3414.408 326.988708,3407.856 C327.060708,3407.064 327.132708,3406.272 327.132708,3405.552 Z M313.452708,3413.4 C313.452708,3410.88 313.596708,3408.288 313.524708,3405.768 C313.452708,3401.16 313.092708,3396.624 313.020708,3392.088 L314.028708,3392.088 C316.548708,3392.088 318.780708,3393.24 320.652708,3394.896 C323.748708,3397.632 324.540708,3401.304 324.540708,3405.336 C324.540708,3408.288 324.036708,3411.24 323.028708,3413.976 C322.236708,3416.136 320.724708,3417.576 318.996708,3419.016 C317.628708,3420.24 315.396708,3421.464 313.596708,3421.896 C313.524708,3420.096 313.452708,3418.368 313.452708,3416.568 L313.452708,3413.4 Z M340.012238,3388.848 C337.492238,3388.848 335.548238,3390.936 334.180238,3392.88 C329.860238,3399 328.852238,3411.384 328.852238,3418.728 C328.852238,3425.352 329.788238,3434.64 333.532238,3440.184 C334.612238,3441.84 336.124238,3443.712 338.356238,3443.712 C340.084238,3443.712 342.244238,3442.704 343.324238,3441.336 C346.636238,3436.8 348.796238,3425.424 349.012238,3419.808 C349.084238,3417.72 349.084238,3415.632 349.084238,3413.544 C349.084238,3408.288 349.516238,3399.216 346.780238,3394.752 C345.772238,3393.096 344.836238,3391.44 343.324238,3390.216 C342.244238,3389.352 341.452238,3388.848 340.012238,3388.848 Z M347.428238,3411.312 C347.428238,3419.16 346.996238,3427.08 344.404238,3434.496 C343.828238,3436.152 342.460238,3441.048 340.372238,3441.048 C339.220238,3441.048 338.428238,3438.96 338.068238,3438.096 C335.332238,3432.264 334.036238,3421.968 334.036238,3415.416 C334.036238,3410.52 335.548238,3393.888 340.732238,3391.944 C340.876238,3391.872 341.092238,3391.8 341.236238,3391.8 C342.244238,3391.8 343.180238,3392.88 343.756238,3393.528 C347.500238,3398.064 347.428238,3405.768 347.428238,3411.312 Z M356.203768,3395.976 C356.203768,3395.04 356.347768,3394.032 356.995768,3393.24 C357.787768,3392.232 359.011768,3391.368 360.379768,3391.368 C364.555768,3391.368 365.347768,3397.776 365.347768,3400.872 C365.347768,3401.16 365.275768,3401.376 365.275768,3401.664 C365.275768,3402.312 365.779768,3402.96 366.499768,3402.96 C367.579768,3402.96 367.651768,3400.944 367.651768,3400.224 C367.651768,3395.832 365.995768,3389.712 360.811768,3389.064 C360.307768,3388.992 359.875768,3388.92 359.443768,3388.92 C359.083768,3388.92 358.651768,3388.992 358.291768,3389.064 C354.547768,3390.504 352.387768,3395.544 352.387768,3399.216 C352.387768,3400.296 352.531768,3401.304 352.819768,3402.312 C353.755768,3405.84 355.051768,3409.296 356.635768,3412.608 C357.571768,3414.624 358.507768,3416.64 359.515768,3418.584 C360.019768,3419.592 360.667768,3420.6 361.099768,3421.608 C363.259768,3425.928 364.195768,3429.24 364.195768,3434.136 C364.195768,3436.44 363.691768,3439.824 361.459768,3441.12 C360.739768,3441.624 359.947768,3441.552 359.083768,3441.552 C357.067768,3441.552 354.835768,3434.568 354.259768,3432.984 C354.043768,3432.336 353.683768,3431.256 352.891768,3431.256 C352.171768,3431.256 351.811768,3431.904 351.811768,3432.552 C351.811768,3432.912 352.243768,3434.784 352.459768,3435.072 C353.107768,3437.448 354.331768,3439.68 355.627768,3441.696 C356.563768,3443.136 357.931768,3444 359.587768,3444 C360.451768,3444 361.171768,3443.928 361.963768,3443.64 L362.035768,3443.64 L362.107768,3443.568 C362.467768,3443.352 362.899768,3443.208 363.331768,3442.992 C367.219768,3440.472 368.155768,3436.152 368.155768,3431.832 C368.155768,3428.088 366.427768,3422.544 364.843768,3419.16 C362.539768,3414.336 360.307768,3409.512 358.075768,3404.616 C356.779768,3401.952 356.203768,3398.928 356.203768,3395.976 Z M386.723298,3391.44 C387.731298,3391.44 389.747298,3391.872 389.747298,3390.36 L389.747298,3390.288 C389.531298,3389.784 388.811298,3389.784 388.379298,3389.784 C386.291298,3389.784 384.275298,3389.856 382.187298,3389.784 C380.819298,3389.712 379.451298,3389.568 378.155298,3389.568 L370.595298,3389.568 C369.803298,3389.568 369.515298,3389.64 369.515298,3390.432 C369.515298,3390.936 370.019298,3391.152 370.451298,3391.224 C372.251298,3391.296 374.051298,3391.44 375.779298,3391.368 L376.715298,3391.368 C376.715298,3393.024 376.787298,3394.68 376.859298,3396.336 C377.003298,3399.072 377.003298,3401.88 377.147298,3404.616 C377.579298,3416.928 377.939298,3429.312 377.939298,3441.696 C377.939298,3442.272 377.795298,3442.848 377.795298,3443.424 C377.795298,3443.64 377.867298,3443.784 378.083298,3443.928 C378.443298,3444.216 381.467298,3444.144 382.187298,3444.144 C382.979298,3444.144 383.267298,3443.856 383.267298,3443.064 C383.267298,3442.056 383.195298,3441.048 383.195298,3440.112 C383.195298,3429.528 382.979298,3418.944 382.907298,3408.36 C382.835298,3402.744 382.403298,3397.128 382.403298,3391.44 L386.723298,3391.44 Z" id="latest-post"></path>
        </g>
    </g>
</svg>