<?xml version="1.0" encoding="UTF-8"?>
<svg width="851px" height="119px" viewBox="0 0 851 119" version="1.1" xmlns="http://www.w3.org/2000/svg" xmlns:xlink="http://www.w3.org/1999/xlink">
    <!-- Generator: Sketch 41.1 (35376) - http://www.bohemiancoding.com/sketch -->
    <title>order-title</title>
    <desc>Created with Sketch.</desc>
    <defs></defs>
    <g id="Page-1" stroke="none" stroke-width="1" fill="none" fill-rule="evenodd">
        <g id="Desktop-HD" transform="translate(-277.000000, -2059.000000)" fill="#C47878">
            <g id="Group-8" transform="translate(0.000000, 756.000000)">
                <g id="Book" transform="translate(0.000000, 927.000000)">
                    <g id="Preorder-Popup" transform="translate(161.000000, 324.000000)">
                        <path d="M138.896,59.946 C133.856,59.946 129.968,64.122 127.232,68.01 C118.592,80.25 116.576,105.018 116.576,119.706 C116.576,132.954 118.448,151.53 125.936,162.618 C128.096,165.93 131.12,169.674 135.584,169.674 C139.04,169.674 143.36,167.658 145.52,164.922 C152.144,155.85 156.464,133.098 156.896,121.866 C157.04,117.69 157.04,113.514 157.04,109.338 C157.04,98.826 157.904,80.682 152.432,71.754 C150.416,68.442 148.544,65.13 145.52,62.682 C143.36,60.954 141.776,59.946 138.896,59.946 Z M153.728,104.874 C153.728,120.57 152.864,136.41 147.68,151.242 C146.528,154.554 143.792,164.346 139.616,164.346 C137.312,164.346 135.728,160.17 135.008,158.442 C129.536,146.778 126.944,126.186 126.944,113.082 C126.944,103.29 129.968,70.026 140.336,66.138 C140.624,65.994 141.056,65.85 141.344,65.85 C143.36,65.85 145.232,68.01 146.384,69.306 C153.872,78.378 153.728,93.786 153.728,104.874 Z M163.35906,91.05 C162.63906,94.65 162.92706,98.106 162.78306,101.85 C162.63906,109.77 162.78306,117.834 162.78306,125.754 C162.78306,130.506 162.92706,135.258 162.92706,140.01 C162.92706,148.65 162.35106,157.434 162.35106,166.074 C162.35106,168.81 164.51106,170.25 167.10306,170.25 C169.83906,170.25 171.42306,169.242 171.42306,166.506 C171.42306,148.794 169.26306,107.178 182.36706,96.666 C183.23106,95.946 184.23906,95.37 185.53506,95.37 C192.44706,95.37 189.13506,106.602 192.44706,106.602 C193.88706,106.602 194.46306,105.594 194.46306,104.154 C194.46306,98.682 191.43906,90.762 184.81506,90.762 C183.51906,90.762 182.22306,91.194 181.07106,91.914 C174.59106,95.946 173.29506,101.706 170.70306,108.33 C170.99106,103.578 171.42306,98.826 171.71106,94.218 L171.71106,93.498 C171.71106,91.77 170.99106,89.61 168.83106,89.61 C167.82306,89.61 164.65506,90.618 163.35906,91.05 Z M230.734119,134.97 C230.734119,128.058 231.022119,121.146 231.022119,114.234 C231.022119,104.01 230.734119,93.93 230.734119,83.706 C230.734119,73.914 231.022119,63.978 231.022119,54.186 C231.022119,52.746 228.718119,53.034 227.710119,53.034 C226.558119,53.034 225.406119,52.89 224.254119,52.89 C223.822119,52.89 223.534119,53.034 223.390119,53.61 C223.102119,54.33 223.102119,60.09 223.102119,60.522 C222.814119,71.466 222.382119,82.266 222.526119,93.21 C221.086119,92.778 219.502119,92.49 217.918119,92.49 C208.126119,92.49 204.238119,101.706 200.926119,109.482 C197.758119,117.114 196.174119,127.05 196.174119,135.258 C196.174119,146.49 198.910119,170.106 214.030119,170.106 C219.070119,170.106 222.526119,163.338 224.398119,159.594 C224.830119,162.186 225.406119,165.066 226.414119,167.658 C226.990119,168.954 228.286119,169.818 229.726119,169.818 C231.454119,169.818 232.462119,168.666 232.462119,167.082 C232.462119,162.762 231.454119,157.578 231.166119,153.114 C230.878119,147.066 230.734119,141.018 230.734119,134.97 Z M223.534119,150.81 C223.534119,150.81 222.958119,152.826 222.814119,152.97 C221.662119,157.146 220.510119,159.162 217.630119,162.474 C216.478119,163.914 214.750119,165.642 212.734119,165.642 C210.862119,165.642 209.278119,164.346 207.982119,163.05 C201.214119,156.714 200.062119,144.474 200.062119,135.69 C200.062119,130.794 200.638119,125.898 201.790119,121.146 C203.374119,113.658 208.702119,96.378 218.350119,96.378 C219.790119,96.378 221.230119,96.81 222.526119,97.386 C222.382119,104.298 222.382119,111.066 222.382119,117.978 C222.382119,127.626 222.814119,137.562 223.246119,147.354 C223.246119,148.506 223.534119,149.658 223.534119,150.81 Z M271.469179,155.85 C267.437179,155.85 268.157179,165.354 260.669179,165.354 C250.157179,165.354 248.285179,143.754 248.285179,136.41 C248.285179,130.074 248.861179,123.738 250.013179,117.546 L258.797179,116.826 C261.533179,116.682 269.741179,117.114 271.181179,114.378 C272.045179,112.65 272.045179,110.49 272.045179,108.618 C272.045179,100.698 268.733179,91.338 259.517179,91.338 C241.373179,91.338 239.645179,127.05 239.645179,139.722 C239.645179,151.098 243.245179,170.25 257.789179,170.25 C262.541179,170.25 265.133179,169.962 268.877179,166.938 C270.461179,165.498 273.053179,159.594 273.053179,157.434 C273.053179,156.57 272.621179,155.85 271.469179,155.85 Z M260.525179,95.082 C266.573179,95.082 268.301179,103.002 268.301179,107.898 C268.301179,108.762 268.157179,111.786 267.581179,112.362 C267.437179,112.362 251.741179,113.658 250.589179,113.658 C250.589179,109.914 255.197179,95.946 259.229179,95.226 C259.661179,95.082 260.093179,95.082 260.525179,95.082 Z M278.220238,91.05 C277.500238,94.65 277.788238,98.106 277.644238,101.85 C277.500238,109.77 277.644238,117.834 277.644238,125.754 C277.644238,130.506 277.788238,135.258 277.788238,140.01 C277.788238,148.65 277.212238,157.434 277.212238,166.074 C277.212238,168.81 279.372238,170.25 281.964238,170.25 C284.700238,170.25 286.284238,169.242 286.284238,166.506 C286.284238,148.794 284.124238,107.178 297.228238,96.666 C298.092238,95.946 299.100238,95.37 300.396238,95.37 C307.308238,95.37 303.996238,106.602 307.308238,106.602 C308.748238,106.602 309.324238,105.594 309.324238,104.154 C309.324238,98.682 306.300238,90.762 299.676238,90.762 C298.380238,90.762 297.084238,91.194 295.932238,91.914 C289.452238,95.946 288.156238,101.706 285.564238,108.33 C285.852238,103.578 286.284238,98.826 286.572238,94.218 L286.572238,93.498 C286.572238,91.77 285.852238,89.61 283.692238,89.61 C282.684238,89.61 279.516238,90.618 278.220238,91.05 Z M349.898357,60.954 C348.746357,60.954 347.594357,61.098 346.298357,61.098 C344.282357,61.098 343.994357,61.818 343.706357,63.69 C342.842357,69.594 342.410357,75.498 341.690357,81.402 L335.498357,139.434 L333.626357,155.994 L332.474357,166.506 C332.330357,167.082 332.186357,168.09 332.186357,168.666 C332.186357,170.394 335.786357,170.394 336.938357,170.394 C338.666357,170.394 340.682357,170.394 342.410357,170.25 C343.274357,170.106 343.418357,169.53 343.418357,168.81 C343.418357,163.05 343.994357,157.146 344.426357,151.53 C345.146357,144.186 345.722357,136.842 346.442357,129.498 C346.586357,128.346 346.586357,127.194 346.874357,126.042 C351.050357,126.042 355.082357,126.042 359.258357,125.898 C360.410357,134.106 361.706357,142.17 362.570357,150.234 C363.146357,155.994 363.722357,162.762 365.162357,168.234 C365.450357,169.674 365.738357,170.106 367.178357,170.106 C367.898357,170.106 369.194357,170.106 369.194357,169.242 C369.194357,167.082 368.618357,164.634 368.186357,162.33 L366.458357,150.234 L362.570357,120.426 C361.850357,114.234 361.418357,108.042 360.410357,101.85 C358.970357,91.338 357.818357,80.682 356.090357,70.17 C355.802357,67.866 355.514357,65.13 354.794357,62.682 C354.650357,62.25 354.362357,61.674 353.786357,61.386 C353.066357,61.098 350.906357,60.954 349.898357,60.954 Z M352.058357,71.754 C354.074357,88.602 356.954357,105.45 358.826357,122.298 L357.098357,122.298 C353.786357,122.442 350.474357,122.154 347.162357,122.298 C348.890357,105.45 350.042357,88.602 352.058357,71.754 Z M400.281417,94.506 C396.969417,94.506 393.513417,94.65 390.201417,94.65 L390.201417,92.49 C390.345417,89.61 390.489417,86.73 390.777417,83.85 C391.065417,81.402 391.497417,78.954 391.497417,76.506 C391.497417,73.914 389.625417,73.482 387.465417,73.482 C386.601417,73.482 383.289417,73.77 383.001417,74.922 C382.137417,81.402 382.137417,88.17 381.705417,94.794 L375.945417,94.794 C374.937417,94.794 373.209417,95.082 373.209417,96.522 C373.209417,98.106 375.081417,98.97 376.377417,98.97 C378.105417,98.97 379.833417,98.538 381.561417,98.394 C381.129417,104.442 380.841417,110.634 380.841417,116.682 C380.841417,122.442 380.553417,128.346 380.553417,134.106 C380.553417,138.138 380.841417,142.17 380.841417,146.202 C380.841417,154.122 381.561417,170.394 392.649417,170.394 C398.265417,170.394 398.697417,167.658 400.281417,163.194 L400.281417,162.906 C400.281417,161.898 399.273417,160.602 398.265417,160.602 C395.097417,160.602 397.257417,166.65 393.513417,166.65 C388.185417,166.65 388.473417,150.522 388.473417,146.922 C388.473417,143.754 388.761417,140.73 388.905417,137.706 C389.193417,128.634 389.769417,119.418 390.201417,110.346 C390.345417,106.89 390.057417,103.434 390.057417,99.978 L390.201417,98.538 L396.393417,98.538 C398.121417,98.538 403.305417,99.114 403.305417,96.522 C403.305417,94.794 401.577417,94.506 400.281417,94.506 Z M435.527536,66.714 C436.823536,65.994 438.695536,65.994 440.135536,65.994 C446.615536,65.994 453.239536,65.994 459.719536,65.562 C460.871536,65.562 461.591536,65.13 461.591536,63.834 C461.591536,62.106 460.871536,61.098 458.999536,61.098 C456.407536,61.098 453.959536,61.818 451.367536,61.962 C447.335536,62.106 443.159536,61.962 439.127536,61.962 C437.399536,61.962 435.671536,61.818 433.943536,61.818 C430.919536,61.818 426.743536,62.826 426.743536,66.426 C426.743536,71.466 426.599536,76.506 426.599536,81.546 C426.455536,98.106 426.455536,114.522 426.455536,131.082 C426.455536,139.578 426.455536,148.074 426.599536,156.57 C426.599536,160.17 426.455536,163.77 426.743536,167.37 C426.887536,169.386 427.751536,170.538 429.767536,170.538 C430.919536,170.538 434.375536,170.538 435.239536,170.25 C436.247536,169.818 436.391536,168.522 436.391536,167.658 C436.391536,151.098 435.815536,134.538 435.527536,117.978 C435.815536,117.834 436.247536,117.69 436.679536,117.69 L440.135536,117.69 C443.591536,117.69 451.367536,117.834 454.391536,117.258 C455.399536,116.97 455.975536,116.394 455.975536,115.386 C455.975536,113.802 454.967536,113.37 453.527536,113.37 C451.079536,113.37 448.487536,113.658 446.039536,113.658 C444.887536,113.658 435.959536,113.802 435.527536,113.226 C435.383536,108.762 435.383536,104.298 435.383536,99.834 C435.383536,88.746 435.383536,77.802 435.527536,66.714 Z M468.342596,91.914 C467.622596,91.914 464.886596,92.058 464.886596,93.21 C464.886596,110.058 465.030596,127.05 464.886596,143.898 C464.886596,148.794 464.454596,153.69 464.454596,158.586 C464.454596,161.322 464.310596,163.914 464.310596,166.65 C464.310596,169.674 465.318596,170.394 468.342596,170.394 C470.070596,170.394 473.094596,170.106 473.094596,167.946 C473.094596,151.818 473.670596,135.546 473.670596,119.418 C473.670596,112.074 473.382596,104.874 473.382596,97.53 C473.382596,92.346 474.390596,91.914 468.342596,91.914 Z M469.206596,64.698 C466.182596,64.698 464.598596,68.01 464.598596,70.746 C464.598596,73.626 466.758596,77.37 469.926596,77.37 C473.094596,77.37 474.390596,73.626 474.390596,71.034 C474.390596,68.01 472.518596,64.698 469.206596,64.698 Z M483.157655,91.05 C482.437655,94.65 482.725655,98.106 482.581655,101.85 C482.437655,109.77 482.581655,117.834 482.581655,125.754 C482.581655,130.506 482.725655,135.258 482.725655,140.01 C482.725655,148.65 482.149655,157.434 482.149655,166.074 C482.149655,168.81 484.309655,170.25 486.901655,170.25 C489.637655,170.25 491.221655,169.242 491.221655,166.506 C491.221655,148.794 489.061655,107.178 502.165655,96.666 C503.029655,95.946 504.037655,95.37 505.333655,95.37 C512.245655,95.37 508.933655,106.602 512.245655,106.602 C513.685655,106.602 514.261655,105.594 514.261655,104.154 C514.261655,98.682 511.237655,90.762 504.613655,90.762 C503.317655,90.762 502.021655,91.194 500.869655,91.914 C494.389655,95.946 493.093655,101.706 490.501655,108.33 C490.789655,103.578 491.221655,98.826 491.509655,94.218 L491.509655,93.498 C491.509655,91.77 490.789655,89.61 488.629655,89.61 C487.621655,89.61 484.453655,90.618 483.157655,91.05 Z M524.180715,107.754 C524.180715,103.434 525.332715,95.802 531.092715,95.802 C536.276715,95.802 538.292715,104.586 538.292715,108.618 C538.292715,110.346 537.860715,112.074 537.860715,113.802 C537.860715,114.954 538.580715,115.386 539.732715,115.386 C541.892715,115.386 542.180715,111.498 542.180715,110.058 C542.180715,102.714 540.020715,90.906 530.516715,90.906 C520.436715,90.906 515.684715,103.722 515.684715,112.218 C515.684715,132.522 536.996715,130.794 536.996715,151.386 C536.996715,155.706 534.404715,165.786 529.076715,165.786 C525.620715,165.786 523.028715,161.466 522.452715,158.442 C521.588715,154.41 521.876715,150.234 521.876715,146.202 C521.876715,144.762 521.732715,141.45 519.572715,141.45 C517.844715,141.45 517.124715,143.898 517.124715,145.338 C517.124715,147.354 517.268715,149.514 517.412715,151.53 C517.844715,160.89 519.284715,170.106 530.948715,170.106 C541.748715,170.106 544.196715,161.322 544.196715,151.962 C544.196715,150.522 544.052715,149.082 543.908715,147.642 C543.188715,143.178 542.036715,138.57 539.732715,134.682 C538.004715,131.802 535.556715,129.498 533.252715,127.194 C527.060715,121.29 524.180715,116.682 524.180715,107.754 Z M576.147774,94.506 C572.835774,94.506 569.379774,94.65 566.067774,94.65 L566.067774,92.49 C566.211774,89.61 566.355774,86.73 566.643774,83.85 C566.931774,81.402 567.363774,78.954 567.363774,76.506 C567.363774,73.914 565.491774,73.482 563.331774,73.482 C562.467774,73.482 559.155774,73.77 558.867774,74.922 C558.003774,81.402 558.003774,88.17 557.571774,94.794 L551.811774,94.794 C550.803774,94.794 549.075774,95.082 549.075774,96.522 C549.075774,98.106 550.947774,98.97 552.243774,98.97 C553.971774,98.97 555.699774,98.538 557.427774,98.394 C556.995774,104.442 556.707774,110.634 556.707774,116.682 C556.707774,122.442 556.419774,128.346 556.419774,134.106 C556.419774,138.138 556.707774,142.17 556.707774,146.202 C556.707774,154.122 557.427774,170.394 568.515774,170.394 C574.131774,170.394 574.563774,167.658 576.147774,163.194 L576.147774,162.906 C576.147774,161.898 575.139774,160.602 574.131774,160.602 C570.963774,160.602 573.123774,166.65 569.379774,166.65 C564.051774,166.65 564.339774,150.522 564.339774,146.922 C564.339774,143.754 564.627774,140.73 564.771774,137.706 C565.059774,128.634 565.635774,119.418 566.067774,110.346 C566.211774,106.89 565.923774,103.434 565.923774,99.978 L566.067774,98.538 L572.259774,98.538 C573.987774,98.538 579.171774,99.114 579.171774,96.522 C579.171774,94.794 577.443774,94.506 576.147774,94.506 Z M607.649893,170.106 C609.089893,170.106 610.385893,169.962 611.825893,169.962 C616.145893,169.674 620.177893,169.386 624.065893,167.658 C632.129893,163.914 638.033893,155.418 638.033893,146.634 C638.033893,136.842 636.593893,132.378 630.689893,124.602 C627.521893,120.282 623.489893,118.122 618.737893,115.962 C619.457893,115.386 620.321893,114.954 621.041893,114.378 C623.345893,112.65 625.649893,110.634 627.665893,108.618 C633.137893,103.29 635.153893,93.354 635.153893,86.01 C635.153893,81.69 634.001893,77.226 632.561893,73.338 C630.401893,67.29 627.089893,62.394 620.465893,61.242 C618.305893,60.81 616.145893,60.666 613.985893,60.666 C611.825893,60.666 606.497893,60.81 604.481893,61.386 C603.329893,61.818 603.473893,65.13 603.329893,66.138 L603.329893,68.874 C603.329893,74.922 603.329893,80.97 603.185893,87.018 C602.609893,102.57 601.889893,118.122 601.889893,133.674 C601.889893,139.722 602.177893,145.626 602.177893,151.53 C602.177893,154.986 602.177893,158.586 602.033893,162.042 C602.033893,164.346 602.177893,168.09 604.337893,169.386 C605.345893,170.106 606.497893,170.106 607.649893,170.106 Z M614.129893,165.21 C613.985893,165.21 613.553893,165.21 613.409893,165.066 C612.977893,164.49 612.977893,160.314 612.977893,159.45 L612.977893,155.274 C613.409893,144.474 613.409893,133.386 613.409893,122.442 L613.409893,119.706 C613.697893,119.562 613.985893,119.562 614.273893,119.562 C615.137893,119.562 616.001893,119.706 616.721893,119.994 C621.905893,122.01 626.225893,125.034 628.817893,130.074 C631.265893,134.682 632.705893,139.146 632.705893,144.33 C632.705893,152.826 631.121893,155.85 624.785893,161.178 C622.913893,162.618 620.753893,163.338 618.737893,164.202 C617.297893,164.634 615.713893,165.21 614.129893,165.21 Z M616.721893,64.842 C627.953893,64.842 630.689893,77.514 630.689893,86.586 C630.689893,93.498 628.817893,100.554 624.065893,105.738 C621.329893,108.762 617.153893,111.066 613.697893,113.514 C613.697893,112.65 613.553893,111.786 613.553893,110.922 C613.553893,97.962 614.129893,85.002 614.129893,72.042 C614.129893,70.314 613.985893,68.73 613.985893,67.002 C613.985893,66.426 613.985893,65.706 614.129893,64.986 C614.993893,64.986 615.857893,64.842 616.721893,64.842 Z M652.704953,167.514 C652.704953,154.266 652.272953,141.018 652.272953,127.914 L652.272953,115.386 C652.272953,95.802 652.560953,76.218 652.560953,56.634 C652.560953,54.186 651.552953,54.186 649.536953,54.186 L647.088953,54.186 C645.504953,54.186 645.504953,56.202 645.504953,57.21 C645.504953,74.49 645.936953,91.626 645.936953,108.906 L645.936953,126.762 C645.936953,136.698 645.504953,146.778 645.504953,156.858 L645.504953,168.954 C645.504953,170.538 647.952953,170.538 649.104953,170.538 C652.128953,170.538 652.704953,170.97 652.704953,167.514 Z M695.744012,129.498 C695.744012,122.154 696.032012,114.954 696.320012,107.61 C696.464012,103.722 696.752012,99.834 696.752012,96.09 C696.752012,92.778 695.600012,92.202 692.576012,91.914 C691.424012,91.77 690.272012,91.194 688.832012,91.194 C686.960012,91.194 685.952012,92.058 685.952012,94.074 C685.952012,95.226 686.240012,96.378 686.240012,97.386 L686.240012,108.186 C686.240012,116.25 685.664012,124.026 685.232012,132.09 C684.944012,138.426 684.656012,165.21 675.728012,165.21 C675.008012,165.21 674.288012,164.922 673.712012,164.49 C665.936012,158.73 665.936012,138.138 665.936012,129.498 C665.936012,119.994 666.080012,110.634 666.656012,101.274 C666.800012,98.682 667.088012,96.09 667.088012,93.642 C667.088012,91.914 666.080012,90.618 664.352012,90.618 C662.192012,90.618 662.336012,95.946 662.336012,97.53 C661.904012,106.89 661.328012,116.394 661.328012,125.754 C661.328012,136.554 662.048012,155.994 667.520012,165.354 C669.392012,168.522 672.416012,170.106 676.016012,170.106 C679.472012,170.106 682.064012,168.09 684.080012,165.354 C686.960012,161.466 687.248012,156.426 688.112012,151.818 C688.832012,154.266 689.408012,161.178 689.696012,164.058 C689.984012,166.506 690.992012,169.53 694.016012,169.53 C696.464012,169.53 697.472012,167.082 697.472012,164.922 C697.472012,163.914 697.328012,162.762 697.184012,161.754 C696.896012,157.866 696.176012,154.122 696.032012,150.234 C695.888012,143.322 695.744012,136.41 695.744012,129.498 Z M713.295072,107.754 C713.295072,103.434 714.447072,95.802 720.207072,95.802 C725.391072,95.802 727.407072,104.586 727.407072,108.618 C727.407072,110.346 726.975072,112.074 726.975072,113.802 C726.975072,114.954 727.695072,115.386 728.847072,115.386 C731.007072,115.386 731.295072,111.498 731.295072,110.058 C731.295072,102.714 729.135072,90.906 719.631072,90.906 C709.551072,90.906 704.799072,103.722 704.799072,112.218 C704.799072,132.522 726.111072,130.794 726.111072,151.386 C726.111072,155.706 723.519072,165.786 718.191072,165.786 C714.735072,165.786 712.143072,161.466 711.567072,158.442 C710.703072,154.41 710.991072,150.234 710.991072,146.202 C710.991072,144.762 710.847072,141.45 708.687072,141.45 C706.959072,141.45 706.239072,143.898 706.239072,145.338 C706.239072,147.354 706.383072,149.514 706.527072,151.53 C706.959072,160.89 708.399072,170.106 720.063072,170.106 C730.863072,170.106 733.311072,161.322 733.311072,151.962 C733.311072,150.522 733.167072,149.082 733.023072,147.642 C732.303072,143.178 731.151072,138.57 728.847072,134.682 C727.119072,131.802 724.671072,129.498 722.367072,127.194 C716.175072,121.29 713.295072,116.682 713.295072,107.754 Z M760.366132,91.338 C755.326132,91.338 751.438132,94.65 748.846132,98.682 L748.846132,95.514 C748.846132,83.85 748.558132,72.186 748.558132,60.378 C748.558132,57.354 749.710132,52.746 745.390132,52.746 C744.670132,52.746 741.934132,52.89 741.214132,53.178 C740.206132,53.754 739.630132,54.33 739.486132,55.626 C739.198132,59.226 739.342132,63.258 739.342132,66.858 C739.342132,73.05 739.630132,79.386 739.630132,85.578 C739.630132,93.21 739.342132,100.986 739.198132,108.618 C739.198132,118.122 739.054132,127.482 738.766132,136.986 C738.622132,143.466 738.190132,149.946 738.190132,156.282 C738.190132,158.73 737.758132,168.954 738.766132,169.818 C739.198132,170.106 739.774132,170.106 740.206132,170.106 C742.078132,170.106 743.950132,169.962 745.822132,169.962 C746.254132,169.962 746.974132,169.962 747.262132,169.674 C747.838132,169.386 747.550132,164.202 747.550132,163.338 C747.550132,160.026 747.694132,156.858 747.694132,153.546 C747.694132,139.002 748.270132,124.602 748.558132,110.058 C748.558132,109.626 749.422132,107.178 749.566132,106.746 C751.150132,101.706 754.462132,95.946 760.510132,95.946 C762.094132,95.946 763.678132,96.378 764.830132,97.53 C768.718132,101.418 768.574132,113.802 768.574132,118.842 C768.574132,135.402 768.142132,151.818 768.142132,168.234 C768.142132,170.826 768.574132,170.25 771.166132,170.25 L771.886132,170.25 C772.606132,170.106 772.750132,169.818 772.750132,168.954 L772.750132,165.21 C772.750132,149.802 773.038132,134.25 773.038132,118.842 C773.038132,109.482 773.902132,91.338 760.366132,91.338 Z M810.588251,66.714 C811.884251,65.994 813.756251,65.994 815.196251,65.994 C821.676251,65.994 828.300251,65.994 834.780251,65.562 C835.932251,65.562 836.652251,65.13 836.652251,63.834 C836.652251,62.106 835.932251,61.098 834.060251,61.098 C831.468251,61.098 829.020251,61.818 826.428251,61.962 C822.396251,62.106 818.220251,61.962 814.188251,61.962 C812.460251,61.962 810.732251,61.818 809.004251,61.818 C805.980251,61.818 801.804251,62.826 801.804251,66.426 C801.804251,71.466 801.660251,76.506 801.660251,81.546 C801.516251,98.106 801.516251,114.522 801.516251,131.082 C801.516251,139.578 801.516251,148.074 801.660251,156.57 C801.660251,160.17 801.516251,163.77 801.804251,167.37 C801.948251,169.386 802.812251,170.538 804.828251,170.538 C805.980251,170.538 809.436251,170.538 810.300251,170.25 C811.308251,169.818 811.452251,168.522 811.452251,167.658 C811.452251,151.098 810.876251,134.538 810.588251,117.978 C810.876251,117.834 811.308251,117.69 811.740251,117.69 L815.196251,117.69 C818.652251,117.69 826.428251,117.834 829.452251,117.258 C830.460251,116.97 831.036251,116.394 831.036251,115.386 C831.036251,113.802 830.028251,113.37 828.588251,113.37 C826.140251,113.37 823.548251,113.658 821.100251,113.658 C819.948251,113.658 811.020251,113.802 810.588251,113.226 C810.444251,108.762 810.444251,104.298 810.444251,99.834 C810.444251,88.746 810.444251,77.802 810.588251,66.714 Z M840.23531,91.05 C839.51531,94.65 839.80331,98.106 839.65931,101.85 C839.51531,109.77 839.65931,117.834 839.65931,125.754 C839.65931,130.506 839.80331,135.258 839.80331,140.01 C839.80331,148.65 839.22731,157.434 839.22731,166.074 C839.22731,168.81 841.38731,170.25 843.97931,170.25 C846.71531,170.25 848.29931,169.242 848.29931,166.506 C848.29931,148.794 846.13931,107.178 859.24331,96.666 C860.10731,95.946 861.11531,95.37 862.41131,95.37 C869.32331,95.37 866.01131,106.602 869.32331,106.602 C870.76331,106.602 871.33931,105.594 871.33931,104.154 C871.33931,98.682 868.31531,90.762 861.69131,90.762 C860.39531,90.762 859.09931,91.194 857.94731,91.914 C851.46731,95.946 850.17131,101.706 847.57931,108.33 C847.86731,103.578 848.29931,98.826 848.58731,94.218 L848.58731,93.498 C848.58731,91.77 847.86731,89.61 845.70731,89.61 C844.69931,89.61 841.53131,90.618 840.23531,91.05 Z M887.88237,90.762 C885.86637,90.762 882.84237,91.482 881.25837,93.066 C874.49037,99.978 873.05037,118.554 873.05037,127.914 C873.05037,136.266 873.77037,144.618 875.21037,152.826 C876.36237,160.17 880.97037,170.106 889.75437,170.106 C894.79437,170.106 897.81837,167.514 899.83437,163.05 C904.01037,153.834 906.17037,143.322 906.17037,133.242 C906.17037,122.874 905.73837,109.626 900.41037,100.554 C897.53037,95.802 894.07437,90.762 887.88237,90.762 Z M892.20237,164.778 C890.04237,164.778 888.17037,161.754 887.16237,160.17 C884.13837,154.842 882.55437,139.866 882.55437,133.53 C882.55437,127.914 882.55437,96.09 890.18637,96.09 C891.33837,96.09 893.64237,97.818 894.50637,98.682 C902.13837,106.602 903.00237,121.29 903.00237,131.658 C903.00237,134.826 902.85837,137.994 902.28237,141.018 C901.41837,145.338 897.67437,164.778 892.20237,164.778 Z M966.489429,123.882 C966.489429,120.57 966.345429,117.114 966.201429,113.802 C965.769429,106.314 966.633429,90.762 955.689429,90.762 C945.321429,90.762 940.713429,97.818 938.265429,107.034 C937.401429,102.426 935.673429,91.05 929.481429,91.05 C924.297429,91.05 921.993429,95.802 919.689429,99.546 C919.689429,97.53 919.833429,95.37 919.833429,93.354 C919.833429,90.618 917.385429,91.338 915.369429,91.338 C914.217429,91.338 913.065429,91.338 912.057429,91.626 C911.481429,92.49 911.769429,94.218 911.769429,95.082 C911.769429,117.546 911.337429,139.866 911.337429,162.33 C911.337429,163.626 911.337429,168.522 912.201429,169.53 C913.065429,170.25 914.937429,170.25 915.945429,170.25 C917.673429,170.25 919.977429,169.962 919.977429,167.802 C919.977429,152.106 919.545429,136.266 919.545429,120.57 C919.545429,113.37 920.697429,99.258 928.329429,95.802 C928.617429,95.658 928.905429,95.658 929.193429,95.658 C935.673429,95.658 935.529429,116.394 935.529429,121.002 C935.529429,135.834 934.665429,150.666 934.665429,165.642 C934.665429,167.082 934.809429,170.538 936.969429,170.538 C938.265429,170.538 938.265429,168.954 938.409429,167.946 C938.697429,159.738 938.553429,151.386 938.841429,143.178 C938.985429,138.138 939.273429,132.954 939.417429,127.914 C939.705429,117.546 940.569429,94.794 954.969429,94.794 C957.849429,94.794 959.721429,96.378 960.873429,98.97 C962.745429,103.146 962.745429,122.586 962.745429,128.346 C962.745429,141.882 962.601429,155.562 962.601429,169.098 C962.601429,170.394 963.321429,170.538 964.473429,170.538 C966.057429,170.538 966.057429,170.394 966.201429,168.81 C966.489429,165.21 966.345429,161.466 966.345429,157.866 C966.489429,149.946 966.489429,142.17 966.489429,134.394 L966.489429,123.882 Z" id="order-title"></path>
                    </g>
                </g>
            </g>
        </g>
    </g>
</svg>