<?xml version="1.0" encoding="UTF-8"?>
<svg width="53px" height="53px" viewBox="0 0 53 53" version="1.1" xmlns="http://www.w3.org/2000/svg" xmlns:xlink="http://www.w3.org/1999/xlink">
    <!-- Generator: Sketch 41.1 (35376) - http://www.bohemiancoding.com/sketch -->
    <title>pinterest-icon</title>
    <desc>Created with Sketch.</desc>
    <defs></defs>
    <g id="Page-1" stroke="none" stroke-width="1" fill="none" fill-rule="evenodd">
        <g id="Desktop-HD" transform="translate(-807.000000, -455.000000)">
            <g id="pinterest-icon" transform="translate(807.000000, 455.000000)">
                <circle id="Oval" fill="#D72B7D" cx="26.5" cy="26.5" r="26.5"></circle>
                <path d="M11.25,20.9619248 C11.25,19.2651528 11.5478516,17.6665737 12.1435547,16.1661873 C12.7392578,14.665801 13.5613281,13.3578726 14.6097656,12.2424021 C15.6582031,11.1269317 16.8654948,10.1607143 18.2316406,9.34375 C19.5977865,8.52678571 21.0671875,7.9140625 22.6398437,7.50558036 C24.2125,7.09709821 25.8169271,6.89285714 27.453125,6.89285714 C29.9630208,6.89285714 32.2981771,7.41524296 34.4585938,8.46001459 C36.6190104,9.50478623 38.374349,11.0248111 39.7246094,13.0200893 C41.0748698,15.0153674 41.75,17.2698747 41.75,19.7836109 C41.75,21.2918527 41.5990885,22.7686727 41.2972656,24.2140711 C40.9954427,25.6594694 40.5188802,27.0498798 39.8675781,28.3853022 C39.216276,29.7207246 38.4220052,30.8951107 37.4847656,31.9084607 C36.547526,32.9218106 35.3958333,33.7309195 34.0296875,34.3357873 C32.6635417,34.940655 31.1623698,35.2430889 29.5261719,35.2430889 C28.4459635,35.2430889 27.3736979,34.9917153 26.309375,34.4889681 C25.2450521,33.9862208 24.4825521,33.2949433 24.021875,32.4151356 C23.8630208,33.0278589 23.640625,33.9115943 23.3546875,35.0663419 C23.06875,36.2210895 22.8820964,36.9673549 22.7947266,37.3051382 C22.7073568,37.6429215 22.5445312,38.2006568 22.30625,38.9783439 C22.0679687,39.7560311 21.8614583,40.3137663 21.6867187,40.6515496 C21.5119792,40.9893329 21.2578125,41.480297 20.9242188,42.124442 C20.590625,42.7685869 20.2252604,43.3773824 19.828125,43.9508285 C19.4309896,44.5242746 18.9385417,45.2037689 18.3507813,45.9893115 L18.0171875,46.1071429 L17.8027344,45.8714801 C17.5644531,43.4048764 17.4453125,41.9280563 17.4453125,41.4410199 C17.4453125,39.9956216 17.6160807,38.3734761 17.9576172,36.5745836 C18.2991536,34.7756911 18.8273438,32.5172562 19.5421875,29.7992788 C20.2570312,27.0813015 20.6700521,25.4866501 20.78125,25.0153245 C20.2729167,23.9941192 20.01875,22.6665522 20.01875,21.0326236 C20.01875,19.7286229 20.4317708,18.5031765 21.2578125,17.3562843 C22.0838542,16.2093922 23.1322917,15.6359461 24.403125,15.6359461 C25.3721354,15.6359461 26.1266927,15.9540908 26.6667969,16.5903803 C27.206901,17.2266698 27.4769531,18.031851 27.4769531,19.0059238 C27.4769531,20.04284 27.127474,21.5432263 26.4285156,23.5070828 C25.7295573,25.4709392 25.3800781,26.9399038 25.3800781,27.9139766 C25.3800781,28.9037603 25.7375,29.7246523 26.4523437,30.3766526 C27.1671875,31.028653 28.0329427,31.3546532 29.0496094,31.3546532 C29.9233073,31.3546532 30.7334635,31.1582675 31.4800781,30.7654962 C32.2266927,30.3727249 32.8501953,29.838556 33.3505859,29.1629894 C33.8509766,28.4874227 34.2957682,27.7411573 34.6849609,26.924193 C35.0741536,26.1072287 35.3759766,25.2392042 35.5904297,24.3201193 C35.8048828,23.4010345 35.963737,22.5290822 36.0669922,21.7042625 C36.1702474,20.8794428 36.221875,20.097828 36.221875,19.3594179 C36.221875,16.6414406 35.3521484,14.5244033 33.6126953,13.0083061 C31.8732422,11.492209 29.605599,10.7341604 26.8097656,10.7341604 C23.6326823,10.7341604 20.9798177,11.751438 18.8511719,13.7859933 C16.722526,15.8205486 15.6582031,18.401056 15.6582031,21.5275155 C15.6582031,22.2187929 15.757487,22.8865041 15.9560547,23.530649 C16.1546224,24.174794 16.3690755,24.6853966 16.5994141,25.0624571 C16.8297526,25.4395175 17.0442057,25.7969394 17.2427734,26.1347227 C17.4413411,26.472506 17.540625,26.7120965 17.540625,26.8534942 C17.540625,27.293398 17.4214844,27.8668441 17.1832031,28.5738324 C16.9449219,29.2808207 16.6510417,29.6343149 16.3015625,29.6343149 C16.2697917,29.6343149 16.1347656,29.6107486 15.8964844,29.5636161 C15.0863281,29.3279533 14.367513,28.8880495 13.7400391,28.2439045 C13.1125651,27.5997596 12.6280599,26.8574219 12.2865234,26.0168913 C11.944987,25.1763607 11.686849,24.3279748 11.5121094,23.4717333 C11.3373698,22.6154919 11.25,21.7788891 11.25,20.9619248 Z" id="Shape" fill="#FFFFFF"></path>
            </g>
        </g>
    </g>
</svg>