<?xml version="1.0" encoding="UTF-8"?>
<svg width="1000px" height="119px" viewBox="0 0 1000 119" version="1.1" xmlns="http://www.w3.org/2000/svg" xmlns:xlink="http://www.w3.org/1999/xlink">
    <!-- Generator: Sketch 41.1 (35376) - http://www.bohemiancoding.com/sketch -->
    <title>preorder-title</title>
    <desc>Created with Sketch.</desc>
    <defs></defs>
    <g id="Page-1" stroke="none" stroke-width="1" fill="none" fill-rule="evenodd">
        <g id="Desktop-HD" transform="translate(-212.000000, -2059.000000)" fill="#C47878">
            <g id="Group-8" transform="translate(0.000000, 756.000000)">
                <g id="Book" transform="translate(0.000000, 927.000000)">
                    <g id="Preorder-Popup" transform="translate(161.000000, 324.000000)">
                        <path d="M89.464,93.104 C89.464,81.152 85.288,70.928 74.632,64.88 C69.736,62.144 62.536,62 57.208,62 C53.608,62 51.448,61.568 51.448,65.888 C51.448,67.76 51.736,69.488 51.736,71.216 L51.736,84.32 C51.736,86.768 51.592,89.36 51.592,91.808 L51.592,133.712 C51.592,139.184 51.16,144.8 51.16,150.272 L51.16,166.544 C51.16,170.432 54.04,170 56.92,170 C60.232,170 62.392,170.144 62.392,166.112 C62.392,161.36 62.104,156.752 62.104,152 C61.96,151.712 61.96,151.28 61.96,150.848 C61.96,144.944 62.392,139.04 62.392,133.136 C62.392,131.696 62.824,131.12 64.12,130.544 C67.144,129.392 70.312,128.672 73.048,126.8 C84.136,119.024 87.592,110.816 89.176,97.712 C89.32,96.128 89.464,94.544 89.464,93.104 Z M62.104,108.8 C62.104,103.76 62.392,98.576 62.248,93.536 C62.104,84.32 61.384,75.248 61.24,66.176 L63.256,66.176 C68.296,66.176 72.76,68.48 76.504,71.792 C82.696,77.264 84.28,84.608 84.28,92.672 C84.28,98.576 83.272,104.48 81.256,109.952 C79.672,114.272 76.648,117.152 73.192,120.032 C70.456,122.48 65.992,124.928 62.392,125.792 C62.248,122.192 62.104,118.736 62.104,115.136 L62.104,108.8 Z M93.4790596,90.8 C92.7590596,94.4 93.0470596,97.856 92.9030596,101.6 C92.7590596,109.52 92.9030596,117.584 92.9030596,125.504 C92.9030596,130.256 93.0470596,135.008 93.0470596,139.76 C93.0470596,148.4 92.4710596,157.184 92.4710596,165.824 C92.4710596,168.56 94.6310596,170 97.2230596,170 C99.9590596,170 101.54306,168.992 101.54306,166.256 C101.54306,148.544 99.3830596,106.928 112.48706,96.416 C113.35106,95.696 114.35906,95.12 115.65506,95.12 C122.56706,95.12 119.25506,106.352 122.56706,106.352 C124.00706,106.352 124.58306,105.344 124.58306,103.904 C124.58306,98.432 121.55906,90.512 114.93506,90.512 C113.63906,90.512 112.34306,90.944 111.19106,91.664 C104.71106,95.696 103.41506,101.456 100.82306,108.08 C101.11106,103.328 101.54306,98.576 101.83106,93.968 L101.83106,93.248 C101.83106,91.52 101.11106,89.36 98.9510596,89.36 C97.9430596,89.36 94.7750596,90.368 93.4790596,90.8 Z M158.694119,155.6 C154.662119,155.6 155.382119,165.104 147.894119,165.104 C137.382119,165.104 135.510119,143.504 135.510119,136.16 C135.510119,129.824 136.086119,123.488 137.238119,117.296 L146.022119,116.576 C148.758119,116.432 156.966119,116.864 158.406119,114.128 C159.270119,112.4 159.270119,110.24 159.270119,108.368 C159.270119,100.448 155.958119,91.088 146.742119,91.088 C128.598119,91.088 126.870119,126.8 126.870119,139.472 C126.870119,150.848 130.470119,170 145.014119,170 C149.766119,170 152.358119,169.712 156.102119,166.688 C157.686119,165.248 160.278119,159.344 160.278119,157.184 C160.278119,156.32 159.846119,155.6 158.694119,155.6 Z M147.750119,94.832 C153.798119,94.832 155.526119,102.752 155.526119,107.648 C155.526119,108.512 155.382119,111.536 154.806119,112.112 C154.662119,112.112 138.966119,113.408 137.814119,113.408 C137.814119,109.664 142.422119,95.696 146.454119,94.976 C146.886119,94.832 147.318119,94.832 147.750119,94.832 Z M190.933179,137.888 C183.013179,137.888 174.949179,138.176 166.885179,138.176 C166.453179,138.176 164.437179,138.032 164.437179,138.608 C164.437179,140.912 164.149179,141.776 165.877179,141.776 C169.045179,141.776 172.213179,142.064 175.237179,142.064 C181.429179,142.064 187.621179,141.632 193.669179,141.632 C194.101179,141.632 194.389179,141.632 194.533179,141.344 L194.677179,141.056 C194.677179,140.912 194.821179,140.912 194.821179,140.912 C193.813179,138.032 196.405179,137.888 190.933179,137.888 Z M222.452238,59.696 C217.412238,59.696 213.524238,63.872 210.788238,67.76 C202.148238,80 200.132238,104.768 200.132238,119.456 C200.132238,132.704 202.004238,151.28 209.492238,162.368 C211.652238,165.68 214.676238,169.424 219.140238,169.424 C222.596238,169.424 226.916238,167.408 229.076238,164.672 C235.700238,155.6 240.020238,132.848 240.452238,121.616 C240.596238,117.44 240.596238,113.264 240.596238,109.088 C240.596238,98.576 241.460238,80.432 235.988238,71.504 C233.972238,68.192 232.100238,64.88 229.076238,62.432 C226.916238,60.704 225.332238,59.696 222.452238,59.696 Z M237.284238,104.624 C237.284238,120.32 236.420238,136.16 231.236238,150.992 C230.084238,154.304 227.348238,164.096 223.172238,164.096 C220.868238,164.096 219.284238,159.92 218.564238,158.192 C213.092238,146.528 210.500238,125.936 210.500238,112.832 C210.500238,103.04 213.524238,69.776 223.892238,65.888 C224.180238,65.744 224.612238,65.6 224.900238,65.6 C226.916238,65.6 228.788238,67.76 229.940238,69.056 C237.428238,78.128 237.284238,93.536 237.284238,104.624 Z M246.915298,90.8 C246.195298,94.4 246.483298,97.856 246.339298,101.6 C246.195298,109.52 246.339298,117.584 246.339298,125.504 C246.339298,130.256 246.483298,135.008 246.483298,139.76 C246.483298,148.4 245.907298,157.184 245.907298,165.824 C245.907298,168.56 248.067298,170 250.659298,170 C253.395298,170 254.979298,168.992 254.979298,166.256 C254.979298,148.544 252.819298,106.928 265.923298,96.416 C266.787298,95.696 267.795298,95.12 269.091298,95.12 C276.003298,95.12 272.691298,106.352 276.003298,106.352 C277.443298,106.352 278.019298,105.344 278.019298,103.904 C278.019298,98.432 274.995298,90.512 268.371298,90.512 C267.075298,90.512 265.779298,90.944 264.627298,91.664 C258.147298,95.696 256.851298,101.456 254.259298,108.08 C254.547298,103.328 254.979298,98.576 255.267298,93.968 L255.267298,93.248 C255.267298,91.52 254.547298,89.36 252.387298,89.36 C251.379298,89.36 248.211298,90.368 246.915298,90.8 Z M314.290357,134.72 C314.290357,127.808 314.578357,120.896 314.578357,113.984 C314.578357,103.76 314.290357,93.68 314.290357,83.456 C314.290357,73.664 314.578357,63.728 314.578357,53.936 C314.578357,52.496 312.274357,52.784 311.266357,52.784 C310.114357,52.784 308.962357,52.64 307.810357,52.64 C307.378357,52.64 307.090357,52.784 306.946357,53.36 C306.658357,54.08 306.658357,59.84 306.658357,60.272 C306.370357,71.216 305.938357,82.016 306.082357,92.96 C304.642357,92.528 303.058357,92.24 301.474357,92.24 C291.682357,92.24 287.794357,101.456 284.482357,109.232 C281.314357,116.864 279.730357,126.8 279.730357,135.008 C279.730357,146.24 282.466357,169.856 297.586357,169.856 C302.626357,169.856 306.082357,163.088 307.954357,159.344 C308.386357,161.936 308.962357,164.816 309.970357,167.408 C310.546357,168.704 311.842357,169.568 313.282357,169.568 C315.010357,169.568 316.018357,168.416 316.018357,166.832 C316.018357,162.512 315.010357,157.328 314.722357,152.864 C314.434357,146.816 314.290357,140.768 314.290357,134.72 Z M307.090357,150.56 C307.090357,150.56 306.514357,152.576 306.370357,152.72 C305.218357,156.896 304.066357,158.912 301.186357,162.224 C300.034357,163.664 298.306357,165.392 296.290357,165.392 C294.418357,165.392 292.834357,164.096 291.538357,162.8 C284.770357,156.464 283.618357,144.224 283.618357,135.44 C283.618357,130.544 284.194357,125.648 285.346357,120.896 C286.930357,113.408 292.258357,96.128 301.906357,96.128 C303.346357,96.128 304.786357,96.56 306.082357,97.136 C305.938357,104.048 305.938357,110.816 305.938357,117.728 C305.938357,127.376 306.370357,137.312 306.802357,147.104 C306.802357,148.256 307.090357,149.408 307.090357,150.56 Z M355.025417,155.6 C350.993417,155.6 351.713417,165.104 344.225417,165.104 C333.713417,165.104 331.841417,143.504 331.841417,136.16 C331.841417,129.824 332.417417,123.488 333.569417,117.296 L342.353417,116.576 C345.089417,116.432 353.297417,116.864 354.737417,114.128 C355.601417,112.4 355.601417,110.24 355.601417,108.368 C355.601417,100.448 352.289417,91.088 343.073417,91.088 C324.929417,91.088 323.201417,126.8 323.201417,139.472 C323.201417,150.848 326.801417,170 341.345417,170 C346.097417,170 348.689417,169.712 352.433417,166.688 C354.017417,165.248 356.609417,159.344 356.609417,157.184 C356.609417,156.32 356.177417,155.6 355.025417,155.6 Z M344.081417,94.832 C350.129417,94.832 351.857417,102.752 351.857417,107.648 C351.857417,108.512 351.713417,111.536 351.137417,112.112 C350.993417,112.112 335.297417,113.408 334.145417,113.408 C334.145417,109.664 338.753417,95.696 342.785417,94.976 C343.217417,94.832 343.649417,94.832 344.081417,94.832 Z M361.776476,90.8 C361.056476,94.4 361.344476,97.856 361.200476,101.6 C361.056476,109.52 361.200476,117.584 361.200476,125.504 C361.200476,130.256 361.344476,135.008 361.344476,139.76 C361.344476,148.4 360.768476,157.184 360.768476,165.824 C360.768476,168.56 362.928476,170 365.520476,170 C368.256476,170 369.840476,168.992 369.840476,166.256 C369.840476,148.544 367.680476,106.928 380.784476,96.416 C381.648476,95.696 382.656476,95.12 383.952476,95.12 C390.864476,95.12 387.552476,106.352 390.864476,106.352 C392.304476,106.352 392.880476,105.344 392.880476,103.904 C392.880476,98.432 389.856476,90.512 383.232476,90.512 C381.936476,90.512 380.640476,90.944 379.488476,91.664 C373.008476,95.696 371.712476,101.456 369.120476,108.08 C369.408476,103.328 369.840476,98.576 370.128476,93.968 L370.128476,93.248 C370.128476,91.52 369.408476,89.36 367.248476,89.36 C366.240476,89.36 363.072476,90.368 361.776476,90.8 Z M433.454596,60.704 C432.302596,60.704 431.150596,60.848 429.854596,60.848 C427.838596,60.848 427.550596,61.568 427.262596,63.44 C426.398596,69.344 425.966596,75.248 425.246596,81.152 L419.054596,139.184 L417.182596,155.744 L416.030596,166.256 C415.886596,166.832 415.742596,167.84 415.742596,168.416 C415.742596,170.144 419.342596,170.144 420.494596,170.144 C422.222596,170.144 424.238596,170.144 425.966596,170 C426.830596,169.856 426.974596,169.28 426.974596,168.56 C426.974596,162.8 427.550596,156.896 427.982596,151.28 C428.702596,143.936 429.278596,136.592 429.998596,129.248 C430.142596,128.096 430.142596,126.944 430.430596,125.792 C434.606596,125.792 438.638596,125.792 442.814596,125.648 C443.966596,133.856 445.262596,141.92 446.126596,149.984 C446.702596,155.744 447.278596,162.512 448.718596,167.984 C449.006596,169.424 449.294596,169.856 450.734596,169.856 C451.454596,169.856 452.750596,169.856 452.750596,168.992 C452.750596,166.832 452.174596,164.384 451.742596,162.08 L450.014596,149.984 L446.126596,120.176 C445.406596,113.984 444.974596,107.792 443.966596,101.6 C442.526596,91.088 441.374596,80.432 439.646596,69.92 C439.358596,67.616 439.070596,64.88 438.350596,62.432 C438.206596,62 437.918596,61.424 437.342596,61.136 C436.622596,60.848 434.462596,60.704 433.454596,60.704 Z M435.614596,71.504 C437.630596,88.352 440.510596,105.2 442.382596,122.048 L440.654596,122.048 C437.342596,122.192 434.030596,121.904 430.718596,122.048 C432.446596,105.2 433.598596,88.352 435.614596,71.504 Z M483.837655,94.256 C480.525655,94.256 477.069655,94.4 473.757655,94.4 L473.757655,92.24 C473.901655,89.36 474.045655,86.48 474.333655,83.6 C474.621655,81.152 475.053655,78.704 475.053655,76.256 C475.053655,73.664 473.181655,73.232 471.021655,73.232 C470.157655,73.232 466.845655,73.52 466.557655,74.672 C465.693655,81.152 465.693655,87.92 465.261655,94.544 L459.501655,94.544 C458.493655,94.544 456.765655,94.832 456.765655,96.272 C456.765655,97.856 458.637655,98.72 459.933655,98.72 C461.661655,98.72 463.389655,98.288 465.117655,98.144 C464.685655,104.192 464.397655,110.384 464.397655,116.432 C464.397655,122.192 464.109655,128.096 464.109655,133.856 C464.109655,137.888 464.397655,141.92 464.397655,145.952 C464.397655,153.872 465.117655,170.144 476.205655,170.144 C481.821655,170.144 482.253655,167.408 483.837655,162.944 L483.837655,162.656 C483.837655,161.648 482.829655,160.352 481.821655,160.352 C478.653655,160.352 480.813655,166.4 477.069655,166.4 C471.741655,166.4 472.029655,150.272 472.029655,146.672 C472.029655,143.504 472.317655,140.48 472.461655,137.456 C472.749655,128.384 473.325655,119.168 473.757655,110.096 C473.901655,106.64 473.613655,103.184 473.613655,99.728 L473.757655,98.288 L479.949655,98.288 C481.677655,98.288 486.861655,98.864 486.861655,96.272 C486.861655,94.544 485.133655,94.256 483.837655,94.256 Z M519.083774,66.464 C520.379774,65.744 522.251774,65.744 523.691774,65.744 C530.171774,65.744 536.795774,65.744 543.275774,65.312 C544.427774,65.312 545.147774,64.88 545.147774,63.584 C545.147774,61.856 544.427774,60.848 542.555774,60.848 C539.963774,60.848 537.515774,61.568 534.923774,61.712 C530.891774,61.856 526.715774,61.712 522.683774,61.712 C520.955774,61.712 519.227774,61.568 517.499774,61.568 C514.475774,61.568 510.299774,62.576 510.299774,66.176 C510.299774,71.216 510.155774,76.256 510.155774,81.296 C510.011774,97.856 510.011774,114.272 510.011774,130.832 C510.011774,139.328 510.011774,147.824 510.155774,156.32 C510.155774,159.92 510.011774,163.52 510.299774,167.12 C510.443774,169.136 511.307774,170.288 513.323774,170.288 C514.475774,170.288 517.931774,170.288 518.795774,170 C519.803774,169.568 519.947774,168.272 519.947774,167.408 C519.947774,150.848 519.371774,134.288 519.083774,117.728 C519.371774,117.584 519.803774,117.44 520.235774,117.44 L523.691774,117.44 C527.147774,117.44 534.923774,117.584 537.947774,117.008 C538.955774,116.72 539.531774,116.144 539.531774,115.136 C539.531774,113.552 538.523774,113.12 537.083774,113.12 C534.635774,113.12 532.043774,113.408 529.595774,113.408 C528.443774,113.408 519.515774,113.552 519.083774,112.976 C518.939774,108.512 518.939774,104.048 518.939774,99.584 C518.939774,88.496 518.939774,77.552 519.083774,66.464 Z M551.898834,91.664 C551.178834,91.664 548.442834,91.808 548.442834,92.96 C548.442834,109.808 548.586834,126.8 548.442834,143.648 C548.442834,148.544 548.010834,153.44 548.010834,158.336 C548.010834,161.072 547.866834,163.664 547.866834,166.4 C547.866834,169.424 548.874834,170.144 551.898834,170.144 C553.626834,170.144 556.650834,169.856 556.650834,167.696 C556.650834,151.568 557.226834,135.296 557.226834,119.168 C557.226834,111.824 556.938834,104.624 556.938834,97.28 C556.938834,92.096 557.946834,91.664 551.898834,91.664 Z M552.762834,64.448 C549.738834,64.448 548.154834,67.76 548.154834,70.496 C548.154834,73.376 550.314834,77.12 553.482834,77.12 C556.650834,77.12 557.946834,73.376 557.946834,70.784 C557.946834,67.76 556.074834,64.448 552.762834,64.448 Z M566.713893,90.8 C565.993893,94.4 566.281893,97.856 566.137893,101.6 C565.993893,109.52 566.137893,117.584 566.137893,125.504 C566.137893,130.256 566.281893,135.008 566.281893,139.76 C566.281893,148.4 565.705893,157.184 565.705893,165.824 C565.705893,168.56 567.865893,170 570.457893,170 C573.193893,170 574.777893,168.992 574.777893,166.256 C574.777893,148.544 572.617893,106.928 585.721893,96.416 C586.585893,95.696 587.593893,95.12 588.889893,95.12 C595.801893,95.12 592.489893,106.352 595.801893,106.352 C597.241893,106.352 597.817893,105.344 597.817893,103.904 C597.817893,98.432 594.793893,90.512 588.169893,90.512 C586.873893,90.512 585.577893,90.944 584.425893,91.664 C577.945893,95.696 576.649893,101.456 574.057893,108.08 C574.345893,103.328 574.777893,98.576 575.065893,93.968 L575.065893,93.248 C575.065893,91.52 574.345893,89.36 572.185893,89.36 C571.177893,89.36 568.009893,90.368 566.713893,90.8 Z M607.736953,107.504 C607.736953,103.184 608.888953,95.552 614.648953,95.552 C619.832953,95.552 621.848953,104.336 621.848953,108.368 C621.848953,110.096 621.416953,111.824 621.416953,113.552 C621.416953,114.704 622.136953,115.136 623.288953,115.136 C625.448953,115.136 625.736953,111.248 625.736953,109.808 C625.736953,102.464 623.576953,90.656 614.072953,90.656 C603.992953,90.656 599.240953,103.472 599.240953,111.968 C599.240953,132.272 620.552953,130.544 620.552953,151.136 C620.552953,155.456 617.960953,165.536 612.632953,165.536 C609.176953,165.536 606.584953,161.216 606.008953,158.192 C605.144953,154.16 605.432953,149.984 605.432953,145.952 C605.432953,144.512 605.288953,141.2 603.128953,141.2 C601.400953,141.2 600.680953,143.648 600.680953,145.088 C600.680953,147.104 600.824953,149.264 600.968953,151.28 C601.400953,160.64 602.840953,169.856 614.504953,169.856 C625.304953,169.856 627.752953,161.072 627.752953,151.712 C627.752953,150.272 627.608953,148.832 627.464953,147.392 C626.744953,142.928 625.592953,138.32 623.288953,134.432 C621.560953,131.552 619.112953,129.248 616.808953,126.944 C610.616953,121.04 607.736953,116.432 607.736953,107.504 Z M659.704012,94.256 C656.392012,94.256 652.936012,94.4 649.624012,94.4 L649.624012,92.24 C649.768012,89.36 649.912012,86.48 650.200012,83.6 C650.488012,81.152 650.920012,78.704 650.920012,76.256 C650.920012,73.664 649.048012,73.232 646.888012,73.232 C646.024012,73.232 642.712012,73.52 642.424012,74.672 C641.560012,81.152 641.560012,87.92 641.128012,94.544 L635.368012,94.544 C634.360012,94.544 632.632012,94.832 632.632012,96.272 C632.632012,97.856 634.504012,98.72 635.800012,98.72 C637.528012,98.72 639.256012,98.288 640.984012,98.144 C640.552012,104.192 640.264012,110.384 640.264012,116.432 C640.264012,122.192 639.976012,128.096 639.976012,133.856 C639.976012,137.888 640.264012,141.92 640.264012,145.952 C640.264012,153.872 640.984012,170.144 652.072012,170.144 C657.688012,170.144 658.120012,167.408 659.704012,162.944 L659.704012,162.656 C659.704012,161.648 658.696012,160.352 657.688012,160.352 C654.520012,160.352 656.680012,166.4 652.936012,166.4 C647.608012,166.4 647.896012,150.272 647.896012,146.672 C647.896012,143.504 648.184012,140.48 648.328012,137.456 C648.616012,128.384 649.192012,119.168 649.624012,110.096 C649.768012,106.64 649.480012,103.184 649.480012,99.728 L649.624012,98.288 L655.816012,98.288 C657.544012,98.288 662.728012,98.864 662.728012,96.272 C662.728012,94.544 661.000012,94.256 659.704012,94.256 Z M691.206132,169.856 C692.646132,169.856 693.942132,169.712 695.382132,169.712 C699.702132,169.424 703.734132,169.136 707.622132,167.408 C715.686132,163.664 721.590132,155.168 721.590132,146.384 C721.590132,136.592 720.150132,132.128 714.246132,124.352 C711.078132,120.032 707.046132,117.872 702.294132,115.712 C703.014132,115.136 703.878132,114.704 704.598132,114.128 C706.902132,112.4 709.206132,110.384 711.222132,108.368 C716.694132,103.04 718.710132,93.104 718.710132,85.76 C718.710132,81.44 717.558132,76.976 716.118132,73.088 C713.958132,67.04 710.646132,62.144 704.022132,60.992 C701.862132,60.56 699.702132,60.416 697.542132,60.416 C695.382132,60.416 690.054132,60.56 688.038132,61.136 C686.886132,61.568 687.030132,64.88 686.886132,65.888 L686.886132,68.624 C686.886132,74.672 686.886132,80.72 686.742132,86.768 C686.166132,102.32 685.446132,117.872 685.446132,133.424 C685.446132,139.472 685.734132,145.376 685.734132,151.28 C685.734132,154.736 685.734132,158.336 685.590132,161.792 C685.590132,164.096 685.734132,167.84 687.894132,169.136 C688.902132,169.856 690.054132,169.856 691.206132,169.856 Z M697.686132,164.96 C697.542132,164.96 697.110132,164.96 696.966132,164.816 C696.534132,164.24 696.534132,160.064 696.534132,159.2 L696.534132,155.024 C696.966132,144.224 696.966132,133.136 696.966132,122.192 L696.966132,119.456 C697.254132,119.312 697.542132,119.312 697.830132,119.312 C698.694132,119.312 699.558132,119.456 700.278132,119.744 C705.462132,121.76 709.782132,124.784 712.374132,129.824 C714.822132,134.432 716.262132,138.896 716.262132,144.08 C716.262132,152.576 714.678132,155.6 708.342132,160.928 C706.470132,162.368 704.310132,163.088 702.294132,163.952 C700.854132,164.384 699.270132,164.96 697.686132,164.96 Z M700.278132,64.592 C711.510132,64.592 714.246132,77.264 714.246132,86.336 C714.246132,93.248 712.374132,100.304 707.622132,105.488 C704.886132,108.512 700.710132,110.816 697.254132,113.264 C697.254132,112.4 697.110132,111.536 697.110132,110.672 C697.110132,97.712 697.686132,84.752 697.686132,71.792 C697.686132,70.064 697.542132,68.48 697.542132,66.752 C697.542132,66.176 697.542132,65.456 697.686132,64.736 C698.550132,64.736 699.414132,64.592 700.278132,64.592 Z M736.261191,167.264 C736.261191,154.016 735.829191,140.768 735.829191,127.664 L735.829191,115.136 C735.829191,95.552 736.117191,75.968 736.117191,56.384 C736.117191,53.936 735.109191,53.936 733.093191,53.936 L730.645191,53.936 C729.061191,53.936 729.061191,55.952 729.061191,56.96 C729.061191,74.24 729.493191,91.376 729.493191,108.656 L729.493191,126.512 C729.493191,136.448 729.061191,146.528 729.061191,156.608 L729.061191,168.704 C729.061191,170.288 731.509191,170.288 732.661191,170.288 C735.685191,170.288 736.261191,170.72 736.261191,167.264 Z M779.300251,129.248 C779.300251,121.904 779.588251,114.704 779.876251,107.36 C780.020251,103.472 780.308251,99.584 780.308251,95.84 C780.308251,92.528 779.156251,91.952 776.132251,91.664 C774.980251,91.52 773.828251,90.944 772.388251,90.944 C770.516251,90.944 769.508251,91.808 769.508251,93.824 C769.508251,94.976 769.796251,96.128 769.796251,97.136 L769.796251,107.936 C769.796251,116 769.220251,123.776 768.788251,131.84 C768.500251,138.176 768.212251,164.96 759.284251,164.96 C758.564251,164.96 757.844251,164.672 757.268251,164.24 C749.492251,158.48 749.492251,137.888 749.492251,129.248 C749.492251,119.744 749.636251,110.384 750.212251,101.024 C750.356251,98.432 750.644251,95.84 750.644251,93.392 C750.644251,91.664 749.636251,90.368 747.908251,90.368 C745.748251,90.368 745.892251,95.696 745.892251,97.28 C745.460251,106.64 744.884251,116.144 744.884251,125.504 C744.884251,136.304 745.604251,155.744 751.076251,165.104 C752.948251,168.272 755.972251,169.856 759.572251,169.856 C763.028251,169.856 765.620251,167.84 767.636251,165.104 C770.516251,161.216 770.804251,156.176 771.668251,151.568 C772.388251,154.016 772.964251,160.928 773.252251,163.808 C773.540251,166.256 774.548251,169.28 777.572251,169.28 C780.020251,169.28 781.028251,166.832 781.028251,164.672 C781.028251,163.664 780.884251,162.512 780.740251,161.504 C780.452251,157.616 779.732251,153.872 779.588251,149.984 C779.444251,143.072 779.300251,136.16 779.300251,129.248 Z M796.85131,107.504 C796.85131,103.184 798.00331,95.552 803.76331,95.552 C808.94731,95.552 810.96331,104.336 810.96331,108.368 C810.96331,110.096 810.53131,111.824 810.53131,113.552 C810.53131,114.704 811.25131,115.136 812.40331,115.136 C814.56331,115.136 814.85131,111.248 814.85131,109.808 C814.85131,102.464 812.69131,90.656 803.18731,90.656 C793.10731,90.656 788.35531,103.472 788.35531,111.968 C788.35531,132.272 809.66731,130.544 809.66731,151.136 C809.66731,155.456 807.07531,165.536 801.74731,165.536 C798.29131,165.536 795.69931,161.216 795.12331,158.192 C794.25931,154.16 794.54731,149.984 794.54731,145.952 C794.54731,144.512 794.40331,141.2 792.24331,141.2 C790.51531,141.2 789.79531,143.648 789.79531,145.088 C789.79531,147.104 789.93931,149.264 790.08331,151.28 C790.51531,160.64 791.95531,169.856 803.61931,169.856 C814.41931,169.856 816.86731,161.072 816.86731,151.712 C816.86731,150.272 816.72331,148.832 816.57931,147.392 C815.85931,142.928 814.70731,138.32 812.40331,134.432 C810.67531,131.552 808.22731,129.248 805.92331,126.944 C799.73131,121.04 796.85131,116.432 796.85131,107.504 Z M843.92237,91.088 C838.88237,91.088 834.99437,94.4 832.40237,98.432 L832.40237,95.264 C832.40237,83.6 832.11437,71.936 832.11437,60.128 C832.11437,57.104 833.26637,52.496 828.94637,52.496 C828.22637,52.496 825.49037,52.64 824.77037,52.928 C823.76237,53.504 823.18637,54.08 823.04237,55.376 C822.75437,58.976 822.89837,63.008 822.89837,66.608 C822.89837,72.8 823.18637,79.136 823.18637,85.328 C823.18637,92.96 822.89837,100.736 822.75437,108.368 C822.75437,117.872 822.61037,127.232 822.32237,136.736 C822.17837,143.216 821.74637,149.696 821.74637,156.032 C821.74637,158.48 821.31437,168.704 822.32237,169.568 C822.75437,169.856 823.33037,169.856 823.76237,169.856 C825.63437,169.856 827.50637,169.712 829.37837,169.712 C829.81037,169.712 830.53037,169.712 830.81837,169.424 C831.39437,169.136 831.10637,163.952 831.10637,163.088 C831.10637,159.776 831.25037,156.608 831.25037,153.296 C831.25037,138.752 831.82637,124.352 832.11437,109.808 C832.11437,109.376 832.97837,106.928 833.12237,106.496 C834.70637,101.456 838.01837,95.696 844.06637,95.696 C845.65037,95.696 847.23437,96.128 848.38637,97.28 C852.27437,101.168 852.13037,113.552 852.13037,118.592 C852.13037,135.152 851.69837,151.568 851.69837,167.984 C851.69837,170.576 852.13037,170 854.72237,170 L855.44237,170 C856.16237,169.856 856.30637,169.568 856.30637,168.704 L856.30637,164.96 C856.30637,149.552 856.59437,134 856.59437,118.592 C856.59437,109.232 857.45837,91.088 843.92237,91.088 Z M894.144489,66.464 C895.440489,65.744 897.312489,65.744 898.752489,65.744 C905.232489,65.744 911.856489,65.744 918.336489,65.312 C919.488489,65.312 920.208489,64.88 920.208489,63.584 C920.208489,61.856 919.488489,60.848 917.616489,60.848 C915.024489,60.848 912.576489,61.568 909.984489,61.712 C905.952489,61.856 901.776489,61.712 897.744489,61.712 C896.016489,61.712 894.288489,61.568 892.560489,61.568 C889.536489,61.568 885.360489,62.576 885.360489,66.176 C885.360489,71.216 885.216489,76.256 885.216489,81.296 C885.072489,97.856 885.072489,114.272 885.072489,130.832 C885.072489,139.328 885.072489,147.824 885.216489,156.32 C885.216489,159.92 885.072489,163.52 885.360489,167.12 C885.504489,169.136 886.368489,170.288 888.384489,170.288 C889.536489,170.288 892.992489,170.288 893.856489,170 C894.864489,169.568 895.008489,168.272 895.008489,167.408 C895.008489,150.848 894.432489,134.288 894.144489,117.728 C894.432489,117.584 894.864489,117.44 895.296489,117.44 L898.752489,117.44 C902.208489,117.44 909.984489,117.584 913.008489,117.008 C914.016489,116.72 914.592489,116.144 914.592489,115.136 C914.592489,113.552 913.584489,113.12 912.144489,113.12 C909.696489,113.12 907.104489,113.408 904.656489,113.408 C903.504489,113.408 894.576489,113.552 894.144489,112.976 C894.000489,108.512 894.000489,104.048 894.000489,99.584 C894.000489,88.496 894.000489,77.552 894.144489,66.464 Z M923.791548,90.8 C923.071548,94.4 923.359548,97.856 923.215548,101.6 C923.071548,109.52 923.215548,117.584 923.215548,125.504 C923.215548,130.256 923.359548,135.008 923.359548,139.76 C923.359548,148.4 922.783548,157.184 922.783548,165.824 C922.783548,168.56 924.943548,170 927.535548,170 C930.271548,170 931.855548,168.992 931.855548,166.256 C931.855548,148.544 929.695548,106.928 942.799548,96.416 C943.663548,95.696 944.671548,95.12 945.967548,95.12 C952.879548,95.12 949.567548,106.352 952.879548,106.352 C954.319548,106.352 954.895548,105.344 954.895548,103.904 C954.895548,98.432 951.871548,90.512 945.247548,90.512 C943.951548,90.512 942.655548,90.944 941.503548,91.664 C935.023548,95.696 933.727548,101.456 931.135548,108.08 C931.423548,103.328 931.855548,98.576 932.143548,93.968 L932.143548,93.248 C932.143548,91.52 931.423548,89.36 929.263548,89.36 C928.255548,89.36 925.087548,90.368 923.791548,90.8 Z M971.438608,90.512 C969.422608,90.512 966.398608,91.232 964.814608,92.816 C958.046608,99.728 956.606608,118.304 956.606608,127.664 C956.606608,136.016 957.326608,144.368 958.766608,152.576 C959.918608,159.92 964.526608,169.856 973.310608,169.856 C978.350608,169.856 981.374608,167.264 983.390608,162.8 C987.566608,153.584 989.726608,143.072 989.726608,132.992 C989.726608,122.624 989.294608,109.376 983.966608,100.304 C981.086608,95.552 977.630608,90.512 971.438608,90.512 Z M975.758608,164.528 C973.598608,164.528 971.726608,161.504 970.718608,159.92 C967.694608,154.592 966.110608,139.616 966.110608,133.28 C966.110608,127.664 966.110608,95.84 973.742608,95.84 C974.894608,95.84 977.198608,97.568 978.062608,98.432 C985.694608,106.352 986.558608,121.04 986.558608,131.408 C986.558608,134.576 986.414608,137.744 985.838608,140.768 C984.974608,145.088 981.230608,164.528 975.758608,164.528 Z M1050.04567,123.632 C1050.04567,120.32 1049.90167,116.864 1049.75767,113.552 C1049.32567,106.064 1050.18967,90.512 1039.24567,90.512 C1028.87767,90.512 1024.26967,97.568 1021.82167,106.784 C1020.95767,102.176 1019.22967,90.8 1013.03767,90.8 C1007.85367,90.8 1005.54967,95.552 1003.24567,99.296 C1003.24567,97.28 1003.38967,95.12 1003.38967,93.104 C1003.38967,90.368 1000.94167,91.088 998.925668,91.088 C997.773668,91.088 996.621668,91.088 995.613668,91.376 C995.037668,92.24 995.325668,93.968 995.325668,94.832 C995.325668,117.296 994.893668,139.616 994.893668,162.08 C994.893668,163.376 994.893668,168.272 995.757668,169.28 C996.621668,170 998.493668,170 999.501668,170 C1001.22967,170 1003.53367,169.712 1003.53367,167.552 C1003.53367,151.856 1003.10167,136.016 1003.10167,120.32 C1003.10167,113.12 1004.25367,99.008 1011.88567,95.552 C1012.17367,95.408 1012.46167,95.408 1012.74967,95.408 C1019.22967,95.408 1019.08567,116.144 1019.08567,120.752 C1019.08567,135.584 1018.22167,150.416 1018.22167,165.392 C1018.22167,166.832 1018.36567,170.288 1020.52567,170.288 C1021.82167,170.288 1021.82167,168.704 1021.96567,167.696 C1022.25367,159.488 1022.10967,151.136 1022.39767,142.928 C1022.54167,137.888 1022.82967,132.704 1022.97367,127.664 C1023.26167,117.296 1024.12567,94.544 1038.52567,94.544 C1041.40567,94.544 1043.27767,96.128 1044.42967,98.72 C1046.30167,102.896 1046.30167,122.336 1046.30167,128.096 C1046.30167,141.632 1046.15767,155.312 1046.15767,168.848 C1046.15767,170.144 1046.87767,170.288 1048.02967,170.288 C1049.61367,170.288 1049.61367,170.144 1049.75767,168.56 C1050.04567,164.96 1049.90167,161.216 1049.90167,157.616 C1050.04567,149.696 1050.04567,141.92 1050.04567,134.144 L1050.04567,123.632 Z" id="preorder-title"></path>
                    </g>
                </g>
            </g>
        </g>
    </g>
</svg>