<?xml version="1.0" encoding="UTF-8"?>
<svg width="333px" height="93px" viewBox="0 0 333 93" version="1.1" xmlns="http://www.w3.org/2000/svg" xmlns:xlink="http://www.w3.org/1999/xlink">
    <!-- Generator: Sketch 41.1 (35376) - http://www.bohemiancoding.com/sketch -->
    <title>preorder-button</title>
    <desc>Created with Sketch.</desc>
    <defs>
        <rect id="path-1" x="0" y="0" width="333" height="93"></rect>
        <mask id="mask-2" maskContentUnits="userSpaceOnUse" maskUnits="objectBoundingBox" x="0" y="0" width="333" height="93" fill="white">
            <use xlink:href="#path-1"></use>
        </mask>
    </defs>
    <g id="Page-1" stroke="none" stroke-width="1" fill="none" fill-rule="evenodd">
        <g id="Desktop-HD" transform="translate(-122.000000, -2726.000000)">
            <g id="Group-8" transform="translate(0.000000, 756.000000)">
                <g id="Book" transform="translate(0.000000, 927.000000)">
                    <g id="preorder-button" transform="translate(122.000000, 1043.000000)">
                        <use id="Rectangle-5" stroke="#FFFFFF" mask="url(#mask-2)" stroke-width="10" fill="#742C70" xlink:href="#path-1"></use>
                        <path d="M100.011939,33.756 C100.011939,28.278 98.0979395,23.592 93.2139395,20.82 C90.9699395,19.566 87.6699395,19.5 85.2279395,19.5 C83.5779395,19.5 82.5879395,19.302 82.5879395,21.282 C82.5879395,22.14 82.7199395,22.932 82.7199395,23.724 L82.7199395,29.73 C82.7199395,30.852 82.6539395,32.04 82.6539395,33.162 L82.6539395,52.368 C82.6539395,54.876 82.4559395,57.45 82.4559395,59.958 L82.4559395,67.416 C82.4559395,69.198 83.7759395,69 85.0959395,69 C86.6139395,69 87.6039395,69.066 87.6039395,67.218 C87.6039395,65.04 87.4719395,62.928 87.4719395,60.75 C87.4059395,60.618 87.4059395,60.42 87.4059395,60.222 C87.4059395,57.516 87.6039395,54.81 87.6039395,52.104 C87.6039395,51.444 87.8019395,51.18 88.3959395,50.916 C89.7819395,50.388 91.2339395,50.058 92.4879395,49.2 C97.5699395,45.636 99.1539395,41.874 99.8799395,35.868 C99.9459395,35.142 100.011939,34.416 100.011939,33.756 Z M87.4719395,40.95 C87.4719395,38.64 87.6039395,36.264 87.5379395,33.954 C87.4719395,29.73 87.1419395,25.572 87.0759395,21.414 L87.9999395,21.414 C90.3099395,21.414 92.3559395,22.47 94.0719395,23.988 C96.9099395,26.496 97.6359395,29.862 97.6359395,33.558 C97.6359395,36.264 97.1739395,38.97 96.2499395,41.478 C95.5239395,43.458 94.1379395,44.778 92.5539395,46.098 C91.2999395,47.22 89.2539395,48.342 87.6039395,48.738 C87.5379395,47.088 87.4719395,45.504 87.4719395,43.854 L87.4719395,40.95 Z M107.924175,45.372 C110.894175,42.666 113.930175,39.696 115.250175,35.802 C116.240175,33.03 116.834175,30.126 116.834175,27.156 C116.834175,23.526 115.580175,20.952 112.214175,19.368 C110.762175,18.642 107.924175,18.642 106.274175,18.642 C105.482175,18.642 104.690175,18.642 103.898175,18.708 C102.710175,18.774 102.380175,19.038 102.248175,20.226 C102.116175,21.084 102.050175,21.942 101.984175,22.866 C101.984175,25.77 101.918175,28.74 101.852175,31.644 C101.786175,35.34 101.720175,38.97 101.720175,42.666 C101.720175,47.616 101.786175,52.5 101.786175,57.45 L101.786175,66.822 C101.786175,67.218 101.852175,67.614 101.918175,68.01 C101.984175,68.604 102.182175,68.604 102.710175,68.604 C103.502175,68.604 104.294175,68.67 105.086175,68.67 C106.406175,68.67 106.736175,68.67 106.736175,67.35 C106.736175,65.964 106.604175,64.644 106.604175,63.258 C106.604175,58.968 106.472175,54.678 106.472175,50.388 C106.472175,49.464 106.538175,48.474 106.538175,47.484 C108.254175,49.596 109.310175,52.17 110.432175,54.612 C112.346175,58.836 114.194175,63.852 116.504175,67.746 C116.768175,68.142 117.362175,68.802 117.890175,68.802 C118.352175,68.802 118.616175,68.274 118.616175,67.812 C118.616175,67.35 118.352175,66.888 118.088175,66.492 C116.834175,63.72 115.514175,60.948 114.260175,58.176 C113.468175,56.394 112.742175,54.678 111.950175,52.962 C111.158175,51.378 110.234175,49.794 109.376175,48.276 C108.848175,47.352 107.990175,46.494 107.924175,45.372 Z M106.604175,20.688 C107.000175,20.688 107.396175,20.622 107.792175,20.622 C112.478175,20.622 114.590175,22.734 114.590175,27.42 C114.590175,34.746 111.950175,39.036 106.472175,43.59 C106.406175,40.224 106.340175,36.792 106.340175,33.426 C106.340175,29.202 106.406175,24.912 106.604175,20.688 Z M135.108411,67.02 C134.778411,66.822 133.458411,66.954 133.062411,66.954 C130.818411,66.954 128.508411,66.954 126.264411,66.888 C126.264411,62.07 126.198411,57.252 126.198411,52.434 C126.198411,49.86 126.198411,47.22 126.264411,44.646 L127.188411,44.646 C128.508411,44.646 131.214411,44.646 132.468411,44.382 C132.930411,44.316 133.194411,44.052 133.194411,43.59 C133.194411,42.864 132.732411,42.666 132.072411,42.666 C131.148411,42.666 130.224411,42.798 129.234411,42.798 C128.244411,42.798 127.254411,42.732 126.264411,42.732 C126.264411,40.488 126.330411,38.244 126.330411,36 C126.330411,31.05 126.330411,26.034 126.132411,21.084 L127.122411,21.084 C129.432411,21.15 131.808411,21.018 134.184411,21.018 C134.712411,21.018 134.778411,20.49 134.778411,20.094 C134.778411,19.764 134.712411,19.368 134.712411,19.038 C134.712411,18.972 134.052411,18.972 133.986411,18.972 C133.062411,18.972 132.204411,18.906 131.346411,18.906 C128.508411,18.906 125.670411,18.972 122.832411,18.972 C121.842411,18.972 121.314411,19.632 121.248411,20.556 L121.248411,22.272 C121.248411,25.242 121.446411,28.212 121.446411,31.116 C121.446411,41.346 121.248411,51.576 121.248411,61.806 C121.248411,64.182 121.248411,66.558 121.380411,68.934 C121.512411,69.066 121.710411,69.066 121.842411,69.066 L134.514411,69.066 C135.042411,69.066 135.174411,68.67 135.174411,68.208 C135.174411,67.812 135.108411,67.416 135.108411,67.02 Z M150.808646,54.282 C147.178646,54.282 143.482646,54.414 139.786646,54.414 C139.588646,54.414 138.664646,54.348 138.664646,54.612 C138.664646,55.668 138.532646,56.064 139.324646,56.064 C140.776646,56.064 142.228646,56.196 143.614646,56.196 C146.452646,56.196 149.290646,55.998 152.062646,55.998 C152.260646,55.998 152.392646,55.998 152.458646,55.866 L152.524646,55.734 C152.524646,55.668 152.590646,55.668 152.590646,55.668 C152.128646,54.348 153.316646,54.282 150.808646,54.282 Z M165.254882,18.444 C162.944882,18.444 161.162882,20.358 159.908882,22.14 C155.948882,27.75 155.024882,39.102 155.024882,45.834 C155.024882,51.906 155.882882,60.42 159.314882,65.502 C160.304882,67.02 161.690882,68.736 163.736882,68.736 C165.320882,68.736 167.300882,67.812 168.290882,66.558 C171.326882,62.4 173.306882,51.972 173.504882,46.824 C173.570882,44.91 173.570882,42.996 173.570882,41.082 C173.570882,36.264 173.966882,27.948 171.458882,23.856 C170.534882,22.338 169.676882,20.82 168.290882,19.698 C167.300882,18.906 166.574882,18.444 165.254882,18.444 Z M172.052882,39.036 C172.052882,46.23 171.656882,53.49 169.280882,60.288 C168.752882,61.806 167.498882,66.294 165.584882,66.294 C164.528882,66.294 163.802882,64.38 163.472882,63.588 C160.964882,58.242 159.776882,48.804 159.776882,42.798 C159.776882,38.31 161.162882,23.064 165.914882,21.282 C166.046882,21.216 166.244882,21.15 166.376882,21.15 C167.300882,21.15 168.158882,22.14 168.686882,22.734 C172.118882,26.892 172.052882,33.954 172.052882,39.036 Z M182.539118,45.372 C185.509118,42.666 188.545118,39.696 189.865118,35.802 C190.855118,33.03 191.449118,30.126 191.449118,27.156 C191.449118,23.526 190.195118,20.952 186.829118,19.368 C185.377118,18.642 182.539118,18.642 180.889118,18.642 C180.097118,18.642 179.305118,18.642 178.513118,18.708 C177.325118,18.774 176.995118,19.038 176.863118,20.226 C176.731118,21.084 176.665118,21.942 176.599118,22.866 C176.599118,25.77 176.533118,28.74 176.467118,31.644 C176.401118,35.34 176.335118,38.97 176.335118,42.666 C176.335118,47.616 176.401118,52.5 176.401118,57.45 L176.401118,66.822 C176.401118,67.218 176.467118,67.614 176.533118,68.01 C176.599118,68.604 176.797118,68.604 177.325118,68.604 C178.117118,68.604 178.909118,68.67 179.701118,68.67 C181.021118,68.67 181.351118,68.67 181.351118,67.35 C181.351118,65.964 181.219118,64.644 181.219118,63.258 C181.219118,58.968 181.087118,54.678 181.087118,50.388 C181.087118,49.464 181.153118,48.474 181.153118,47.484 C182.869118,49.596 183.925118,52.17 185.047118,54.612 C186.961118,58.836 188.809118,63.852 191.119118,67.746 C191.383118,68.142 191.977118,68.802 192.505118,68.802 C192.967118,68.802 193.231118,68.274 193.231118,67.812 C193.231118,67.35 192.967118,66.888 192.703118,66.492 C191.449118,63.72 190.129118,60.948 188.875118,58.176 C188.083118,56.394 187.357118,54.678 186.565118,52.962 C185.773118,51.378 184.849118,49.794 183.991118,48.276 C183.463118,47.352 182.605118,46.494 182.539118,45.372 Z M181.219118,20.688 C181.615118,20.688 182.011118,20.622 182.407118,20.622 C187.093118,20.622 189.205118,22.734 189.205118,27.42 C189.205118,34.746 186.565118,39.036 181.087118,43.59 C181.021118,40.224 180.955118,36.792 180.955118,33.426 C180.955118,29.202 181.021118,24.912 181.219118,20.688 Z M198.305354,18.84 C197.909354,18.84 197.579354,18.972 197.183354,19.104 C196.457354,19.302 196.127354,19.368 195.863354,20.16 C195.269354,22.14 195.269354,33.03 195.269354,35.802 C195.269354,39.696 195.533354,65.898 196.259354,67.68 C196.655354,68.604 198.041354,69 198.965354,69 C200.351354,69 201.473354,68.868 202.661354,68.274 C207.347354,66.096 208.799354,62.532 210.449354,57.912 C212.099354,53.358 212.627354,49.53 212.627354,44.712 C212.627354,35.868 209.525354,26.364 202.067354,21.018 C201.143354,20.292 199.427354,18.84 198.305354,18.84 Z M199.361354,23.724 C199.361354,23.196 199.427354,22.668 199.427354,22.14 C200.747354,22.998 202.067354,23.724 203.123354,24.912 C204.047354,25.902 205.037354,26.892 205.763354,28.014 C208.931354,33.228 210.383354,38.244 210.383354,44.25 C210.383354,48.012 210.053354,51.906 208.799354,55.47 C207.941354,57.846 207.215354,60.486 205.631354,62.466 C204.443354,63.984 202.595354,66.162 200.483354,66.03 L200.417354,65.964 C200.351354,64.644 200.153354,63.258 200.153354,61.872 C200.153354,61.08 200.285354,60.222 200.285354,59.364 C200.285354,51.114 200.087354,42.798 199.823354,34.548 C199.691354,30.984 199.361354,27.288 199.361354,23.724 Z M229.845589,67.02 C229.515589,66.822 228.195589,66.954 227.799589,66.954 C225.555589,66.954 223.245589,66.954 221.001589,66.888 C221.001589,62.07 220.935589,57.252 220.935589,52.434 C220.935589,49.86 220.935589,47.22 221.001589,44.646 L221.925589,44.646 C223.245589,44.646 225.951589,44.646 227.205589,44.382 C227.667589,44.316 227.931589,44.052 227.931589,43.59 C227.931589,42.864 227.469589,42.666 226.809589,42.666 C225.885589,42.666 224.961589,42.798 223.971589,42.798 C222.981589,42.798 221.991589,42.732 221.001589,42.732 C221.001589,40.488 221.067589,38.244 221.067589,36 C221.067589,31.05 221.067589,26.034 220.869589,21.084 L221.859589,21.084 C224.169589,21.15 226.545589,21.018 228.921589,21.018 C229.449589,21.018 229.515589,20.49 229.515589,20.094 C229.515589,19.764 229.449589,19.368 229.449589,19.038 C229.449589,18.972 228.789589,18.972 228.723589,18.972 C227.799589,18.972 226.941589,18.906 226.083589,18.906 C223.245589,18.906 220.407589,18.972 217.569589,18.972 C216.579589,18.972 216.051589,19.632 215.985589,20.556 L215.985589,22.272 C215.985589,25.242 216.183589,28.212 216.183589,31.116 C216.183589,41.346 215.985589,51.576 215.985589,61.806 C215.985589,64.182 215.985589,66.558 216.117589,68.934 C216.249589,69.066 216.447589,69.066 216.579589,69.066 L229.251589,69.066 C229.779589,69.066 229.911589,68.67 229.911589,68.208 C229.911589,67.812 229.845589,67.416 229.845589,67.02 Z M239.935825,45.372 C242.905825,42.666 245.941825,39.696 247.261825,35.802 C248.251825,33.03 248.845825,30.126 248.845825,27.156 C248.845825,23.526 247.591825,20.952 244.225825,19.368 C242.773825,18.642 239.935825,18.642 238.285825,18.642 C237.493825,18.642 236.701825,18.642 235.909825,18.708 C234.721825,18.774 234.391825,19.038 234.259825,20.226 C234.127825,21.084 234.061825,21.942 233.995825,22.866 C233.995825,25.77 233.929825,28.74 233.863825,31.644 C233.797825,35.34 233.731825,38.97 233.731825,42.666 C233.731825,47.616 233.797825,52.5 233.797825,57.45 L233.797825,66.822 C233.797825,67.218 233.863825,67.614 233.929825,68.01 C233.995825,68.604 234.193825,68.604 234.721825,68.604 C235.513825,68.604 236.305825,68.67 237.097825,68.67 C238.417825,68.67 238.747825,68.67 238.747825,67.35 C238.747825,65.964 238.615825,64.644 238.615825,63.258 C238.615825,58.968 238.483825,54.678 238.483825,50.388 C238.483825,49.464 238.549825,48.474 238.549825,47.484 C240.265825,49.596 241.321825,52.17 242.443825,54.612 C244.357825,58.836 246.205825,63.852 248.515825,67.746 C248.779825,68.142 249.373825,68.802 249.901825,68.802 C250.363825,68.802 250.627825,68.274 250.627825,67.812 C250.627825,67.35 250.363825,66.888 250.099825,66.492 C248.845825,63.72 247.525825,60.948 246.271825,58.176 C245.479825,56.394 244.753825,54.678 243.961825,52.962 C243.169825,51.378 242.245825,49.794 241.387825,48.276 C240.859825,47.352 240.001825,46.494 239.935825,45.372 Z M238.615825,20.688 C239.011825,20.688 239.407825,20.622 239.803825,20.622 C244.489825,20.622 246.601825,22.734 246.601825,27.42 C246.601825,34.746 243.961825,39.036 238.483825,43.59 C238.417825,40.224 238.351825,36.792 238.351825,33.426 C238.351825,29.202 238.417825,24.912 238.615825,20.688 Z" id="PRE-ORDER" fill="#FFFFFF"></path>
                    </g>
                </g>
            </g>
        </g>
    </g>
</svg>