<?xml version="1.0" encoding="UTF-8"?>
<svg width="183px" height="54px" viewBox="0 0 183 54" version="1.1" xmlns="http://www.w3.org/2000/svg" xmlns:xlink="http://www.w3.org/1999/xlink">
    <!-- Generator: Sketch 41.1 (35376) - http://www.bohemiancoding.com/sketch -->
    <title>read-more</title>
    <desc>Created with Sketch.</desc>
    <defs></defs>
    <g id="Page-1" stroke="none" stroke-width="1" fill="none" fill-rule="evenodd">
        <g id="Desktop-HD" transform="translate(-1090.000000, -4051.000000)" fill="#C47878">
            <path d="M1096.4,4081.088 C1099.28,4078.464 1102.224,4075.584 1103.504,4071.808 C1104.464,4069.12 1105.04,4066.304 1105.04,4063.424 C1105.04,4059.904 1103.824,4057.408 1100.56,4055.872 C1099.152,4055.168 1096.4,4055.168 1094.8,4055.168 C1094.032,4055.168 1093.264,4055.168 1092.496,4055.232 C1091.344,4055.296 1091.024,4055.552 1090.896,4056.704 C1090.768,4057.536 1090.704,4058.368 1090.64,4059.264 C1090.64,4062.08 1090.576,4064.96 1090.512,4067.776 C1090.448,4071.36 1090.384,4074.88 1090.384,4078.464 C1090.384,4083.264 1090.448,4088 1090.448,4092.8 L1090.448,4101.888 C1090.448,4102.272 1090.512,4102.656 1090.576,4103.04 C1090.64,4103.616 1090.832,4103.616 1091.344,4103.616 C1092.112,4103.616 1092.88,4103.68 1093.648,4103.68 C1094.928,4103.68 1095.248,4103.68 1095.248,4102.4 C1095.248,4101.056 1095.12,4099.776 1095.12,4098.432 C1095.12,4094.272 1094.992,4090.112 1094.992,4085.952 C1094.992,4085.056 1095.056,4084.096 1095.056,4083.136 C1096.72,4085.184 1097.744,4087.68 1098.832,4090.048 C1100.688,4094.144 1102.48,4099.008 1104.72,4102.784 C1104.976,4103.168 1105.552,4103.808 1106.064,4103.808 C1106.512,4103.808 1106.768,4103.296 1106.768,4102.848 C1106.768,4102.4 1106.512,4101.952 1106.256,4101.568 C1105.04,4098.88 1103.76,4096.192 1102.544,4093.504 C1101.776,4091.776 1101.072,4090.112 1100.304,4088.448 C1099.536,4086.912 1098.64,4085.376 1097.808,4083.904 C1097.296,4083.008 1096.464,4082.176 1096.4,4081.088 Z M1095.12,4057.152 C1095.504,4057.152 1095.888,4057.088 1096.272,4057.088 C1100.816,4057.088 1102.864,4059.136 1102.864,4063.68 C1102.864,4070.784 1100.304,4074.944 1094.992,4079.36 C1094.928,4076.096 1094.864,4072.768 1094.864,4069.504 C1094.864,4065.408 1094.928,4061.248 1095.12,4057.152 Z M1123.01647,4097.6 C1121.22447,4097.6 1121.54447,4101.824 1118.21647,4101.824 C1113.54447,4101.824 1112.71247,4092.224 1112.71247,4088.96 C1112.71247,4086.144 1112.96847,4083.328 1113.48047,4080.576 L1117.38447,4080.256 C1118.60047,4080.192 1122.24847,4080.384 1122.88847,4079.168 C1123.27247,4078.4 1123.27247,4077.44 1123.27247,4076.608 C1123.27247,4073.088 1121.80047,4068.928 1117.70447,4068.928 C1109.64047,4068.928 1108.87247,4084.8 1108.87247,4090.432 C1108.87247,4095.488 1110.47247,4104 1116.93647,4104 C1119.04847,4104 1120.20047,4103.872 1121.86447,4102.528 C1122.56847,4101.888 1123.72047,4099.264 1123.72047,4098.304 C1123.72047,4097.92 1123.52847,4097.6 1123.01647,4097.6 Z M1118.15247,4070.592 C1120.84047,4070.592 1121.60847,4074.112 1121.60847,4076.288 C1121.60847,4076.672 1121.54447,4078.016 1121.28847,4078.272 C1121.22447,4078.272 1114.24847,4078.848 1113.73647,4078.848 C1113.73647,4077.184 1115.78447,4070.976 1117.57647,4070.656 C1117.76847,4070.592 1117.96047,4070.592 1118.15247,4070.592 Z M1142.40094,4103.104 C1142.40094,4099.712 1142.20894,4096.256 1142.20894,4092.864 C1142.20894,4090.304 1142.14494,4087.744 1142.08094,4085.248 C1142.08094,4082.496 1141.76094,4079.744 1141.56894,4076.992 C1141.24894,4073.216 1139.32894,4068.8 1134.84894,4068.8 C1131.13694,4068.8 1129.15294,4072.512 1128.51294,4075.712 C1128.44894,4075.84 1128.44894,4075.968 1128.44894,4076.096 C1128.44894,4076.736 1128.83294,4076.992 1129.40894,4077.12 C1130.56094,4074.432 1131.64894,4070.656 1135.23294,4070.656 C1136.89694,4070.656 1137.15294,4072.192 1137.72894,4073.472 L1137.72894,4073.536 C1138.11294,4076.032 1138.49694,4078.464 1138.49694,4081.088 L1138.49694,4081.472 C1136.76894,4080.768 1136.25694,4079.872 1134.01694,4079.872 C1132.86494,4079.872 1131.77694,4080.256 1130.75294,4080.832 C1128.19294,4082.24 1126.01694,4086.912 1125.76094,4089.792 C1125.69694,4090.432 1125.63294,4091.072 1125.63294,4091.712 C1125.63294,4093.504 1125.88894,4095.36 1126.33694,4097.088 C1126.52894,4097.792 1126.84894,4098.56 1127.23294,4099.2 C1128.25694,4101.184 1129.08894,4102.4 1131.07294,4103.616 C1131.71294,4104 1132.48094,4104 1133.18494,4104 C1135.55294,4104 1137.53694,4102.656 1138.68894,4100.544 C1138.62494,4101.568 1138.49694,4104 1139.96894,4104 C1140.09694,4104 1140.22494,4104 1140.35294,4103.936 C1140.67294,4104 1140.92894,4104 1141.18494,4104 C1141.82494,4104 1142.40094,4103.872 1142.40094,4103.104 Z M1138.68894,4094.4 C1138.68894,4097.344 1136.44894,4102.016 1132.99294,4102.016 C1132.09694,4102.016 1130.94494,4101.056 1130.30494,4100.416 C1127.68094,4097.92 1127.42494,4094.848 1127.42494,4091.392 C1127.42494,4090.048 1127.55294,4088.64 1128.12894,4087.424 C1129.08894,4085.056 1130.75294,4081.92 1133.63294,4081.92 C1135.10494,4081.92 1136.83294,4082.688 1138.04894,4083.456 C1138.56094,4083.776 1138.68894,4084.096 1138.68894,4084.672 L1138.68894,4094.4 Z M1161.33741,4088.32 C1161.33741,4085.248 1161.46541,4082.176 1161.46541,4079.104 C1161.46541,4074.56 1161.33741,4070.08 1161.33741,4065.536 C1161.33741,4061.184 1161.46541,4056.768 1161.46541,4052.416 C1161.46541,4051.776 1160.44141,4051.904 1159.99341,4051.904 C1159.48141,4051.904 1158.96941,4051.84 1158.45741,4051.84 C1158.26541,4051.84 1158.13741,4051.904 1158.07341,4052.16 C1157.94541,4052.48 1157.94541,4055.04 1157.94541,4055.232 C1157.81741,4060.096 1157.62541,4064.896 1157.68941,4069.76 C1157.04941,4069.568 1156.34541,4069.44 1155.64141,4069.44 C1151.28941,4069.44 1149.56141,4073.536 1148.08941,4076.992 C1146.68141,4080.384 1145.97741,4084.8 1145.97741,4088.448 C1145.97741,4093.44 1147.19341,4103.936 1153.91341,4103.936 C1156.15341,4103.936 1157.68941,4100.928 1158.52141,4099.264 C1158.71341,4100.416 1158.96941,4101.696 1159.41741,4102.848 C1159.67341,4103.424 1160.24941,4103.808 1160.88941,4103.808 C1161.65741,4103.808 1162.10541,4103.296 1162.10541,4102.592 C1162.10541,4100.672 1161.65741,4098.368 1161.52941,4096.384 C1161.40141,4093.696 1161.33741,4091.008 1161.33741,4088.32 Z M1158.13741,4095.36 C1158.13741,4095.36 1157.88141,4096.256 1157.81741,4096.32 C1157.30541,4098.176 1156.79341,4099.072 1155.51341,4100.544 C1155.00141,4101.184 1154.23341,4101.952 1153.33741,4101.952 C1152.50541,4101.952 1151.80141,4101.376 1151.22541,4100.8 C1148.21741,4097.984 1147.70541,4092.544 1147.70541,4088.64 C1147.70541,4086.464 1147.96141,4084.288 1148.47341,4082.176 C1149.17741,4078.848 1151.54541,4071.168 1155.83341,4071.168 C1156.47341,4071.168 1157.11341,4071.36 1157.68941,4071.616 C1157.62541,4074.688 1157.62541,4077.696 1157.62541,4080.768 C1157.62541,4085.056 1157.81741,4089.472 1158.00941,4093.824 C1158.00941,4094.336 1158.13741,4094.848 1158.13741,4095.36 Z M1194.92235,4057.728 C1194.92235,4056.96 1194.98635,4055.424 1193.89835,4055.424 C1193.57835,4055.424 1193.19435,4055.488 1192.93835,4055.744 C1192.68235,4056.064 1192.29835,4059.584 1192.17035,4060.352 C1191.46635,4065.536 1190.69835,4070.72 1190.05835,4075.904 C1189.22635,4082.496 1187.75435,4089.024 1186.53835,4095.616 L1186.34635,4095.552 C1186.02635,4093.952 1185.83435,4092.352 1185.51435,4090.752 C1184.93835,4087.616 1184.29835,4084.544 1183.78635,4081.408 C1183.01835,4076.992 1182.50635,4072.512 1181.80235,4068.096 C1181.48235,4065.984 1181.16235,4063.936 1180.84235,4061.824 C1180.71435,4060.8 1180.33035,4055.488 1179.30635,4055.296 C1178.79435,4055.232 1178.21835,4055.232 1177.70635,4055.296 L1176.93835,4055.296 C1175.78635,4055.296 1175.46635,4055.104 1175.40235,4056.448 L1175.40235,4058.624 C1175.40235,4063.488 1175.27435,4068.352 1175.14635,4073.216 C1174.95435,4079.04 1174.89035,4084.864 1174.69835,4090.752 C1174.63435,4094.656 1174.37835,4098.56 1174.37835,4102.464 C1174.37835,4103.232 1174.50635,4103.936 1175.46635,4103.936 C1176.10635,4103.936 1176.74635,4103.808 1177.38635,4103.808 C1177.83435,4103.808 1178.28235,4103.808 1178.66635,4103.744 C1179.30635,4103.616 1179.24235,4103.488 1179.30635,4102.848 C1179.43435,4101.44 1179.37035,4100.032 1179.37035,4098.624 C1179.37035,4093.376 1179.75435,4088.128 1179.75435,4082.88 C1179.75435,4079.104 1179.62635,4075.328 1179.62635,4071.552 C1179.62635,4070.208 1179.62635,4068.864 1179.69035,4067.52 L1181.22635,4077.888 C1181.86635,4081.92 1182.76235,4085.888 1183.53035,4089.92 C1184.04235,4092.864 1184.42635,4095.808 1185.00235,4098.752 C1185.13035,4099.456 1185.64235,4100.416 1186.47435,4100.416 C1187.24235,4100.416 1187.62635,4099.392 1187.69035,4098.816 C1188.20235,4096 1188.84235,4093.248 1189.41835,4090.496 C1190.57035,4084.416 1191.53035,4078.336 1192.36235,4072.256 C1192.74635,4069.696 1193.25835,4067.2 1193.57835,4064.704 L1194.09035,4076.864 C1194.47435,4085.504 1195.11435,4094.208 1195.49835,4102.848 C1195.56235,4103.552 1195.49835,4104.256 1196.52235,4104.256 C1197.09835,4104.256 1197.16235,4103.424 1197.16235,4102.976 C1197.16235,4102.272 1197.03435,4101.568 1196.97035,4100.864 C1196.84235,4099.136 1196.77835,4097.408 1196.71435,4095.68 C1196.52235,4091.2 1196.33035,4086.656 1196.20235,4082.112 C1196.07435,4080.256 1195.94635,4078.336 1195.88235,4076.416 C1195.81835,4073.216 1195.49835,4070.016 1195.30635,4066.752 L1194.85835,4059.712 C1194.79435,4059.072 1194.92235,4058.368 1194.92235,4057.728 Z M1205.98683,4068.672 C1205.09083,4068.672 1203.74683,4068.992 1203.04283,4069.696 C1200.03483,4072.768 1199.39483,4081.024 1199.39483,4085.184 C1199.39483,4088.896 1199.71483,4092.608 1200.35483,4096.256 C1200.86683,4099.52 1202.91483,4103.936 1206.81883,4103.936 C1209.05883,4103.936 1210.40283,4102.784 1211.29883,4100.8 C1213.15483,4096.704 1214.11483,4092.032 1214.11483,4087.552 C1214.11483,4082.944 1213.92283,4077.056 1211.55483,4073.024 C1210.27483,4070.912 1208.73883,4068.672 1205.98683,4068.672 Z M1207.90683,4101.568 C1206.94683,4101.568 1206.11483,4100.224 1205.66683,4099.52 C1204.32283,4097.152 1203.61883,4090.496 1203.61883,4087.68 C1203.61883,4085.184 1203.61883,4071.04 1207.01083,4071.04 C1207.52283,4071.04 1208.54683,4071.808 1208.93083,4072.192 C1212.32283,4075.712 1212.70683,4082.24 1212.70683,4086.848 C1212.70683,4088.256 1212.64283,4089.664 1212.38683,4091.008 C1212.00283,4092.928 1210.33883,4101.568 1207.90683,4101.568 Z M1216.7953,4068.8 C1216.4753,4070.4 1216.6033,4071.936 1216.5393,4073.6 C1216.4753,4077.12 1216.5393,4080.704 1216.5393,4084.224 C1216.5393,4086.336 1216.6033,4088.448 1216.6033,4090.56 C1216.6033,4094.4 1216.3473,4098.304 1216.3473,4102.144 C1216.3473,4103.36 1217.3073,4104 1218.4593,4104 C1219.6753,4104 1220.3793,4103.552 1220.3793,4102.336 C1220.3793,4094.464 1219.4193,4075.968 1225.2433,4071.296 C1225.6273,4070.976 1226.0753,4070.72 1226.6513,4070.72 C1229.7233,4070.72 1228.2513,4075.712 1229.7233,4075.712 C1230.3633,4075.712 1230.6193,4075.264 1230.6193,4074.624 C1230.6193,4072.192 1229.2753,4068.672 1226.3313,4068.672 C1225.7553,4068.672 1225.1793,4068.864 1224.6673,4069.184 C1221.7873,4070.976 1221.2113,4073.536 1220.0593,4076.48 C1220.1873,4074.368 1220.3793,4072.256 1220.5073,4070.208 L1220.5073,4069.888 C1220.5073,4069.12 1220.1873,4068.16 1219.2273,4068.16 C1218.7793,4068.16 1217.3713,4068.608 1216.7953,4068.8 Z M1245.77977,4097.6 C1243.98777,4097.6 1244.30777,4101.824 1240.97977,4101.824 C1236.30777,4101.824 1235.47577,4092.224 1235.47577,4088.96 C1235.47577,4086.144 1235.73177,4083.328 1236.24377,4080.576 L1240.14777,4080.256 C1241.36377,4080.192 1245.01177,4080.384 1245.65177,4079.168 C1246.03577,4078.4 1246.03577,4077.44 1246.03577,4076.608 C1246.03577,4073.088 1244.56377,4068.928 1240.46777,4068.928 C1232.40377,4068.928 1231.63577,4084.8 1231.63577,4090.432 C1231.63577,4095.488 1233.23577,4104 1239.69977,4104 C1241.81177,4104 1242.96377,4103.872 1244.62777,4102.528 C1245.33177,4101.888 1246.48377,4099.264 1246.48377,4098.304 C1246.48377,4097.92 1246.29177,4097.6 1245.77977,4097.6 Z M1240.91577,4070.592 C1243.60377,4070.592 1244.37177,4074.112 1244.37177,4076.288 C1244.37177,4076.672 1244.30777,4078.016 1244.05177,4078.272 C1243.98777,4078.272 1237.01177,4078.848 1236.49977,4078.848 C1236.49977,4077.184 1238.54777,4070.976 1240.33977,4070.656 C1240.53177,4070.592 1240.72377,4070.592 1240.91577,4070.592 Z M1272.78024,4101.312 C1272.78024,4100.224 1271.75624,4099.136 1270.66824,4099.136 C1269.13224,4099.136 1268.30024,4099.968 1268.30024,4101.504 C1268.30024,4102.592 1269.06824,4104 1270.28424,4104 C1271.75624,4104 1272.78024,4102.656 1272.78024,4101.312 Z M1252.68424,4101.312 C1252.68424,4100.224 1251.66024,4099.136 1250.57224,4099.136 C1249.03624,4099.136 1248.26824,4099.968 1248.26824,4101.504 C1248.26824,4102.592 1248.97224,4104 1250.25224,4104 C1251.66024,4104 1252.68424,4102.656 1252.68424,4101.312 Z M1262.79624,4101.312 C1262.79624,4100.224 1261.77224,4099.136 1260.68424,4099.136 C1259.14824,4099.136 1258.31624,4099.968 1258.31624,4101.504 C1258.31624,4102.592 1259.08424,4104 1260.30024,4104 C1261.77224,4104 1262.79624,4102.656 1262.79624,4101.312 Z" id="read-more"></path>
        </g>
    </g>
</svg>