<?xml version="1.0" encoding="UTF-8"?>
<svg width="53px" height="53px" viewBox="0 0 53 53" version="1.1" xmlns="http://www.w3.org/2000/svg" xmlns:xlink="http://www.w3.org/1999/xlink">
    <!-- Generator: Sketch 41.1 (35376) - http://www.bohemiancoding.com/sketch -->
    <title>twitter-icon</title>
    <desc>Created with Sketch.</desc>
    <defs></defs>
    <g id="Page-1" stroke="none" stroke-width="1" fill="none" fill-rule="evenodd">
        <g id="Desktop-HD" transform="translate(-544.000000, -455.000000)">
            <g id="twitter-icon" transform="translate(544.000000, 455.000000)">
                <circle id="Oval" fill="#D72B7D" cx="26.5" cy="26.5" r="26.5"></circle>
                <path d="M43.0625,16.2284896 C42.1236781,17.6036372 40.9886844,18.775319 39.657519,19.7435352 C39.6715313,19.9399848 39.6785374,20.2346593 39.6785374,20.6275586 C39.6785374,22.4517339 39.4123044,24.2724013 38.8798382,26.0895605 C38.347372,27.9067198 37.5381636,29.6502105 36.4522129,31.3200326 C35.3662622,32.9898546 34.0736305,34.466735 32.5743179,35.7506738 C31.0750053,37.0346126 29.2674228,38.0589572 27.1515704,38.8237077 C25.0357181,39.5884581 22.7727369,39.9708333 20.3626269,39.9708333 C16.5653025,39.9708333 13.0902602,38.9535048 9.9375,36.9188477 C10.4279294,36.9749761 10.9744078,37.0030404 11.5769353,37.0030404 C14.7296954,37.0030404 17.539155,36.0348242 20.0053141,34.0983919 C18.534026,34.0703277 17.2168729,33.6177919 16.0538547,32.7407845 C14.8908365,31.8637771 14.0921373,30.7447157 13.657757,29.3836003 C14.1201618,29.4537609 14.547536,29.4888411 14.9398794,29.4888411 C15.5424069,29.4888411 16.1379283,29.4116645 16.7264435,29.2573112 C15.1570696,28.9345725 13.8574318,28.1522819 12.8275301,26.9104395 C11.7976285,25.668597 11.2826777,24.2267969 11.2826777,22.5850391 L11.2826777,22.5008464 C12.2355118,23.0340668 13.2584074,23.3217253 14.3513642,23.3638216 C13.4265546,22.7464084 12.6909105,21.9395616 12.1444321,20.9432813 C11.5979537,19.9470009 11.3247145,18.8665278 11.3247145,17.701862 C11.3247145,16.4670356 11.6329843,15.323418 12.2495241,14.2710091 C13.9450085,16.3617947 16.0083148,18.0351248 18.4394432,19.2909993 C20.8705716,20.5468739 23.4733503,21.2449718 26.2477792,21.385293 C26.135681,20.8520725 26.079632,20.3328841 26.079632,19.8277279 C26.079632,17.947424 26.7417116,16.3442546 28.0658709,15.0182194 C29.3900301,13.6921842 30.9909317,13.0291667 32.8685755,13.0291667 C34.8302929,13.0291667 36.4837405,13.7448047 37.8289181,15.1760807 C39.3562553,14.8814063 40.7925127,14.3341536 42.1376904,13.5343229 C41.6192365,15.1480165 40.6243655,16.396875 39.1530774,17.2808984 C40.4562183,17.1405773 41.7593591,16.7897743 43.0625,16.2284896 Z" fill="#FFFFFF"></path>
            </g>
        </g>
    </g>
</svg>